
<svg width="628px" height="120px" viewBox="0 0 628 120" version="1.1" xmlns="http://www.w3.org/2000/svg" xmlns:xlink="http://www.w3.org/1999/xlink">
    <defs>
        <linearGradient x1="100%" y1="0%" x2="0%" y2="100%" id="linearGradient-1">
            <stop stop-color="#181E6D" offset="0%"></stop>
            <stop stop-color="#016FBA" offset="66.0833634%"></stop>
            <stop stop-color="#0071BC" offset="100%"></stop>
        </linearGradient>
        <path d="M137,43.72 L137,15.24 L143.12,15.24 C144.240006,15.24 145.226662,15.3866652 146.08,15.68 C146.933338,15.9733348 147.706663,16.4933296 148.4,17.24 C149.093337,17.9866704 149.573332,18.859995 149.84,19.86 C150.106668,20.860005 150.24,22.2133248 150.24,23.92 C150.24,25.2000064 150.166667,26.2799956 150.02,27.16 C149.873333,28.0400044 149.560002,28.8666628 149.08,29.64 C148.519997,30.573338 147.773338,31.2999974 146.84,31.82 C145.906662,32.3400026 144.680008,32.6 143.16,32.6 L141.08,32.6 L141.08,43.72 L137,43.72 Z M141.08,19.08 L141.08,28.76 L143.04,28.76 C143.866671,28.76 144.506664,28.6400012 144.96,28.4 C145.413336,28.1599988 145.746666,27.8266688 145.96,27.4 C146.173334,26.999998 146.3,26.5066696 146.34,25.92 C146.38,25.3333304 146.4,24.6800036 146.4,23.96 C146.4,23.29333 146.386667,22.660003 146.36,22.06 C146.333333,21.459997 146.213334,20.9333356 146,20.48 C145.786666,20.0266644 145.466669,19.6800012 145.04,19.44 C144.613331,19.1999988 144.000004,19.08 143.2,19.08 L141.08,19.08 Z M164.66,35.12 L156.58,35.12 L156.58,37.88 C156.58,38.5200032 156.759998,39.0133316 157.12,39.36 C157.480002,39.7066684 157.966664,39.88 158.58,39.88 C159.353337,39.88 159.866665,39.6533356 160.12,39.2 C160.373335,38.7466644 160.526666,38.2933356 160.58,37.84 L164.66,37.84 C164.66,39.6266756 164.113339,41.0666612 163.02,42.16 C162.486664,42.7200028 161.84667,43.1599984 161.1,43.48 C160.35333,43.8000016 159.513338,43.96 158.58,43.96 C157.299994,43.96 156.213338,43.693336 155.32,43.16 C154.426662,42.626664 153.740002,41.9200044 153.26,41.04 C152.966665,40.506664 152.766667,39.8933368 152.66,39.2 C152.553333,38.5066632 152.5,37.7466708 152.5,36.92 L152.5,30.24 C152.5,29.4133292 152.553333,28.6533368 152.66,27.96 C152.766667,27.2666632 152.966665,26.653336 153.26,26.12 C153.740002,25.2399956 154.426662,24.533336 155.32,24 C156.213338,23.466664 157.299994,23.2 158.58,23.2 C159.513338,23.2 160.359996,23.3599984 161.12,23.68 C161.880004,24.0000016 162.526664,24.4399972 163.06,25 C164.126672,26.200006 164.66,27.7066576 164.66,29.52 L164.66,35.12 Z M156.58,31.92 L160.58,31.92 L160.58,29.6 C160.58,28.8266628 160.400002,28.2466686 160.04,27.86 C159.679998,27.4733314 159.193336,27.28 158.58,27.28 C157.966664,27.28 157.480002,27.4733314 157.12,27.86 C156.759998,28.2466686 156.58,28.8266628 156.58,29.6 L156.58,31.92 Z M167.96,43.72 L167.96,23.44 L172.04,23.44 L172.04,25.6 C172.866671,24.8533296 173.679996,24.2666688 174.48,23.84 C175.280004,23.4133312 176.266661,23.2 177.44,23.2 L177.44,27.52 C177.039998,27.3599992 176.626669,27.28 176.2,27.28 C175.773331,27.28 175.313336,27.3533326 174.82,27.5 C174.326664,27.6466674 173.880002,27.8933316 173.48,28.24 C173.053331,28.5866684 172.706668,29.0399972 172.44,29.6 C172.173332,30.1600028 172.04,30.8533292 172.04,31.68 L172.04,43.72 L167.96,43.72 Z M192.54,23.44 L187.26,43.72 L183.66,43.72 L178.38,23.44 L182.7,23.44 L185.42,36.4 L185.5,36.4 L188.22,23.44 L192.54,23.44 Z M201.96,43.72 L201.96,41.64 L201.88,41.64 C201.346664,42.3866704 200.806669,42.959998 200.26,43.36 C199.713331,43.760002 198.946672,43.96 197.96,43.96 C197.479998,43.96 196.993336,43.8866674 196.5,43.74 C196.006664,43.5933326 195.533336,43.320002 195.08,42.92 C194.626664,42.5466648 194.260001,42.0066702 193.98,41.3 C193.699999,40.5933298 193.56,39.6800056 193.56,38.56 C193.56,37.4133276 193.653332,36.406671 193.84,35.54 C194.026668,34.673329 194.373331,33.9466696 194.88,33.36 C195.360002,32.7999972 196.013329,32.3800014 196.84,32.1 C197.666671,31.8199986 198.719994,31.68 200,31.68 L200.44,31.68 C200.600001,31.68 200.746666,31.6933332 200.88,31.72 C201.013334,31.7466668 201.173332,31.76 201.36,31.76 C201.546668,31.76 201.746666,31.7733332 201.96,31.8 L201.96,29.68 C201.96,28.9866632 201.813335,28.4133356 201.52,27.96 C201.226665,27.5066644 200.693337,27.28 199.92,27.28 C199.386664,27.28 198.900002,27.4533316 198.46,27.8 C198.019998,28.1466684 197.733334,28.65333 197.6,29.32 L193.64,29.32 C193.746667,27.5066576 194.359994,26.0400056 195.48,24.92 C196.013336,24.386664 196.65333,23.9666682 197.4,23.66 C198.14667,23.3533318 198.986662,23.2 199.92,23.2 C200.773338,23.2 201.57333,23.333332 202.32,23.6 C203.06667,23.866668 203.719997,24.266664 204.28,24.8 C204.813336,25.333336 205.239998,25.999996 205.56,26.8 C205.880002,27.600004 206.04,28.533328 206.04,29.6 L206.04,43.72 L201.96,43.72 Z M201.96,35 C201.506664,34.9199996 201.133335,34.88 200.84,34.88 C199.959996,34.88 199.20667,35.0866646 198.58,35.5 C197.95333,35.9133354 197.64,36.6666612 197.64,37.76 C197.64,38.5333372 197.826665,39.1599976 198.2,39.64 C198.573335,40.1200024 199.09333,40.36 199.76,40.36 C200.453337,40.36 200.993331,40.1333356 201.38,39.68 C201.766669,39.2266644 201.96,38.5866708 201.96,37.76 L201.96,35 Z M216.74,29.12 C216.713333,28.4266632 216.493335,27.9066684 216.08,27.56 C215.666665,27.2133316 215.193336,27.04 214.66,27.04 C214.019997,27.04 213.526668,27.2466646 213.18,27.66 C212.833332,28.0733354 212.66,28.546664 212.66,29.08 C212.66,29.4533352 212.753332,29.8199982 212.94,30.18 C213.126668,30.5400018 213.606663,30.8666652 214.38,31.16 L216.78,32.12 C218.300008,32.7066696 219.346664,33.5066616 219.92,34.52 C220.493336,35.5333384 220.78,36.639994 220.78,37.84 C220.78,38.6933376 220.626668,39.486663 220.32,40.22 C220.013332,40.953337 219.593336,41.5999972 219.06,42.16 C218.526664,42.7200028 217.88667,43.1599984 217.14,43.48 C216.39333,43.8000016 215.580004,43.96 214.7,43.96 C213.046658,43.96 211.660006,43.4400052 210.54,42.4 C209.979997,41.8933308 209.526668,41.2600038 209.18,40.5 C208.833332,39.7399962 208.646667,38.8533384 208.62,37.84 L212.46,37.84 C212.54,38.4000028 212.733332,38.9199976 213.04,39.4 C213.346668,39.8800024 213.886663,40.12 214.66,40.12 C215.24667,40.12 215.773331,39.9266686 216.24,39.54 C216.706669,39.1533314 216.94,38.6133368 216.94,37.92 C216.94,37.3599972 216.793335,36.880002 216.5,36.48 C216.206665,36.079998 215.673337,35.7333348 214.9,35.44 L212.94,34.72 C211.659994,34.2399976 210.653337,33.5266714 209.92,32.58 C209.186663,31.6333286 208.82,30.4800068 208.82,29.12 C208.82,28.2666624 208.979998,27.473337 209.3,26.74 C209.620002,26.006663 210.059997,25.373336 210.62,24.84 C211.153336,24.306664 211.779996,23.9000014 212.5,23.62 C213.220004,23.3399986 213.993329,23.2 214.82,23.2 C215.646671,23.2 216.41333,23.3466652 217.12,23.64 C217.82667,23.9333348 218.433331,24.346664 218.94,24.88 C219.446669,25.413336 219.846665,26.046663 220.14,26.78 C220.433335,27.513337 220.58,28.2933292 220.58,29.12 L216.74,29.12 Z M223.72,43.72 L223.72,23.44 L227.8,23.44 L227.8,43.72 L223.72,43.72 Z M223.72,19.32 L223.72,15.24 L227.8,15.24 L227.8,19.32 L223.72,19.32 Z M243.9,23.44 L238.62,43.72 L235.02,43.72 L229.74,23.44 L234.06,23.44 L236.78,36.4 L236.86,36.4 L239.58,23.44 L243.9,23.44 Z M257.4,35.12 L249.32,35.12 L249.32,37.88 C249.32,38.5200032 249.499998,39.0133316 249.86,39.36 C250.220002,39.7066684 250.706664,39.88 251.32,39.88 C252.093337,39.88 252.606665,39.6533356 252.86,39.2 C253.113335,38.7466644 253.266666,38.2933356 253.32,37.84 L257.4,37.84 C257.4,39.6266756 256.853339,41.0666612 255.76,42.16 C255.226664,42.7200028 254.58667,43.1599984 253.84,43.48 C253.09333,43.8000016 252.253338,43.96 251.32,43.96 C250.039994,43.96 248.953338,43.693336 248.06,43.16 C247.166662,42.626664 246.480002,41.9200044 246,41.04 C245.706665,40.506664 245.506667,39.8933368 245.4,39.2 C245.293333,38.5066632 245.24,37.7466708 245.24,36.92 L245.24,30.24 C245.24,29.4133292 245.293333,28.6533368 245.4,27.96 C245.506667,27.2666632 245.706665,26.653336 246,26.12 C246.480002,25.2399956 247.166662,24.533336 248.06,24 C248.953338,23.466664 250.039994,23.2 251.32,23.2 C252.253338,23.2 253.099996,23.3599984 253.86,23.68 C254.620004,24.0000016 255.266664,24.4399972 255.8,25 C256.866672,26.200006 257.4,27.7066576 257.4,29.52 L257.4,35.12 Z M249.32,31.92 L253.32,31.92 L253.32,29.6 C253.32,28.8266628 253.140002,28.2466686 252.78,27.86 C252.419998,27.4733314 251.933336,27.28 251.32,27.28 C250.706664,27.28 250.220002,27.4733314 249.86,27.86 C249.499998,28.2466686 249.32,28.8266628 249.32,29.6 L249.32,31.92 Z M268.68,43.72 L268.68,15.24 L272.76,15.24 L272.76,27.44 L277.8,27.44 L277.8,15.24 L281.88,15.24 L281.88,43.72 L277.8,43.72 L277.8,31.04 L272.76,31.04 L272.76,43.72 L268.68,43.72 Z M297.98,23.44 L297.98,43.72 L293.9,43.72 L293.9,41.76 L293.82,41.76 C293.393331,42.4000032 292.880003,42.9266646 292.28,43.34 C291.679997,43.7533354 290.913338,43.96 289.98,43.96 C289.473331,43.96 288.966669,43.8733342 288.46,43.7 C287.953331,43.5266658 287.500002,43.240002 287.1,42.84 C286.699998,42.439998 286.380001,41.9266698 286.14,41.3 C285.899999,40.6733302 285.78,39.9066712 285.78,39 L285.78,23.44 L289.86,23.44 L289.86,37.48 C289.86,38.2266704 290.033332,38.8133312 290.38,39.24 C290.726669,39.6666688 291.219997,39.88 291.86,39.88 C292.633337,39.88 293.166665,39.6400024 293.46,39.16 C293.753335,38.6799976 293.9,37.9866712 293.9,37.08 L293.9,23.44 L297.98,23.44 Z M301.64,43.72 L301.64,23.44 L305.72,23.44 L305.72,25.4 L305.8,25.4 C306.226669,24.7599968 306.739997,24.2333354 307.34,23.82 C307.940003,23.4066646 308.706662,23.2 309.64,23.2 C310.520005,23.2 311.253331,23.4133312 311.84,23.84 C312.42667,24.2666688 312.906665,24.7333308 313.28,25.24 C313.786669,24.6799972 314.346664,24.200002 314.96,23.8 C315.573337,23.399998 316.426661,23.2 317.52,23.2 C318.026669,23.2 318.546664,23.2866658 319.08,23.46 C319.613336,23.6333342 320.093331,23.919998 320.52,24.32 C320.946669,24.720002 321.293332,25.2333302 321.56,25.86 C321.826668,26.4866698 321.96,27.2533288 321.96,28.16 L321.96,43.72 L317.88,43.72 L317.88,29.68 C317.88,28.9333296 317.706669,28.3466688 317.36,27.92 C317.013332,27.4933312 316.520003,27.28 315.88,27.28 C315.106663,27.28 314.573335,27.5199976 314.28,28 C313.986665,28.4800024 313.84,29.1733288 313.84,30.08 L313.84,43.72 L309.76,43.72 L309.76,29.68 C309.76,28.9333296 309.586669,28.3466688 309.24,27.92 C308.893332,27.4933312 308.400003,27.28 307.76,27.28 C306.986663,27.28 306.453335,27.5199976 306.16,28 C305.866665,28.4800024 305.72,29.1733288 305.72,30.08 L305.72,43.72 L301.64,43.72 Z M333.34,43.72 L333.34,41.64 L333.26,41.64 C332.726664,42.3866704 332.18667,42.959998 331.64,43.36 C331.093331,43.760002 330.326672,43.96 329.34,43.96 C328.859998,43.96 328.373336,43.8866674 327.88,43.74 C327.386664,43.5933326 326.913336,43.320002 326.46,42.92 C326.006665,42.5466648 325.640002,42.0066702 325.36,41.3 C325.079999,40.5933298 324.94,39.6800056 324.94,38.56 C324.94,37.4133276 325.033333,36.406671 325.22,35.54 C325.406668,34.673329 325.753331,33.9466696 326.26,33.36 C326.740003,32.7999972 327.393329,32.3800014 328.22,32.1 C329.046671,31.8199986 330.099994,31.68 331.38,31.68 L331.82,31.68 C331.980001,31.68 332.126666,31.6933332 332.26,31.72 C332.393334,31.7466668 332.553333,31.76 332.74,31.76 C332.926668,31.76 333.126666,31.7733332 333.34,31.8 L333.34,29.68 C333.34,28.9866632 333.193335,28.4133356 332.9,27.96 C332.606665,27.5066644 332.073337,27.28 331.3,27.28 C330.766664,27.28 330.280002,27.4533316 329.84,27.8 C329.399998,28.1466684 329.113334,28.65333 328.98,29.32 L325.02,29.32 C325.126667,27.5066576 325.739995,26.0400056 326.86,24.92 C327.393336,24.386664 328.03333,23.9666682 328.78,23.66 C329.526671,23.3533318 330.366662,23.2 331.3,23.2 C332.153338,23.2 332.95333,23.333332 333.7,23.6 C334.446671,23.866668 335.099997,24.266664 335.66,24.8 C336.193336,25.333336 336.619999,25.999996 336.94,26.8 C337.260002,27.600004 337.42,28.533328 337.42,29.6 L337.42,43.72 L333.34,43.72 Z M333.34,35 C332.886665,34.9199996 332.513335,34.88 332.22,34.88 C331.339996,34.88 330.58667,35.0866646 329.96,35.5 C329.33333,35.9133354 329.02,36.6666612 329.02,37.76 C329.02,38.5333372 329.206665,39.1599976 329.58,39.64 C329.953335,40.1200024 330.47333,40.36 331.14,40.36 C331.833337,40.36 332.373332,40.1333356 332.76,39.68 C333.146669,39.2266644 333.34,38.5866708 333.34,37.76 L333.34,35 Z M340.72,43.72 L340.72,23.44 L344.8,23.44 L344.8,25.4 L344.88,25.4 C345.306669,24.7599968 345.819997,24.2333354 346.42,23.82 C347.020003,23.4066646 347.786662,23.2 348.72,23.2 C349.226669,23.2 349.733331,23.2866658 350.24,23.46 C350.746669,23.6333342 351.199998,23.919998 351.6,24.32 C352.000002,24.720002 352.319999,25.2333302 352.56,25.86 C352.800001,26.4866698 352.92,27.2533288 352.92,28.16 L352.92,43.72 L348.84,43.72 L348.84,29.68 C348.84,28.9333296 348.666669,28.3466688 348.32,27.92 C347.973332,27.4933312 347.480003,27.28 346.84,27.28 C346.066663,27.28 345.533335,27.5199976 345.24,28 C344.946665,28.4800024 344.8,29.1733288 344.8,30.08 L344.8,43.72 L340.72,43.72 Z M377.52,35.6 L377.52,37.36 C377.52,38.2400044 377.353335,39.0733294 377.02,39.86 C376.686665,40.6466706 376.22667,41.3466636 375.64,41.96 C375.053331,42.5733364 374.366671,43.0599982 373.58,43.42 C372.79333,43.7800018 371.946671,43.96 371.04,43.96 C370.266663,43.96 369.480004,43.8533344 368.68,43.64 C367.879996,43.4266656 367.160003,43.053336 366.52,42.52 C365.879997,41.986664 365.353336,41.3000042 364.94,40.46 C364.526665,39.6199958 364.32,38.5466732 364.32,37.24 L364.32,21.56 C364.32,20.626662 364.479999,19.760004 364.8,18.96 C365.120002,18.159996 365.573331,17.4666696 366.16,16.88 C366.74667,16.2933304 367.446663,15.833335 368.26,15.5 C369.073338,15.166665 369.973329,15 370.96,15 C372.88001,15 374.439994,15.6266604 375.64,16.88 C376.22667,17.4933364 376.686665,18.2199958 377.02,19.06 C377.353335,19.9000042 377.52,20.8133284 377.52,21.8 L377.52,23.4 L373.44,23.4 L373.44,22.04 C373.44,21.239996 373.213336,20.5466696 372.76,19.96 C372.306665,19.3733304 371.693337,19.08 370.92,19.08 C369.906662,19.08 369.233335,19.3933302 368.9,20.02 C368.566665,20.6466698 368.4,21.4399952 368.4,22.4 L368.4,36.96 C368.4,37.7866708 368.579998,38.4799972 368.94,39.04 C369.300002,39.6000028 369.946662,39.88 370.88,39.88 C371.146668,39.88 371.433332,39.8333338 371.74,39.74 C372.046668,39.6466662 372.333332,39.4933344 372.6,39.28 C372.840001,39.0666656 373.039999,38.7733352 373.2,38.4 C373.360001,38.0266648 373.44,37.5600028 373.44,37 L373.44,35.6 L377.52,35.6 Z M380.54,30.24 C380.54,29.4133292 380.593333,28.6533368 380.7,27.96 C380.806667,27.2666632 381.006665,26.653336 381.3,26.12 C381.780003,25.2399956 382.466662,24.533336 383.36,24 C384.253338,23.466664 385.339994,23.2 386.62,23.2 C387.900007,23.2 388.986662,23.466664 389.88,24 C390.773338,24.533336 391.459998,25.2399956 391.94,26.12 C392.233335,26.653336 392.433333,27.2666632 392.54,27.96 C392.646667,28.6533368 392.7,29.4133292 392.7,30.24 L392.7,36.92 C392.7,37.7466708 392.646667,38.5066632 392.54,39.2 C392.433333,39.8933368 392.233335,40.506664 391.94,41.04 C391.459998,41.9200044 390.773338,42.626664 389.88,43.16 C388.986662,43.693336 387.900007,43.96 386.62,43.96 C385.339994,43.96 384.253338,43.693336 383.36,43.16 C382.466662,42.626664 381.780003,41.9200044 381.3,41.04 C381.006665,40.506664 380.806667,39.8933368 380.7,39.2 C380.593333,38.5066632 380.54,37.7466708 380.54,36.92 L380.54,30.24 Z M384.62,37.56 C384.62,38.3333372 384.799998,38.9133314 385.16,39.3 C385.520002,39.6866686 386.006664,39.88 386.62,39.88 C387.233337,39.88 387.719998,39.6866686 388.08,39.3 C388.440002,38.9133314 388.62,38.3333372 388.62,37.56 L388.62,29.6 C388.62,28.8266628 388.440002,28.2466686 388.08,27.86 C387.719998,27.4733314 387.233337,27.28 386.62,27.28 C386.006664,27.28 385.520002,27.4733314 385.16,27.86 C384.799998,28.2466686 384.62,28.8266628 384.62,29.6 L384.62,37.56 Z M396,43.72 L396,23.44 L400.08,23.44 L400.08,25.4 L400.16,25.4 C400.586669,24.7599968 401.099997,24.2333354 401.7,23.82 C402.300003,23.4066646 403.066662,23.2 404,23.2 C404.880005,23.2 405.613331,23.4133312 406.2,23.84 C406.78667,24.2666688 407.266665,24.7333308 407.64,25.24 C408.146669,24.6799972 408.706664,24.200002 409.32,23.8 C409.933337,23.399998 410.786661,23.2 411.88,23.2 C412.386669,23.2 412.906664,23.2866658 413.44,23.46 C413.973336,23.6333342 414.453331,23.919998 414.88,24.32 C415.306669,24.720002 415.653332,25.2333302 415.92,25.86 C416.186668,26.4866698 416.32,27.2533288 416.32,28.16 L416.32,43.72 L412.24,43.72 L412.24,29.68 C412.24,28.9333296 412.066669,28.3466688 411.72,27.92 C411.373332,27.4933312 410.880003,27.28 410.24,27.28 C409.466663,27.28 408.933335,27.5199976 408.64,28 C408.346665,28.4800024 408.2,29.1733288 408.2,30.08 L408.2,43.72 L404.12,43.72 L404.12,29.68 C404.12,28.9333296 403.946669,28.3466688 403.6,27.92 C403.253332,27.4933312 402.760003,27.28 402.12,27.28 C401.346663,27.28 400.813335,27.5199976 400.52,28 C400.226665,28.4800024 400.08,29.1733288 400.08,30.08 L400.08,43.72 L396,43.72 Z M419.98,51.92 L419.98,23.44 L424.06,23.44 L424.06,25.28 C424.566669,24.6933304 425.086664,24.200002 425.62,23.8 C426.153336,23.399998 426.926662,23.2 427.94,23.2 C429.620009,23.2 430.806663,23.8399936 431.5,25.12 C431.740001,25.5733356 431.913333,26.13333 432.02,26.8 C432.126667,27.46667 432.18,28.3599944 432.18,29.48 L432.18,37.2 C432.18,38.6933408 432.140001,39.77333 432.06,40.44 C431.899999,41.77334 431.286672,42.77333 430.22,43.44 C429.686664,43.7866684 428.913339,43.96 427.9,43.96 C427.099996,43.96 426.38667,43.7800018 425.76,43.42 C425.13333,43.0599982 424.593336,42.54667 424.14,41.88 L424.06,41.88 L424.06,51.92 L419.98,51.92 Z M428.1,30.04 C428.1,29.2133292 427.940002,28.5466692 427.62,28.04 C427.299999,27.5333308 426.793337,27.28 426.1,27.28 C425.486664,27.28 424.993335,27.513331 424.62,27.98 C424.246665,28.446669 424.06,29.0533296 424.06,29.8 L424.06,37.68 C424.06,38.3200032 424.253332,38.8466646 424.64,39.26 C425.026669,39.6733354 425.513331,39.88 426.1,39.88 C426.873337,39.88 427.399999,39.6400024 427.68,39.16 C427.960002,38.6799976 428.1,38.1200032 428.1,37.48 L428.1,30.04 Z M448.04,23.44 L448.04,43.72 L443.96,43.72 L443.96,41.76 L443.88,41.76 C443.453331,42.4000032 442.940003,42.9266646 442.34,43.34 C441.739997,43.7533354 440.973338,43.96 440.04,43.96 C439.533331,43.96 439.026669,43.8733342 438.52,43.7 C438.013331,43.5266658 437.560002,43.240002 437.16,42.84 C436.759998,42.439998 436.440001,41.9266698 436.2,41.3 C435.959999,40.6733302 435.84,39.9066712 435.84,39 L435.84,23.44 L439.92,23.44 L439.92,37.48 C439.92,38.2266704 440.093332,38.8133312 440.44,39.24 C440.786669,39.6666688 441.279997,39.88 441.92,39.88 C442.693337,39.88 443.226665,39.6400024 443.52,39.16 C443.813335,38.6799976 443.96,37.9866712 443.96,37.08 L443.96,23.44 L448.04,23.44 Z M451.7,23.44 L451.7,17.28 L455.78,17.28 L455.78,23.44 L458.3,23.44 L458.3,26.64 L455.78,26.64 L455.78,37.88 C455.78,38.3600024 455.826666,38.733332 455.92,39 C456.013334,39.266668 456.166666,39.466666 456.38,39.6 C456.593335,39.733334 456.853332,39.8133332 457.16,39.84 C457.466668,39.8666668 457.846665,39.88 458.3,39.88 L458.3,43.72 L456.62,43.72 C455.686662,43.72 454.90667,43.5733348 454.28,43.28 C453.65333,42.9866652 453.153335,42.6133356 452.78,42.16 C452.406665,41.7066644 452.133334,41.1933362 451.96,40.62 C451.786666,40.0466638 451.7,39.493336 451.7,38.96 L451.7,26.64 L449.66,26.64 L449.66,23.44 L451.7,23.44 Z M471.96,35.12 L463.88,35.12 L463.88,37.88 C463.88,38.5200032 464.059998,39.0133316 464.42,39.36 C464.780002,39.7066684 465.266664,39.88 465.88,39.88 C466.653337,39.88 467.166666,39.6533356 467.42,39.2 C467.673335,38.7466644 467.826667,38.2933356 467.88,37.84 L471.96,37.84 C471.96,39.6266756 471.413339,41.0666612 470.32,42.16 C469.786664,42.7200028 469.146671,43.1599984 468.4,43.48 C467.65333,43.8000016 466.813338,43.96 465.88,43.96 C464.599994,43.96 463.513338,43.693336 462.62,43.16 C461.726662,42.626664 461.040003,41.9200044 460.56,41.04 C460.266665,40.506664 460.066667,39.8933368 459.96,39.2 C459.853333,38.5066632 459.8,37.7466708 459.8,36.92 L459.8,30.24 C459.8,29.4133292 459.853333,28.6533368 459.96,27.96 C460.066667,27.2666632 460.266665,26.653336 460.56,26.12 C461.040003,25.2399956 461.726662,24.533336 462.62,24 C463.513338,23.466664 464.599994,23.2 465.88,23.2 C466.813338,23.2 467.659996,23.3599984 468.42,23.68 C469.180004,24.0000016 469.826664,24.4399972 470.36,25 C471.426672,26.200006 471.96,27.7066576 471.96,29.52 L471.96,35.12 Z M463.88,31.92 L467.88,31.92 L467.88,29.6 C467.88,28.8266628 467.700002,28.2466686 467.34,27.86 C466.979998,27.4733314 466.493337,27.28 465.88,27.28 C465.266664,27.28 464.780002,27.4733314 464.42,27.86 C464.059998,28.2466686 463.88,28.8266628 463.88,29.6 L463.88,31.92 Z M475.26,43.72 L475.26,23.44 L479.34,23.44 L479.34,25.6 C480.166671,24.8533296 480.979996,24.2666688 481.78,23.84 C482.580004,23.4133312 483.566661,23.2 484.74,23.2 L484.74,27.52 C484.339998,27.3599992 483.926669,27.28 483.5,27.28 C483.073331,27.28 482.613336,27.3533326 482.12,27.5 C481.626664,27.6466674 481.180002,27.8933316 480.78,28.24 C480.353331,28.5866684 480.006668,29.0399972 479.74,29.6 C479.473332,30.1600028 479.34,30.8533292 479.34,31.68 L479.34,43.72 L475.26,43.72 Z M494.78,43.72 L494.78,15.24 L498.86,15.24 L498.86,43.72 L494.78,43.72 Z M502.88,43.72 L502.88,23.44 L506.96,23.44 L506.96,25.4 L507.04,25.4 C507.466669,24.7599968 507.979997,24.2333354 508.58,23.82 C509.180003,23.4066646 509.946662,23.2 510.88,23.2 C511.38667,23.2 511.893331,23.2866658 512.4,23.46 C512.90667,23.6333342 513.359998,23.919998 513.76,24.32 C514.160002,24.720002 514.479999,25.2333302 514.72,25.86 C514.960002,26.4866698 515.08,27.2533288 515.08,28.16 L515.08,43.72 L511,43.72 L511,29.68 C511,28.9333296 510.826669,28.3466688 510.48,27.92 C510.133332,27.4933312 509.640004,27.28 509,27.28 C508.226663,27.28 507.693335,27.5199976 507.4,28 C507.106666,28.4800024 506.96,29.1733288 506.96,30.08 L506.96,43.72 L502.88,43.72 Z M518.74,23.44 L518.74,17.28 L522.82,17.28 L522.82,23.44 L525.34,23.44 L525.34,26.64 L522.82,26.64 L522.82,37.88 C522.82,38.3600024 522.866667,38.733332 522.96,39 C523.053334,39.266668 523.206666,39.466666 523.42,39.6 C523.633335,39.733334 523.893332,39.8133332 524.2,39.84 C524.506669,39.8666668 524.886665,39.88 525.34,39.88 L525.34,43.72 L523.66,43.72 C522.726662,43.72 521.94667,43.5733348 521.32,43.28 C520.693331,42.9866652 520.193336,42.6133356 519.82,42.16 C519.446665,41.7066644 519.173335,41.1933362 519,40.62 C518.826666,40.0466638 518.74,39.493336 518.74,38.96 L518.74,26.64 L516.7,26.64 L516.7,23.44 L518.74,23.44 Z M539,35.12 L530.92,35.12 L530.92,37.88 C530.92,38.5200032 531.099999,39.0133316 531.46,39.36 C531.820002,39.7066684 532.306664,39.88 532.92,39.88 C533.693338,39.88 534.206666,39.6533356 534.46,39.2 C534.713335,38.7466644 534.866667,38.2933356 534.92,37.84 L539,37.84 C539,39.6266756 538.453339,41.0666612 537.36,42.16 C536.826664,42.7200028 536.186671,43.1599984 535.44,43.48 C534.69333,43.8000016 533.853338,43.96 532.92,43.96 C531.639994,43.96 530.553338,43.693336 529.66,43.16 C528.766663,42.626664 528.080003,41.9200044 527.6,41.04 C527.306666,40.506664 527.106668,39.8933368 527,39.2 C526.893333,38.5066632 526.84,37.7466708 526.84,36.92 L526.84,30.24 C526.84,29.4133292 526.893333,28.6533368 527,27.96 C527.106668,27.2666632 527.306666,26.653336 527.6,26.12 C528.080003,25.2399956 528.766663,24.533336 529.66,24 C530.553338,23.466664 531.639994,23.2 532.92,23.2 C533.853338,23.2 534.699997,23.3599984 535.46,23.68 C536.220004,24.0000016 536.866664,24.4399972 537.4,25 C538.466672,26.200006 539,27.7066576 539,29.52 L539,35.12 Z M530.92,31.92 L534.92,31.92 L534.92,29.6 C534.92,28.8266628 534.740002,28.2466686 534.38,27.86 C534.019999,27.4733314 533.533337,27.28 532.92,27.28 C532.306664,27.28 531.820002,27.4733314 531.46,27.86 C531.099999,28.2466686 530.92,28.8266628 530.92,29.6 L530.92,31.92 Z M542.3,43.72 L542.3,23.44 L546.38,23.44 L546.38,25.6 C547.206671,24.8533296 548.019996,24.2666688 548.82,23.84 C549.620004,23.4133312 550.606661,23.2 551.78,23.2 L551.78,27.52 C551.379998,27.3599992 550.966669,27.28 550.54,27.28 C550.113332,27.28 549.653336,27.3533326 549.16,27.5 C548.666665,27.6466674 548.220002,27.8933316 547.82,28.24 C547.393332,28.5866684 547.046668,29.0399972 546.78,29.6 C546.513332,30.1600028 546.38,30.8533292 546.38,31.68 L546.38,43.72 L542.3,43.72 Z M561.2,43.72 L561.2,41.64 L561.12,41.64 C560.586664,42.3866704 560.04667,42.959998 559.5,43.36 C558.953331,43.760002 558.186672,43.96 557.2,43.96 C556.719998,43.96 556.233336,43.8866674 555.74,43.74 C555.246665,43.5933326 554.773336,43.320002 554.32,42.92 C553.866665,42.5466648 553.500002,42.0066702 553.22,41.3 C552.939999,40.5933298 552.8,39.6800056 552.8,38.56 C552.8,37.4133276 552.893333,36.406671 553.08,35.54 C553.266668,34.673329 553.613331,33.9466696 554.12,33.36 C554.600003,32.7999972 555.25333,32.3800014 556.08,32.1 C556.906671,31.8199986 557.959994,31.68 559.24,31.68 L559.68,31.68 C559.840001,31.68 559.986666,31.6933332 560.12,31.72 C560.253334,31.7466668 560.413333,31.76 560.6,31.76 C560.786668,31.76 560.986666,31.7733332 561.2,31.8 L561.2,29.68 C561.2,28.9866632 561.053335,28.4133356 560.76,27.96 C560.466666,27.5066644 559.933338,27.28 559.16,27.28 C558.626664,27.28 558.140003,27.4533316 557.7,27.8 C557.259998,28.1466684 556.973334,28.65333 556.84,29.32 L552.88,29.32 C552.986668,27.5066576 553.599995,26.0400056 554.72,24.92 C555.253336,24.386664 555.89333,23.9666682 556.64,23.66 C557.386671,23.3533318 558.226662,23.2 559.16,23.2 C560.013338,23.2 560.81333,23.333332 561.56,23.6 C562.306671,23.866668 562.959998,24.266664 563.52,24.8 C564.053336,25.333336 564.479999,25.999996 564.8,26.8 C565.120002,27.600004 565.28,28.533328 565.28,29.6 L565.28,43.72 L561.2,43.72 Z M561.2,35 C560.746665,34.9199996 560.373335,34.88 560.08,34.88 C559.199996,34.88 558.44667,35.0866646 557.82,35.5 C557.193331,35.9133354 556.88,36.6666612 556.88,37.76 C556.88,38.5333372 557.066665,39.1599976 557.44,39.64 C557.813336,40.1200024 558.33333,40.36 559,40.36 C559.693337,40.36 560.233332,40.1333356 560.62,39.68 C561.006669,39.2266644 561.2,38.5866708 561.2,37.76 L561.2,35 Z M572.9,37.88 C572.9,38.5200032 573.079999,39.0133316 573.44,39.36 C573.800002,39.7066684 574.286664,39.88 574.9,39.88 C575.673338,39.88 576.186666,39.6533356 576.44,39.2 C576.693335,38.7466644 576.846667,38.2933356 576.9,37.84 L580.98,37.84 C580.98,39.6266756 580.433339,41.0666612 579.34,42.16 C578.806664,42.7200028 578.166671,43.1599984 577.42,43.48 C576.67333,43.8000016 575.833338,43.96 574.9,43.96 C573.619994,43.96 572.533338,43.693336 571.64,43.16 C570.746663,42.626664 570.060003,41.9200044 569.58,41.04 C569.286666,40.506664 569.086668,39.8933368 568.98,39.2 C568.873333,38.5066632 568.82,37.7466708 568.82,36.92 L568.82,30.24 C568.82,29.4133292 568.873333,28.6533368 568.98,27.96 C569.086668,27.2666632 569.286666,26.653336 569.58,26.12 C570.060003,25.2399956 570.746663,24.533336 571.64,24 C572.533338,23.466664 573.619994,23.2 574.9,23.2 C575.833338,23.2 576.679997,23.3599984 577.44,23.68 C578.200004,24.0000016 578.846664,24.4399972 579.38,25 C580.446672,26.200006 580.98,27.7599904 580.98,29.68 L576.9,29.68 C576.9,28.8533292 576.720002,28.2466686 576.36,27.86 C575.999999,27.4733314 575.513337,27.28 574.9,27.28 C574.286664,27.28 573.800002,27.4733314 573.44,27.86 C573.079999,28.2466686 572.9,28.8266628 572.9,29.6 L572.9,37.88 Z M583.68,23.44 L583.68,17.28 L587.76,17.28 L587.76,23.44 L590.28,23.44 L590.28,26.64 L587.76,26.64 L587.76,37.88 C587.76,38.3600024 587.806667,38.733332 587.9,39 C587.993334,39.266668 588.146666,39.466666 588.36,39.6 C588.573335,39.733334 588.833332,39.8133332 589.14,39.84 C589.446669,39.8666668 589.826665,39.88 590.28,39.88 L590.28,43.72 L588.6,43.72 C587.666662,43.72 586.88667,43.5733348 586.26,43.28 C585.633331,42.9866652 585.133336,42.6133356 584.76,42.16 C584.386665,41.7066644 584.113335,41.1933362 583.94,40.62 C583.766666,40.0466638 583.68,39.493336 583.68,38.96 L583.68,26.64 L581.64,26.64 L581.64,23.44 L583.68,23.44 Z M592.14,43.72 L592.14,23.44 L596.22,23.44 L596.22,43.72 L592.14,43.72 Z M592.14,19.32 L592.14,15.24 L596.22,15.24 L596.22,19.32 L592.14,19.32 Z M599.52,30.24 C599.52,29.4133292 599.573333,28.6533368 599.68,27.96 C599.786668,27.2666632 599.986666,26.653336 600.28,26.12 C600.760003,25.2399956 601.446663,24.533336 602.34,24 C603.233338,23.466664 604.319994,23.2 605.6,23.2 C606.880007,23.2 607.966663,23.466664 608.86,24 C609.753338,24.533336 610.439998,25.2399956 610.92,26.12 C611.213335,26.653336 611.413333,27.2666632 611.52,27.96 C611.626668,28.6533368 611.68,29.4133292 611.68,30.24 L611.68,36.92 C611.68,37.7466708 611.626668,38.5066632 611.52,39.2 C611.413333,39.8933368 611.213335,40.506664 610.92,41.04 C610.439998,41.9200044 609.753338,42.626664 608.86,43.16 C607.966663,43.693336 606.880007,43.96 605.6,43.96 C604.319994,43.96 603.233338,43.693336 602.34,43.16 C601.446663,42.626664 600.760003,41.9200044 600.28,41.04 C599.986666,40.506664 599.786668,39.8933368 599.68,39.2 C599.573333,38.5066632 599.52,37.7466708 599.52,36.92 L599.52,30.24 Z M603.6,37.56 C603.6,38.3333372 603.779999,38.9133314 604.14,39.3 C604.500002,39.6866686 604.986664,39.88 605.6,39.88 C606.213337,39.88 606.699999,39.6866686 607.06,39.3 C607.420002,38.9133314 607.6,38.3333372 607.6,37.56 L607.6,29.6 C607.6,28.8266628 607.420002,28.2466686 607.06,27.86 C606.699999,27.4733314 606.213337,27.28 605.6,27.28 C604.986664,27.28 604.500002,27.4733314 604.14,27.86 C603.779999,28.2466686 603.6,28.8266628 603.6,29.6 L603.6,37.56 Z M614.98,43.72 L614.98,23.44 L619.06,23.44 L619.06,25.4 L619.14,25.4 C619.566669,24.7599968 620.079997,24.2333354 620.68,23.82 C621.280003,23.4066646 622.046662,23.2 622.98,23.2 C623.48667,23.2 623.993331,23.2866658 624.5,23.46 C625.00667,23.6333342 625.459998,23.919998 625.86,24.32 C626.260002,24.720002 626.579999,25.2333302 626.82,25.86 C627.060002,26.4866698 627.18,27.2533288 627.18,28.16 L627.18,43.72 L623.1,43.72 L623.1,29.68 C623.1,28.9333296 622.926669,28.3466688 622.58,27.92 C622.233332,27.4933312 621.740004,27.28 621.1,27.28 C620.326663,27.28 619.793335,27.5199976 619.5,28 C619.206666,28.4800024 619.06,29.1733288 619.06,30.08 L619.06,43.72 L614.98,43.72 Z" id="path-2"></path>
    </defs>
    <g id="Page-1" stroke="none" stroke-width="1" fill="none" fill-rule="evenodd">
        <g id="pcg-logo">
            <path d="M0,0 L120,0 L120,120 L0,120 L0,0 Z M79.8078631,36.0000243 L79.8078661,36 L89.6666667,36 L96.6666667,30 L30,30 L23,36 L38.6666667,36 L33.6666667,88 L41.6666667,85 L47.2013394,36 L71.1169599,36.0000134 C68.37232,62.1204192 67,76.3903629 67,78.8098443 C67,82.8851787 67,90.0170138 78.4208573,88.9981802 C89.8417147,87.9793466 96.153039,70.9623328 92,73 C77.4643634,89.3013374 75.3060781,80.8475115 75.3060781,75.7533435 C75.3060781,70.9081776 76.8066731,60.4086128 79.8078631,36.0000243 Z" id="Combined-Shape" fill="url(#linearGradient-1)"></path>
            <g id="Pervasive-Human-Comp" fill="#000000">
                <use xlink:href="#path-2"></use>
                <use xlink:href="#path-2"></use>
            </g>
            <path d="M138.503906,56.7617188 L143.484375,56.7617188 C145.411468,56.7747396 146.856766,57.5755129 147.820312,59.1640625 C148.165366,59.6979193 148.383463,60.2578096 148.474609,60.84375 C148.546224,61.4296904 148.582031,62.4420501 148.582031,63.8808594 C148.582031,65.4108149 148.526693,66.4785126 148.416016,67.0839844 C148.363932,67.3899755 148.285808,67.6634103 148.181641,67.9042969 C148.070963,68.138673 147.937501,68.3828112 147.78125,68.6367188 C147.364581,69.307295 146.78516,69.8606749 146.042969,70.296875 C145.307288,70.7656273 144.405604,71 143.337891,71 L138.503906,71 L138.503906,56.7617188 Z M140.662109,68.9589844 L143.240234,68.9589844 C144.451178,68.9589844 145.330075,68.5455771 145.876953,67.71875 C146.11784,67.4127589 146.270833,67.025393 146.335938,66.5566406 C146.394532,66.0943987 146.423828,65.228522 146.423828,63.9589844 C146.423828,62.721999 146.394532,61.8365912 146.335938,61.3027344 C146.257812,60.7688775 146.072267,60.3359392 145.779297,60.0039062 C145.180336,59.1770792 144.33399,58.7766926 143.240234,58.8027344 L140.662109,58.8027344 L140.662109,68.9589844 Z M152.683984,66.703125 C152.683984,67.5169312 152.918357,68.1354146 153.387109,68.5585938 C153.823309,68.9882834 154.39622,69.203125 155.105859,69.203125 C155.932686,69.203125 156.671611,68.8743522 157.322656,68.2167969 L158.797266,69.4765625 C157.762104,70.5833389 156.544668,71.1302084 155.144922,71.1171875 C154.611065,71.1171875 154.090237,71.0390633 153.582422,70.8828125 C153.328514,70.7981767 153.081121,70.6842455 152.840234,70.5410156 C152.586327,70.4173171 152.348699,70.2643238 152.127344,70.0820312 C151.697654,69.7044252 151.34935,69.1770867 151.082422,68.5 C150.789452,67.8489551 150.642969,67.0026094 150.642969,65.9609375 C150.642969,64.9583283 150.769921,64.1250033 151.023828,63.4609375 C151.277736,62.7838508 151.603253,62.250002 152.000391,61.859375 C152.404038,61.4622376 152.856508,61.1757821 153.357812,61 C153.852607,60.8242179 154.340883,60.7363281 154.822656,60.7363281 C155.981516,60.749349 156.961324,61.1302046 157.762109,61.8789062 C158.575916,62.6406288 158.989323,63.6887954 159.002344,65.0234375 L159.002344,66.703125 L152.683984,66.703125 Z M156.961328,65.0234375 C156.935286,64.2356731 156.7237,63.639976 156.326562,63.2363281 C155.935936,62.8522116 155.434638,62.6601562 154.822656,62.6601562 C154.210674,62.6601562 153.709377,62.8522116 153.31875,63.2363281 C152.934633,63.639976 152.723047,64.2356731 152.683984,65.0234375 L156.961328,65.0234375 Z M161.366016,60.8632812 L163.407031,60.8632812 L163.407031,61.9179688 C164.084118,61.1627566 164.956505,60.7688804 166.024219,60.7363281 C167.267715,60.7688804 168.175909,61.2115843 168.748828,62.0644531 C169.028777,62.3834651 169.220833,62.8033828 169.325,63.3242188 C169.422657,63.8385442 169.471484,64.7109313 169.471484,65.9414062 C169.471484,67.1393289 169.422657,67.9986953 169.325,68.5195312 C169.220833,69.0403672 169.028777,69.4667952 168.748828,69.7988281 C168.468879,70.1894551 168.101044,70.501952 167.645312,70.7363281 C167.196091,70.9772147 166.655732,71.1041666 166.024219,71.1171875 C165.503383,71.1171875 165.037893,71.0032563 164.627734,70.7753906 C164.185024,70.5670563 163.778127,70.2806008 163.407031,69.9160156 L163.407031,75.1015625 L161.366016,75.1015625 L161.366016,60.8632812 Z M165.408984,69.0761719 C165.890758,69.0761719 166.271613,68.985027 166.551562,68.8027344 C166.831512,68.6139313 167.030078,68.3730483 167.147266,68.0800781 C167.277475,67.774087 167.365364,67.4355487 167.410937,67.0644531 C167.423958,66.699868 167.430469,66.3255228 167.430469,65.9414062 C167.430469,65.5377584 167.423958,65.1438821 167.410937,64.7597656 C167.365364,64.3756491 167.277475,64.0371108 167.147266,63.7441406 C167.030078,63.4381495 166.831512,63.1972665 166.551562,63.0214844 C166.271613,62.8587231 165.890758,62.7773438 165.408984,62.7773438 C164.953253,62.7773438 164.591928,62.8717438 164.325,63.0605469 C164.045051,63.2493499 163.839975,63.4967433 163.709766,63.8027344 C163.586067,64.1087255 163.504688,64.4407534 163.465625,64.7988281 C163.426562,65.1764342 163.407031,65.5572897 163.407031,65.9414062 C163.407031,66.299481 163.426562,66.6575503 163.465625,67.015625 C163.504688,67.3932311 163.586067,67.7350245 163.709766,68.0410156 C163.839975,68.3470067 164.045051,68.5944001 164.325,68.7832031 C164.591928,68.9785166 164.953253,69.0761719 165.408984,69.0761719 Z M177.294141,70.1015625 L177.255078,70.1015625 C177.066275,70.4466163 176.773309,70.70052 176.376172,70.8632812 C175.985545,71.0325529 175.445186,71.1171875 174.755078,71.1171875 C173.62226,71.1041666 172.749873,70.8046904 172.137891,70.21875 C171.493356,69.6458305 171.171094,68.9134159 171.171094,68.0214844 C171.171094,67.1686155 171.451039,66.4622424 172.010937,65.9023438 C172.570836,65.3294242 173.39114,65.0364584 174.471875,65.0234375 L177.294141,65.0234375 L177.294141,63.9589844 C177.307162,63.0670528 176.613809,62.6341145 175.214062,62.6601562 C174.706247,62.6601562 174.305861,62.7122391 174.012891,62.8164062 C173.706899,62.9401048 173.466016,63.148436 173.290234,63.4414062 L171.688672,62.2207031 C172.463415,61.205073 173.605982,60.7102863 175.116406,60.7363281 C176.392454,60.7233072 177.411324,60.9641902 178.173047,61.4589844 C178.934769,61.9667994 179.322135,62.8391865 179.335156,64.0761719 L179.335156,71 L177.294141,71 L177.294141,70.1015625 Z M177.294141,66.703125 L174.852734,66.703125 C173.667833,66.7291668 173.081901,67.1360638 173.094922,67.9238281 C173.094922,68.2688819 173.247915,68.5618478 173.553906,68.8027344 C173.846876,69.0696628 174.331898,69.203125 175.008984,69.203125 C175.861853,69.2161459 176.464061,69.1152354 176.815625,68.9003906 C177.134637,68.6855458 177.294141,68.1972694 177.294141,67.4355469 L177.294141,66.703125 Z M182.196875,60.8632812 L184.237891,60.8632812 L184.237891,61.9375 L184.276953,61.9375 C184.947529,61.1367147 185.826427,60.7363281 186.913672,60.7363281 C187.727478,60.749349 188.437106,61.0097631 189.042578,61.5175781 L187.558203,63.2851562 C187.128513,62.9466129 186.682554,62.7773438 186.220312,62.7773438 C185.699477,62.7773438 185.253517,62.9466129 184.882422,63.2851562 C184.465753,63.6171892 184.250911,64.1542932 184.237891,64.8964844 L184.237891,71 L182.196875,71 L182.196875,60.8632812 Z M190.322266,57.7773438 L192.363281,57.7773438 L192.363281,60.8632812 L193.847656,60.8632812 L193.847656,62.4160156 L192.363281,62.4160156 L192.363281,68.3242188 C192.35026,68.8385442 192.591143,69.0891928 193.085937,69.0761719 L193.847656,69.0761719 L193.847656,71 L192.783203,71 C192.067054,71 191.481122,70.778648 191.025391,70.3359375 C190.556638,69.9127583 190.322266,69.3007853 190.322266,68.5 L190.322266,62.4160156 L189.306641,62.4160156 L189.306641,60.8632812 L190.322266,60.8632812 L190.322266,57.7773438 Z M196.103906,60.8632812 L198.144922,60.8632812 L198.144922,61.9375 L198.183984,61.9375 C198.854561,61.1367147 199.736713,60.7363281 200.830469,60.7363281 C201.533597,60.749349 202.099998,60.8697905 202.529687,61.0976562 C202.952867,61.3515638 203.340233,61.6738262 203.691797,62.0644531 C204.486072,61.1660111 205.550514,60.7233072 206.885156,60.7363281 C207.725004,60.7363281 208.493226,61.0325491 209.189844,61.625 C209.879951,62.2239613 210.238021,63.1028588 210.264062,64.2617188 L210.264062,71 L208.223047,71 L208.223047,64.9648438 C208.223047,64.2552048 208.037502,63.7148456 207.666406,63.34375 C207.295311,62.9661439 206.8168,62.7773438 206.230859,62.7773438 C205.644919,62.7773438 205.163153,62.9661439 204.785547,63.34375 C204.40143,63.7148456 204.209375,64.2552048 204.209375,64.9648438 L204.209375,71 L202.168359,71 L202.168359,64.9648438 C202.168359,64.2552048 201.982814,63.7148456 201.611719,63.34375 C201.234113,62.9661439 200.752347,62.7773438 200.166406,62.7773438 C199.580466,62.7773438 199.101955,62.9661439 198.730859,63.34375 C198.340232,63.7148456 198.144922,64.2552048 198.144922,64.9648438 L198.144922,71 L196.103906,71 L196.103906,60.8632812 Z M214.795703,66.703125 C214.795703,67.5169312 215.030076,68.1354146 215.498828,68.5585938 C215.935028,68.9882834 216.507939,69.203125 217.217578,69.203125 C218.044405,69.203125 218.78333,68.8743522 219.434375,68.2167969 L220.908984,69.4765625 C219.873823,70.5833389 218.656387,71.1302084 217.256641,71.1171875 C216.722784,71.1171875 216.201956,71.0390633 215.694141,70.8828125 C215.440233,70.7981767 215.19284,70.6842455 214.951953,70.5410156 C214.698046,70.4173171 214.460418,70.2643238 214.239062,70.0820312 C213.809373,69.7044252 213.461069,69.1770867 213.194141,68.5 C212.90117,67.8489551 212.754687,67.0026094 212.754687,65.9609375 C212.754687,64.9583283 212.881639,64.1250033 213.135547,63.4609375 C213.389454,62.7838508 213.714972,62.250002 214.112109,61.859375 C214.515757,61.4622376 214.968227,61.1757821 215.469531,61 C215.964325,60.8242179 216.452602,60.7363281 216.934375,60.7363281 C218.093235,60.749349 219.073043,61.1302046 219.873828,61.8789062 C220.687634,62.6406288 221.101042,63.6887954 221.114062,65.0234375 L221.114062,66.703125 L214.795703,66.703125 Z M219.073047,65.0234375 C219.047005,64.2356731 218.835419,63.639976 218.438281,63.2363281 C218.047654,62.8522116 217.546357,62.6601562 216.934375,62.6601562 C216.322393,62.6601562 215.821096,62.8522116 215.430469,63.2363281 C215.046352,63.639976 214.834766,64.2356731 214.795703,65.0234375 L219.073047,65.0234375 Z M223.477734,60.8632812 L225.51875,60.8632812 L225.51875,61.9375 L225.557812,61.9375 C226.228389,61.1367147 227.107286,60.7363281 228.194531,60.7363281 C229.034379,60.7363281 229.802601,61.0325491 230.499219,61.625 C231.189326,62.2239613 231.550651,63.1028588 231.583203,64.2617188 L231.583203,71 L229.542187,71 L229.542187,64.9648438 C229.542187,64.2552048 229.353387,63.7148456 228.975781,63.34375 C228.604686,62.9661439 228.126175,62.7773438 227.540234,62.7773438 C226.954294,62.7773438 226.472528,62.9661439 226.094922,63.34375 C225.710805,63.7148456 225.51875,64.2552048 225.51875,64.9648438 L225.51875,71 L223.477734,71 L223.477734,60.8632812 Z M234.562109,57.7773438 L236.603125,57.7773438 L236.603125,60.8632812 L238.0875,60.8632812 L238.0875,62.4160156 L236.603125,62.4160156 L236.603125,68.3242188 C236.590104,68.8385442 236.830987,69.0891928 237.325781,69.0761719 L238.0875,69.0761719 L238.0875,71 L237.023047,71 C236.306897,71 235.720966,70.778648 235.265234,70.3359375 C234.796482,69.9127583 234.562109,69.3007853 234.562109,68.5 L234.562109,62.4160156 L233.546484,62.4160156 L233.546484,60.8632812 L234.562109,60.8632812 L234.562109,57.7773438 Z M244.748437,65.921875 C244.748437,64.8541613 244.836327,64.033857 245.012109,63.4609375 C245.194402,62.9010389 245.474347,62.4290384 245.851953,62.0449219 C246.131902,61.7063785 246.522523,61.4036472 247.023828,61.1367188 C247.518622,60.8828112 248.153381,60.749349 248.928125,60.7363281 C249.72891,60.749349 250.37669,60.8828112 250.871484,61.1367188 C251.359768,61.4036472 251.737368,61.7063785 252.004297,62.0449219 C252.407945,62.4290384 252.6944,62.9010389 252.863672,63.4609375 C253.026433,64.033857 253.107812,64.8541613 253.107812,65.921875 C253.107812,66.9895887 253.026433,67.8033826 252.863672,68.3632812 C252.6944,68.9231799 252.407945,69.4082011 252.004297,69.8183594 C251.874088,69.9680997 251.714584,70.1145826 251.525781,70.2578125 C251.35651,70.4205737 251.138413,70.5605463 250.871484,70.6777344 C250.37669,70.9576837 249.72891,71.1041666 248.928125,71.1171875 C248.153381,71.1041666 247.518622,70.9576837 247.023828,70.6777344 C246.522523,70.4238269 246.131902,70.1373714 245.851953,69.8183594 C245.474347,69.4082011 245.194402,68.9231799 245.012109,68.3632812 C244.836327,67.8033826 244.748437,66.9895887 244.748437,65.921875 Z M251.066797,65.9414062 C251.066797,65.2187464 251.034245,64.6914079 250.969141,64.359375 C250.904036,64.040363 250.770574,63.7604179 250.56875,63.5195312 C250.41901,63.2916655 250.197658,63.1126309 249.904687,62.9824219 C249.624738,62.8457024 249.299221,62.7773438 248.928125,62.7773438 C248.583071,62.7773438 248.264064,62.8457024 247.971094,62.9824219 C247.691144,63.1126309 247.463282,63.2916655 247.2875,63.5195312 C247.111718,63.7604179 246.984766,64.040363 246.906641,64.359375 C246.828515,64.6914079 246.789453,65.212236 246.789453,65.921875 C246.789453,66.6250035 246.828515,67.1393213 246.906641,67.4648438 C246.984766,67.7968767 247.111718,68.0898425 247.2875,68.34375 C247.463282,68.5390635 247.691144,68.7115878 247.971094,68.8613281 C248.264064,69.004558 248.583071,69.0761719 248.928125,69.0761719 C249.299221,69.0761719 249.624738,69.004558 249.904687,68.8613281 C250.197658,68.7115878 250.41901,68.5390635 250.56875,68.34375 C250.770574,68.0898425 250.904036,67.7968767 250.969141,67.4648438 C251.034245,67.1393213 251.066797,66.6315139 251.066797,65.9414062 Z M255.79375,62.4160156 L254.768359,62.4160156 L254.768359,60.8632812 L255.79375,60.8632812 L255.79375,59.5253906 C255.79375,58.5618441 256.060674,57.8522158 256.594531,57.3964844 C257.115367,56.9733052 257.769657,56.7617188 258.557422,56.7617188 L259.875781,56.7617188 L259.875781,58.6855469 L258.713672,58.6855469 C258.10169,58.6660155 257.808724,58.9459606 257.834766,59.5253906 L257.834766,60.8632812 L259.875781,60.8632812 L259.875781,62.4160156 L257.834766,62.4160156 L257.834766,71 L255.79375,71 L255.79375,62.4160156 Z M276.058203,67.015625 C275.745701,68.3372462 275.150004,69.352861 274.271094,70.0625 C273.366141,70.7656285 272.295188,71.1171875 271.058203,71.1171875 C269.938406,71.0911457 269.00417,70.8177109 268.255469,70.296875 C267.493746,69.7955704 266.940366,69.2161491 266.595312,68.5585938 C266.491145,68.3437489 266.396745,68.1386729 266.312109,67.9433594 C266.233984,67.7415354 266.16888,67.4876317 266.116797,67.1816406 C266.01914,66.6087211 265.970312,65.5084717 265.970312,63.8808594 C265.970312,62.2272053 266.01914,61.1204455 266.116797,60.5605469 C266.220964,60.0006482 266.380468,59.5481788 266.595312,59.203125 C266.940366,58.5455696 267.493746,57.959638 268.255469,57.4453125 C269.00417,56.9244766 269.938406,56.6575521 271.058203,56.6445312 C272.431908,56.6575521 273.551688,57.0644491 274.417578,57.8652344 C275.283468,58.6725301 275.830337,59.671869 276.058203,60.8632812 L273.773047,60.8632812 C273.597265,60.2903617 273.278257,59.8020854 272.816016,59.3984375 C272.334242,59.014321 271.748311,58.8157553 271.058203,58.8027344 C270.550388,58.8157553 270.114194,58.9166657 269.749609,59.1054688 C269.378514,59.3007822 269.079038,59.5449204 268.851172,59.8378906 C268.571222,60.1438817 268.385677,60.537758 268.294531,61.0195312 C268.190364,61.5273463 268.138281,62.4811128 268.138281,63.8808594 C268.138281,65.280606 268.190364,66.2278621 268.294531,66.7226562 C268.385677,67.2174504 268.571222,67.617837 268.851172,67.9238281 C269.079038,68.2167983 269.378514,68.4544262 269.749609,68.6367188 C270.114194,68.8515636 270.550388,68.9589844 271.058203,68.9589844 C272.269147,68.9589844 273.174085,68.3112044 273.773047,67.015625 L276.058203,67.015625 Z M277.123047,65.921875 C277.123047,64.8541613 277.210937,64.033857 277.386719,63.4609375 C277.569011,62.9010389 277.848956,62.4290384 278.226562,62.0449219 C278.506512,61.7063785 278.897133,61.4036472 279.398437,61.1367188 C279.893232,60.8828112 280.527991,60.749349 281.302734,60.7363281 C282.10352,60.749349 282.7513,60.8828112 283.246094,61.1367188 C283.734377,61.4036472 284.111978,61.7063785 284.378906,62.0449219 C284.782554,62.4290384 285.069009,62.9010389 285.238281,63.4609375 C285.401042,64.033857 285.482422,64.8541613 285.482422,65.921875 C285.482422,66.9895887 285.401042,67.8033826 285.238281,68.3632812 C285.069009,68.9231799 284.782554,69.4082011 284.378906,69.8183594 C284.248697,69.9680997 284.089194,70.1145826 283.900391,70.2578125 C283.731119,70.4205737 283.513022,70.5605463 283.246094,70.6777344 C282.7513,70.9576837 282.10352,71.1041666 281.302734,71.1171875 C280.527991,71.1041666 279.893232,70.9576837 279.398437,70.6777344 C278.897133,70.4238269 278.506512,70.1373714 278.226562,69.8183594 C277.848956,69.4082011 277.569011,68.9231799 277.386719,68.3632812 C277.210937,67.8033826 277.123047,66.9895887 277.123047,65.921875 Z M283.441406,65.9414062 C283.441406,65.2187464 283.408854,64.6914079 283.34375,64.359375 C283.278645,64.040363 283.145183,63.7604179 282.943359,63.5195312 C282.793619,63.2916655 282.572267,63.1126309 282.279297,62.9824219 C281.999347,62.8457024 281.67383,62.7773438 281.302734,62.7773438 C280.95768,62.7773438 280.638673,62.8457024 280.345703,62.9824219 C280.065754,63.1126309 279.837891,63.2916655 279.662109,63.5195312 C279.486327,63.7604179 279.359375,64.040363 279.28125,64.359375 C279.203125,64.6914079 279.164062,65.212236 279.164062,65.921875 C279.164062,66.6250035 279.203125,67.1393213 279.28125,67.4648438 C279.359375,67.7968767 279.486327,68.0898425 279.662109,68.34375 C279.837891,68.5390635 280.065754,68.7115878 280.345703,68.8613281 C280.638673,69.004558 280.95768,69.0761719 281.302734,69.0761719 C281.67383,69.0761719 281.999347,69.004558 282.279297,68.8613281 C282.572267,68.7115878 282.793619,68.5390635 282.943359,68.34375 C283.145183,68.0898425 283.278645,67.7968767 283.34375,67.4648438 C283.408854,67.1393213 283.441406,66.6315139 283.441406,65.9414062 Z M287.963281,60.8632812 L290.004297,60.8632812 L290.004297,61.9375 L290.043359,61.9375 C290.713936,61.1367147 291.596088,60.7363281 292.689844,60.7363281 C293.392972,60.749349 293.959373,60.8697905 294.389062,61.0976562 C294.812242,61.3515638 295.199608,61.6738262 295.551172,62.0644531 C296.345447,61.1660111 297.409889,60.7233072 298.744531,60.7363281 C299.584379,60.7363281 300.352601,61.0325491 301.049219,61.625 C301.739326,62.2239613 302.097396,63.1028588 302.123437,64.2617188 L302.123437,71 L300.082422,71 L300.082422,64.9648438 C300.082422,64.2552048 299.896877,63.7148456 299.525781,63.34375 C299.154686,62.9661439 298.676175,62.7773438 298.090234,62.7773438 C297.504294,62.7773438 297.022528,62.9661439 296.644922,63.34375 C296.260805,63.7148456 296.06875,64.2552048 296.06875,64.9648438 L296.06875,71 L294.027734,71 L294.027734,64.9648438 C294.027734,64.2552048 293.842189,63.7148456 293.471094,63.34375 C293.093488,62.9661439 292.611722,62.7773438 292.025781,62.7773438 C291.439841,62.7773438 290.96133,62.9661439 290.590234,63.34375 C290.199607,63.7148456 290.004297,64.2552048 290.004297,64.9648438 L290.004297,71 L287.963281,71 L287.963281,60.8632812 Z M305.112109,60.8632812 L307.153125,60.8632812 L307.153125,61.9179688 C307.830212,61.1627566 308.702599,60.7688804 309.770312,60.7363281 C311.013808,60.7688804 311.922002,61.2115843 312.494922,62.0644531 C312.774871,62.3834651 312.966926,62.8033828 313.071094,63.3242188 C313.16875,63.8385442 313.217578,64.7109313 313.217578,65.9414062 C313.217578,67.1393289 313.16875,67.9986953 313.071094,68.5195312 C312.966926,69.0403672 312.774871,69.4667952 312.494922,69.7988281 C312.214972,70.1894551 311.847138,70.501952 311.391406,70.7363281 C310.942185,70.9772147 310.401826,71.1041666 309.770312,71.1171875 C309.249476,71.1171875 308.783986,71.0032563 308.373828,70.7753906 C307.931117,70.5670563 307.524221,70.2806008 307.153125,69.9160156 L307.153125,75.1015625 L305.112109,75.1015625 L305.112109,60.8632812 Z M309.155078,69.0761719 C309.636851,69.0761719 310.017707,68.985027 310.297656,68.8027344 C310.577605,68.6139313 310.776171,68.3730483 310.893359,68.0800781 C311.023568,67.774087 311.111458,67.4355487 311.157031,67.0644531 C311.170052,66.699868 311.176562,66.3255228 311.176562,65.9414062 C311.176562,65.5377584 311.170052,65.1438821 311.157031,64.7597656 C311.111458,64.3756491 311.023568,64.0371108 310.893359,63.7441406 C310.776171,63.4381495 310.577605,63.1972665 310.297656,63.0214844 C310.017707,62.8587231 309.636851,62.7773438 309.155078,62.7773438 C308.699347,62.7773438 308.338022,62.8717438 308.071094,63.0605469 C307.791144,63.2493499 307.586068,63.4967433 307.455859,63.8027344 C307.332161,64.1087255 307.250781,64.4407534 307.211719,64.7988281 C307.172656,65.1764342 307.153125,65.5572897 307.153125,65.9414062 C307.153125,66.299481 307.172656,66.6575503 307.211719,67.015625 C307.250781,67.3932311 307.332161,67.7350245 307.455859,68.0410156 C307.586068,68.3470067 307.791144,68.5944001 308.071094,68.7832031 C308.338022,68.9785166 308.699347,69.0761719 309.155078,69.0761719 Z M315.717969,60.8632812 L317.758984,60.8632812 L317.758984,66.8984375 C317.758984,67.5820347 317.95104,68.1158835 318.335156,68.5 C318.712762,68.8841165 319.194528,69.0761719 319.780469,69.0761719 C320.366409,69.0761719 320.84492,68.8841165 321.216016,68.5 C321.593622,68.1158835 321.782422,67.5820347 321.782422,66.8984375 L321.782422,60.8632812 L323.823437,60.8632812 L323.823437,71 L321.782422,71 L321.782422,69.9160156 L321.743359,69.9160156 C321.072783,70.7168009 320.197141,71.1171875 319.116406,71.1171875 C318.276558,71.1041666 317.518102,70.7981801 316.841016,70.1992188 C316.105335,69.6132783 315.73099,68.7474016 315.717969,67.6015625 L315.717969,60.8632812 Z M326.802344,57.7773438 L328.843359,57.7773438 L328.843359,60.8632812 L330.327734,60.8632812 L330.327734,62.4160156 L328.843359,62.4160156 L328.843359,68.3242188 C328.830338,68.8385442 329.071221,69.0891928 329.566016,69.0761719 L330.327734,69.0761719 L330.327734,71 L329.263281,71 C328.547132,71 327.9612,70.778648 327.505469,70.3359375 C327.036716,69.9127583 326.802344,69.3007853 326.802344,68.5 L326.802344,62.4160156 L325.786719,62.4160156 L325.786719,60.8632812 L326.802344,60.8632812 L326.802344,57.7773438 Z M334.009766,66.703125 C334.009766,67.5169312 334.244138,68.1354146 334.712891,68.5585938 C335.149091,68.9882834 335.722002,69.203125 336.431641,69.203125 C337.258468,69.203125 337.997392,68.8743522 338.648437,68.2167969 L340.123047,69.4765625 C339.087885,70.5833389 337.87045,71.1302084 336.470703,71.1171875 C335.936846,71.1171875 335.416018,71.0390633 334.908203,70.8828125 C334.654295,70.7981767 334.406902,70.6842455 334.166016,70.5410156 C333.912108,70.4173171 333.67448,70.2643238 333.453125,70.0820312 C333.023435,69.7044252 332.675131,69.1770867 332.408203,68.5 C332.115233,67.8489551 331.96875,67.0026094 331.96875,65.9609375 C331.96875,64.9583283 332.095702,64.1250033 332.349609,63.4609375 C332.603517,62.7838508 332.929034,62.250002 333.326172,61.859375 C333.72982,61.4622376 334.182289,61.1757821 334.683594,61 C335.178388,60.8242179 335.666664,60.7363281 336.148437,60.7363281 C337.307297,60.749349 338.287105,61.1302046 339.087891,61.8789062 C339.901697,62.6406288 340.315104,63.6887954 340.328125,65.0234375 L340.328125,66.703125 L334.009766,66.703125 Z M338.287109,65.0234375 C338.261067,64.2356731 338.049481,63.639976 337.652344,63.2363281 C337.261717,62.8522116 336.76042,62.6601562 336.148437,62.6601562 C335.536455,62.6601562 335.035158,62.8522116 334.644531,63.2363281 C334.260415,63.639976 334.048828,64.2356731 334.009766,65.0234375 L338.287109,65.0234375 Z M342.691797,60.8632812 L344.732812,60.8632812 L344.732812,61.9375 L344.771875,61.9375 C345.442451,61.1367147 346.321349,60.7363281 347.408594,60.7363281 C348.2224,60.749349 348.932028,61.0097631 349.5375,61.5175781 L348.053125,63.2851562 C347.623435,62.9466129 347.177476,62.7773438 346.715234,62.7773438 C346.194398,62.7773438 345.748439,62.9466129 345.377344,63.2851562 C344.960675,63.6171892 344.745833,64.1542932 344.732812,64.8964844 L344.732812,71 L342.691797,71 L342.691797,60.8632812 Z M356.08125,67.5429688 C357.214068,68.473963 358.561711,68.9459635 360.124219,68.9589844 C361.973186,68.9329426 362.910677,68.2721419 362.936719,66.9765625 C362.94974,65.9153593 362.331256,65.2773448 361.08125,65.0625 C360.50833,64.9843746 359.880081,64.8964849 359.196484,64.7988281 C357.97252,64.5970042 357.04154,64.1445348 356.403515,63.4414062 C355.74596,62.7187464 355.417187,61.8398489 355.417187,60.8046875 C355.417187,59.5611917 355.830595,58.5585976 356.657422,57.796875 C357.458207,57.0416629 358.594263,56.6575521 360.065625,56.6445312 C361.836467,56.6835939 363.376165,57.1751255 364.684765,58.1191406 L363.483594,59.8964844 C362.41588,59.1933559 361.240761,58.8287762 359.958203,58.8027344 C359.294137,58.8027344 358.740757,58.9687483 358.298047,59.3007812 C357.835805,59.6458351 357.598177,60.1601528 357.585156,60.84375 C357.585156,61.2539083 357.74466,61.6249983 358.063672,61.9570312 C358.382684,62.2955746 358.893746,62.5299473 359.596875,62.6601562 C359.987502,62.7252607 360.521351,62.8001298 361.198437,62.8847656 C362.533079,63.0670582 363.519398,63.545569 364.157422,64.3203125 C364.788935,65.0820351 365.104687,65.9674429 365.104687,66.9765625 C365.033072,69.6979303 363.366422,71.0781248 360.104687,71.1171875 C357.995302,71.1171875 356.182169,70.4661523 354.665234,69.1640625 L356.08125,67.5429688 Z M374.880469,69.359375 C374.437758,69.86719 373.91693,70.2805974 373.317969,70.5996094 C372.719007,70.9316423 372.025655,71.1041666 371.23789,71.1171875 C370.039968,71.1171875 368.988546,70.7102905 368.083594,69.8964844 C367.146089,69.0826782 366.664323,67.764332 366.638281,65.9414062 C366.664323,64.0989491 367.146089,62.7643271 368.083594,61.9375 C368.988546,61.1236938 370.039968,60.7233072 371.23789,60.7363281 C372.025655,60.749349 372.719007,60.9121078 373.317969,61.2246094 C373.91693,61.5436214 374.437758,61.9700494 374.880469,62.5039062 L373.376562,63.8417969 C372.862237,63.1581997 372.175395,62.8033855 371.316015,62.7773438 C369.584236,62.751302 368.705339,63.8059789 368.679297,65.9414062 C368.705339,68.0638127 369.584236,69.1087241 371.316015,69.0761719 C372.175395,69.063151 372.862237,68.711592 373.376562,68.0214844 L374.880469,69.359375 Z M376.580078,60.8632812 L378.621094,60.8632812 L378.621094,71 L376.580078,71 L376.580078,60.8632812 Z M376.580078,56.7617188 L378.621094,56.7617188 L378.621094,58.8027344 L376.580078,58.8027344 L376.580078,56.7617188 Z M383.084375,66.703125 C383.084375,67.5169312 383.318748,68.1354146 383.7875,68.5585938 C384.2237,68.9882834 384.796611,69.203125 385.50625,69.203125 C386.333077,69.203125 387.072002,68.8743522 387.723047,68.2167969 L389.197656,69.4765625 C388.162495,70.5833389 386.945059,71.1302084 385.545312,71.1171875 C385.011456,71.1171875 384.490627,71.0390633 383.982812,70.8828125 C383.728905,70.7981767 383.481511,70.6842455 383.240625,70.5410156 C382.986717,70.4173171 382.749089,70.2643238 382.527734,70.0820312 C382.098045,69.7044252 381.749741,69.1770867 381.482812,68.5 C381.189842,67.8489551 381.043359,67.0026094 381.043359,65.9609375 C381.043359,64.9583283 381.170311,64.1250033 381.424219,63.4609375 C381.678126,62.7838508 382.003644,62.250002 382.400781,61.859375 C382.804429,61.4622376 383.256898,61.1757821 383.758203,61 C384.252997,60.8242179 384.741273,60.7363281 385.223047,60.7363281 C386.381907,60.749349 387.361715,61.1302046 388.1625,61.8789062 C388.976306,62.6406288 389.389713,63.6887954 389.402734,65.0234375 L389.402734,66.703125 L383.084375,66.703125 Z M387.361719,65.0234375 C387.335677,64.2356731 387.12409,63.639976 386.726953,63.2363281 C386.336326,62.8522116 385.835029,62.6601562 385.223047,62.6601562 C384.611064,62.6601562 384.109767,62.8522116 383.71914,63.2363281 C383.335024,63.639976 383.123438,64.2356731 383.084375,65.0234375 L387.361719,65.0234375 Z M391.766406,60.8632812 L393.807422,60.8632812 L393.807422,61.9375 L393.846484,61.9375 C394.51706,61.1367147 395.395958,60.7363281 396.483203,60.7363281 C397.323051,60.7363281 398.091272,61.0325491 398.78789,61.625 C399.477998,62.2239613 399.839323,63.1028588 399.871875,64.2617188 L399.871875,71 L397.830859,71 L397.830859,64.9648438 C397.830859,64.2552048 397.642059,63.7148456 397.264453,63.34375 C396.893357,62.9661439 396.414847,62.7773438 395.828906,62.7773438 C395.242966,62.7773438 394.7612,62.9661439 394.383594,63.34375 C393.999477,63.7148456 393.807422,64.2552048 393.807422,64.9648438 L393.807422,71 L391.766406,71 L391.766406,60.8632812 Z M410.194531,69.359375 C409.751821,69.86719 409.230992,70.2805974 408.632031,70.5996094 C408.03307,70.9316423 407.339717,71.1041666 406.551953,71.1171875 C405.35403,71.1171875 404.302609,70.7102905 403.397656,69.8964844 C402.460151,69.0826782 401.978385,67.764332 401.952344,65.9414062 C401.978385,64.0989491 402.460151,62.7643271 403.397656,61.9375 C404.302609,61.1236938 405.35403,60.7233072 406.551953,60.7363281 C407.339717,60.749349 408.03307,60.9121078 408.632031,61.2246094 C409.230992,61.5436214 409.751821,61.9700494 410.194531,62.5039062 L408.690625,63.8417969 C408.176299,63.1581997 407.489457,62.8033855 406.630078,62.7773438 C404.898298,62.751302 404.019401,63.8059789 403.993359,65.9414062 C404.019401,68.0638127 404.898298,69.1087241 406.630078,69.0761719 C407.489457,69.063151 408.176299,68.711592 408.690625,68.0214844 L410.194531,69.359375 Z M413.378515,66.703125 C413.378515,67.5169312 413.612888,68.1354146 414.08164,68.5585938 C414.517841,68.9882834 415.090751,69.203125 415.80039,69.203125 C416.627218,69.203125 417.366142,68.8743522 418.017187,68.2167969 L419.491797,69.4765625 C418.456635,70.5833389 417.2392,71.1302084 415.839453,71.1171875 C415.305596,71.1171875 414.784768,71.0390633 414.276953,70.8828125 C414.023045,70.7981767 413.775652,70.6842455 413.534765,70.5410156 C413.280858,70.4173171 413.04323,70.2643238 412.821875,70.0820312 C412.392185,69.7044252 412.043881,69.1770867 411.776953,68.5 C411.483983,67.8489551 411.3375,67.0026094 411.3375,65.9609375 C411.3375,64.9583283 411.464452,64.1250033 411.718359,63.4609375 C411.972267,62.7838508 412.297784,62.250002 412.694922,61.859375 C413.09857,61.4622376 413.551039,61.1757821 414.052344,61 C414.547138,60.8242179 415.035414,60.7363281 415.517187,60.7363281 C416.676047,60.749349 417.655855,61.1302046 418.45664,61.8789062 C419.270447,62.6406288 419.683854,63.6887954 419.696875,65.0234375 L419.696875,66.703125 L413.378515,66.703125 Z M417.655859,65.0234375 C417.629817,64.2356731 417.418231,63.639976 417.021094,63.2363281 C416.630467,62.8522116 416.12917,62.6601562 415.517187,62.6601562 C414.905205,62.6601562 414.403908,62.8522116 414.013281,63.2363281 C413.629165,63.639976 413.417578,64.2356731 413.378515,65.0234375 L417.655859,65.0234375 Z M432.402734,70.1015625 L432.363672,70.1015625 C432.174869,70.4466163 431.881903,70.70052 431.484765,70.8632812 C431.094138,71.0325529 430.553779,71.1171875 429.863672,71.1171875 C428.730854,71.1041666 427.858466,70.8046904 427.246484,70.21875 C426.60195,69.6458305 426.279687,68.9134159 426.279687,68.0214844 C426.279687,67.1686155 426.559632,66.4622424 427.119531,65.9023438 C427.67943,65.3294242 428.499734,65.0364584 429.580469,65.0234375 L432.402734,65.0234375 L432.402734,63.9589844 C432.415755,63.0670528 431.722403,62.6341145 430.322656,62.6601562 C429.814841,62.6601562 429.414454,62.7122391 429.121484,62.8164062 C428.815493,62.9401048 428.57461,63.148436 428.398828,63.4414062 L426.797265,62.2207031 C427.572009,61.205073 428.714576,60.7102863 430.225,60.7363281 C431.501048,60.7233072 432.519918,60.9641902 433.28164,61.4589844 C434.043363,61.9667994 434.430729,62.8391865 434.44375,64.0761719 L434.44375,71 L432.402734,71 L432.402734,70.1015625 Z M432.402734,66.703125 L429.961328,66.703125 C428.776426,66.7291668 428.190495,67.1360638 428.203515,67.9238281 C428.203515,68.2688819 428.356509,68.5618478 428.6625,68.8027344 C428.95547,69.0696628 429.440491,69.203125 430.117578,69.203125 C430.970447,69.2161459 431.572654,69.1152354 431.924219,68.9003906 C432.243231,68.6855458 432.402734,68.1972694 432.402734,67.4355469 L432.402734,66.703125 Z M437.305469,60.8632812 L439.346484,60.8632812 L439.346484,61.9375 L439.385547,61.9375 C440.056123,61.1367147 440.93502,60.7363281 442.022265,60.7363281 C442.862113,60.7363281 443.630335,61.0325491 444.326953,61.625 C445.017061,62.2239613 445.378385,63.1028588 445.410937,64.2617188 L445.410937,71 L443.369922,71 L443.369922,64.9648438 C443.369922,64.2552048 443.181121,63.7148456 442.803515,63.34375 C442.43242,62.9661439 441.953909,62.7773438 441.367969,62.7773438 C440.782028,62.7773438 440.300262,62.9661439 439.922656,63.34375 C439.53854,63.7148456 439.346484,64.2552048 439.346484,64.9648438 L439.346484,71 L437.305469,71 L437.305469,60.8632812 Z M454.337109,69.9355469 C453.666533,70.6972694 452.790891,71.0911457 451.710156,71.1171875 C451.098174,71.1041666 450.574091,70.9772147 450.13789,70.7363281 C449.682159,70.501952 449.301303,70.1894551 448.995312,69.7988281 C448.715363,69.4798161 448.529818,69.0468777 448.438672,68.5 C448.327994,67.9791641 448.272656,67.1197977 448.272656,65.921875 C448.272656,64.704421 448.327994,63.8385442 448.438672,63.3242188 C448.529818,62.8033828 448.715363,62.3834651 448.995312,62.0644531 C449.568232,61.2115843 450.473171,60.7688804 451.710156,60.7363281 C452.230992,60.7363281 452.712758,60.8437489 453.155469,61.0585938 C453.565627,61.2864595 453.959503,61.5794253 454.337109,61.9375 L454.337109,56.7617188 L456.378125,56.7617188 L456.378125,71 L454.337109,71 L454.337109,69.9355469 Z M452.335156,62.7773438 C451.853383,62.7773438 451.485548,62.8587231 451.23164,63.0214844 C450.951691,63.1972665 450.746615,63.4381495 450.616406,63.7441406 C450.492708,64.0501317 450.411328,64.3821597 450.372265,64.7402344 C450.333203,65.1243509 450.313672,65.5182271 450.313672,65.921875 C450.313672,66.3059915 450.333203,66.6803367 450.372265,67.0449219 C450.411328,67.4290384 450.492708,67.774087 450.616406,68.0800781 C450.746615,68.3730483 450.951691,68.6139313 451.23164,68.8027344 C451.485548,68.985027 451.853383,69.0761719 452.335156,69.0761719 C452.816929,69.0761719 453.197785,68.9785166 453.477734,68.7832031 C453.757683,68.5944001 453.949739,68.3470067 454.053906,68.0410156 C454.184115,67.7350245 454.272005,67.3932311 454.317578,67.015625 C454.330599,66.6445294 454.337109,66.2799497 454.337109,65.921875 C454.337109,65.531248 454.330599,65.1569028 454.317578,64.7988281 C454.272005,64.4407534 454.184115,64.1087255 454.053906,63.8027344 C453.949739,63.4967433 453.757683,63.2493499 453.477734,63.0605469 C453.197785,62.8717438 452.816929,62.7773438 452.335156,62.7773438 Z M466.496094,58.6855469 L462.599609,58.6855469 L462.599609,56.7617188 L472.560547,56.7617188 L472.560547,58.6855469 L468.664062,58.6855469 L468.664062,71 L466.496094,71 L466.496094,58.6855469 Z M473.664453,66.703125 C473.664453,67.5169312 473.898826,68.1354146 474.367578,68.5585938 C474.803778,68.9882834 475.376689,69.203125 476.086328,69.203125 C476.913155,69.203125 477.65208,68.8743522 478.303125,68.2167969 L479.777734,69.4765625 C478.742573,70.5833389 477.525137,71.1302084 476.12539,71.1171875 C475.591534,71.1171875 475.070705,71.0390633 474.56289,70.8828125 C474.308983,70.7981767 474.06159,70.6842455 473.820703,70.5410156 C473.566795,70.4173171 473.329168,70.2643238 473.107812,70.0820312 C472.678123,69.7044252 472.329819,69.1770867 472.06289,68.5 C471.76992,67.8489551 471.623437,67.0026094 471.623437,65.9609375 C471.623437,64.9583283 471.750389,64.1250033 472.004297,63.4609375 C472.258204,62.7838508 472.583722,62.250002 472.980859,61.859375 C473.384507,61.4622376 473.836976,61.1757821 474.338281,61 C474.833075,60.8242179 475.321352,60.7363281 475.803125,60.7363281 C476.961985,60.749349 477.941793,61.1302046 478.742578,61.8789062 C479.556384,62.6406288 479.969791,63.6887954 479.982812,65.0234375 L479.982812,66.703125 L473.664453,66.703125 Z M477.941797,65.0234375 C477.915755,64.2356731 477.704168,63.639976 477.307031,63.2363281 C476.916404,62.8522116 476.415107,62.6601562 475.803125,62.6601562 C475.191143,62.6601562 474.689845,62.8522116 474.299219,63.2363281 C473.915102,63.639976 473.703516,64.2356731 473.664453,65.0234375 L477.941797,65.0234375 Z M489.807422,69.359375 C489.364711,69.86719 488.843883,70.2805974 488.244922,70.5996094 C487.64596,70.9316423 486.952608,71.1041666 486.164844,71.1171875 C484.966921,71.1171875 483.915499,70.7102905 483.010547,69.8964844 C482.073042,69.0826782 481.591276,67.764332 481.565234,65.9414062 C481.591276,64.0989491 482.073042,62.7643271 483.010547,61.9375 C483.915499,61.1236938 484.966921,60.7233072 486.164844,60.7363281 C486.952608,60.749349 487.64596,60.9121078 488.244922,61.2246094 C488.843883,61.5436214 489.364711,61.9700494 489.807422,62.5039062 L488.303515,63.8417969 C487.78919,63.1581997 487.102348,62.8033855 486.242969,62.7773438 C484.511189,62.751302 483.632292,63.8059789 483.60625,65.9414062 C483.632292,68.0638127 484.511189,69.1087241 486.242969,69.0761719 C487.102348,69.063151 487.78919,68.711592 488.303515,68.0214844 L489.807422,69.359375 Z M491.448437,56.7617188 L493.489453,56.7617188 L493.489453,61.9375 L493.528515,61.9375 C494.199092,61.1367147 495.077989,60.7363281 496.165234,60.7363281 C497.005082,60.7363281 497.773304,61.0325491 498.469922,61.625 C499.160029,62.2239613 499.521354,63.1028588 499.553906,64.2617188 L499.553906,71 L497.51289,71 L497.51289,64.9648438 C497.51289,64.2552048 497.32409,63.7148456 496.946484,63.34375 C496.575389,62.9661439 496.096878,62.7773438 495.510937,62.7773438 C494.924997,62.7773438 494.443231,62.9661439 494.065625,63.34375 C493.681508,63.7148456 493.489453,64.2552048 493.489453,64.9648438 L493.489453,71 L491.448437,71 L491.448437,56.7617188 Z M502.415625,60.8632812 L504.45664,60.8632812 L504.45664,61.9375 L504.495703,61.9375 C505.166279,61.1367147 506.045177,60.7363281 507.132422,60.7363281 C507.97227,60.7363281 508.740491,61.0325491 509.437109,61.625 C510.127217,62.2239613 510.488541,63.1028588 510.521094,64.2617188 L510.521094,71 L508.480078,71 L508.480078,64.9648438 C508.480078,64.2552048 508.291278,63.7148456 507.913672,63.34375 C507.542576,62.9661439 507.064065,62.7773438 506.478125,62.7773438 C505.892184,62.7773438 505.410418,62.9661439 505.032812,63.34375 C504.648696,63.7148456 504.45664,64.2552048 504.45664,64.9648438 L504.45664,71 L502.415625,71 L502.415625,60.8632812 Z M512.884765,65.921875 C512.884765,64.8541613 512.972655,64.033857 513.148437,63.4609375 C513.33073,62.9010389 513.610675,62.4290384 513.988281,62.0449219 C514.26823,61.7063785 514.658851,61.4036472 515.160156,61.1367188 C515.65495,60.8828112 516.289709,60.749349 517.064453,60.7363281 C517.865238,60.749349 518.513018,60.8828112 519.007812,61.1367188 C519.496096,61.4036472 519.873696,61.7063785 520.140625,62.0449219 C520.544273,62.4290384 520.830728,62.9010389 521,63.4609375 C521.162761,64.033857 521.24414,64.8541613 521.24414,65.921875 C521.24414,66.9895887 521.162761,67.8033826 521,68.3632812 C520.830728,68.9231799 520.544273,69.4082011 520.140625,69.8183594 C520.010416,69.9680997 519.850912,70.1145826 519.662109,70.2578125 C519.492837,70.4205737 519.274741,70.5605463 519.007812,70.6777344 C518.513018,70.9576837 517.865238,71.1041666 517.064453,71.1171875 C516.289709,71.1041666 515.65495,70.9576837 515.160156,70.6777344 C514.658851,70.4238269 514.26823,70.1373714 513.988281,69.8183594 C513.610675,69.4082011 513.33073,68.9231799 513.148437,68.3632812 C512.972655,67.8033826 512.884765,66.9895887 512.884765,65.921875 Z M519.203125,65.9414062 C519.203125,65.2187464 519.170573,64.6914079 519.105469,64.359375 C519.040364,64.040363 518.906902,63.7604179 518.705078,63.5195312 C518.555338,63.2916655 518.333986,63.1126309 518.041015,62.9824219 C517.761066,62.8457024 517.435548,62.7773438 517.064453,62.7773438 C516.719399,62.7773438 516.400392,62.8457024 516.107422,62.9824219 C515.827472,63.1126309 515.59961,63.2916655 515.423828,63.5195312 C515.248046,63.7604179 515.121094,64.040363 515.042969,64.359375 C514.964843,64.6914079 514.925781,65.212236 514.925781,65.921875 C514.925781,66.6250035 514.964843,67.1393213 515.042969,67.4648438 C515.121094,67.7968767 515.248046,68.0898425 515.423828,68.34375 C515.59961,68.5390635 515.827472,68.7115878 516.107422,68.8613281 C516.400392,69.004558 516.719399,69.0761719 517.064453,69.0761719 C517.435548,69.0761719 517.761066,69.004558 518.041015,68.8613281 C518.333986,68.7115878 518.555338,68.5390635 518.705078,68.34375 C518.906902,68.0898425 519.040364,67.7968767 519.105469,67.4648438 C519.170573,67.1393213 519.203125,66.6315139 519.203125,65.9414062 Z M523.607812,56.7617188 L525.648828,56.7617188 L525.648828,68.3828125 C525.648828,68.8450544 525.902732,69.0761719 526.410547,69.0761719 L527.113672,69.0761719 L527.113672,71 L526.205469,71 C525.463277,71 524.851304,70.814455 524.369531,70.4433594 C523.861716,70.0657533 523.607812,69.430994 523.607812,68.5390625 L523.607812,56.7617188 Z M528.491015,65.921875 C528.491015,64.8541613 528.578905,64.033857 528.754687,63.4609375 C528.93698,62.9010389 529.216925,62.4290384 529.594531,62.0449219 C529.87448,61.7063785 530.265101,61.4036472 530.766406,61.1367188 C531.2612,60.8828112 531.895959,60.749349 532.670703,60.7363281 C533.471488,60.749349 534.119268,60.8828112 534.614062,61.1367188 C535.102346,61.4036472 535.479946,61.7063785 535.746875,62.0449219 C536.150523,62.4290384 536.436978,62.9010389 536.60625,63.4609375 C536.769011,64.033857 536.85039,64.8541613 536.85039,65.921875 C536.85039,66.9895887 536.769011,67.8033826 536.60625,68.3632812 C536.436978,68.9231799 536.150523,69.4082011 535.746875,69.8183594 C535.616666,69.9680997 535.457162,70.1145826 535.268359,70.2578125 C535.099087,70.4205737 534.880991,70.5605463 534.614062,70.6777344 C534.119268,70.9576837 533.471488,71.1041666 532.670703,71.1171875 C531.895959,71.1041666 531.2612,70.9576837 530.766406,70.6777344 C530.265101,70.4238269 529.87448,70.1373714 529.594531,69.8183594 C529.216925,69.4082011 528.93698,68.9231799 528.754687,68.3632812 C528.578905,67.8033826 528.491015,66.9895887 528.491015,65.921875 Z M534.809375,65.9414062 C534.809375,65.2187464 534.776823,64.6914079 534.711718,64.359375 C534.646614,64.040363 534.513152,63.7604179 534.311328,63.5195312 C534.161588,63.2916655 533.940236,63.1126309 533.647265,62.9824219 C533.367316,62.8457024 533.041798,62.7773438 532.670703,62.7773438 C532.325649,62.7773438 532.006642,62.8457024 531.713672,62.9824219 C531.433722,63.1126309 531.20586,63.2916655 531.030078,63.5195312 C530.854296,63.7604179 530.727344,64.040363 530.649218,64.359375 C530.571093,64.6914079 530.532031,65.212236 530.532031,65.921875 C530.532031,66.6250035 530.571093,67.1393213 530.649218,67.4648438 C530.727344,67.7968767 530.854296,68.0898425 531.030078,68.34375 C531.20586,68.5390635 531.433722,68.7115878 531.713672,68.8613281 C532.006642,69.004558 532.325649,69.0761719 532.670703,69.0761719 C533.041798,69.0761719 533.367316,69.004558 533.647265,68.8613281 C533.940236,68.7115878 534.161588,68.5390635 534.311328,68.34375 C534.513152,68.0898425 534.646614,67.7968767 534.711718,67.4648438 C534.776823,67.1393213 534.809375,66.6315139 534.809375,65.9414062 Z M544.917187,69.9355469 C544.246611,70.6972694 543.374224,71.0911457 542.3,71.1171875 C541.642444,71.1041666 541.095575,70.964194 540.659375,70.6972656 C540.203643,70.4433581 539.855339,70.1699233 539.614453,69.8769531 C539.347524,69.5449202 539.155469,69.1380232 539.038281,68.65625 C538.914582,68.1809872 538.852734,67.2760483 538.852734,65.9414062 C538.852734,64.5807224 538.914582,63.6595076 539.038281,63.1777344 C539.155469,62.7024716 539.347524,62.302085 539.614453,61.9765625 C539.855339,61.6575505 540.203643,61.371095 540.659375,61.1171875 C541.095575,60.8763009 541.642444,60.749349 542.3,60.7363281 C543.309119,60.7363281 544.181506,61.1367147 544.917187,61.9375 L544.917187,60.8632812 L546.958203,60.8632812 L546.958203,70.7558594 C546.932161,72.2793045 546.492712,73.399085 545.639843,74.1152344 C544.780464,74.8509151 543.751829,75.21875 542.553906,75.21875 C541.180201,75.1927082 540.008338,74.6263076 539.038281,73.5195312 L540.620312,72.2597656 C540.88073,72.5006522 541.180206,72.7057283 541.51875,72.875 C541.863804,73.063803 542.221873,73.1647135 542.592968,73.1777344 C543.289587,73.1777344 543.849477,72.985679 544.272656,72.6015625 C544.689325,72.2109355 544.904166,71.6705764 544.917187,70.9804688 L544.917187,69.9355469 Z M540.89375,65.9414062 C540.89375,66.7161497 540.919791,67.2499985 540.971875,67.5429688 C541.017448,67.8489599 541.124869,68.1028636 541.29414,68.3046875 C541.43086,68.4869801 541.639191,68.652994 541.91914,68.8027344 C542.186069,68.985027 542.518097,69.0761719 542.915234,69.0761719 C543.312372,69.0761719 543.644399,68.985027 543.911328,68.8027344 C544.178256,68.652994 544.380077,68.4869801 544.516797,68.3046875 C544.686068,68.1028636 544.799999,67.8489599 544.858593,67.5429688 C544.897656,67.2499985 544.917187,66.7161497 544.917187,65.9414062 C544.917187,65.1536419 544.897656,64.6067724 544.858593,64.3007812 C544.799999,63.9947901 544.686068,63.7473968 544.516797,63.5585938 C544.380077,63.3763012 544.178256,63.1972665 543.911328,63.0214844 C543.644399,62.871744 543.312372,62.7903646 542.915234,62.7773438 C542.518097,62.7903646 542.186069,62.871744 541.91914,63.0214844 C541.639191,63.1972665 541.43086,63.3763012 541.29414,63.5585938 C541.124869,63.7473968 541.017448,63.9947901 540.971875,64.3007812 C540.919791,64.6067724 540.89375,65.1536419 540.89375,65.9414062 Z M548.364843,60.8632812 L550.523047,60.8632812 L552.92539,67.9628906 L552.964453,67.9628906 L555.357031,60.8632812 L557.525,60.8632812 L553.159765,73.0996094 C552.879816,73.8613319 552.49245,74.3886704 551.997656,74.6816406 C551.496351,74.9615899 550.929951,75.1015625 550.298437,75.1015625 L549.624609,75.1015625 L549.624609,73.1777344 L550.220312,73.1777344 C550.487241,73.1777344 550.734634,73.1061205 550.9625,72.9628906 C551.190365,72.8131503 551.349869,72.5917983 551.441015,72.2988281 L551.997656,70.5996094 L548.364843,60.8632812 Z" id="Department-of-Comput" fill="#757575"></path>
            <path d="M140.916016,87.6855469 L137.019531,87.6855469 L137.019531,85.7617188 L146.980469,85.7617188 L146.980469,87.6855469 L143.083984,87.6855469 L143.083984,100 L140.916016,100 L140.916016,87.6855469 Z M148.641094,96.9042969 C149.467921,97.7701866 150.535618,98.203125 151.844219,98.203125 C152.430159,98.203125 152.90867,98.0891938 153.279766,97.8613281 C153.650861,97.6334624 153.836406,97.3144552 153.836406,96.9042969 C153.836406,96.5397117 153.72573,96.285808 153.504375,96.1425781 C153.276509,95.9928378 152.973778,95.9114584 152.596172,95.8984375 L150.799297,95.7421875 C149.946428,95.6640621 149.253076,95.3776066 148.719219,94.8828125 C148.172341,94.4010393 147.892396,93.7272179 147.879375,92.8613281 C147.892396,91.8196562 148.260231,91.0384141 148.982891,90.5175781 C149.686019,89.9967422 150.577937,89.7363281 151.658672,89.7363281 C152.127424,89.7363281 152.547342,89.7656247 152.918437,89.8242188 C153.289533,89.8893232 153.637837,89.9804682 153.963359,90.0976562 C154.588362,90.3515638 155.148253,90.6933572 155.643047,91.1230469 L154.383281,92.5976562 C153.992654,92.3177069 153.579247,92.0865895 153.143047,91.9042969 C152.713357,91.7415356 152.218571,91.6601562 151.658672,91.6601562 C151.020648,91.6601562 150.574689,91.7740874 150.320781,92.0019531 C150.053853,92.2298188 149.920391,92.5227847 149.920391,92.8808594 C149.90737,93.1087251 150.00828,93.3072908 150.223125,93.4765625 C150.418438,93.6653655 150.763487,93.785807 151.258281,93.8378906 L152.937969,93.9648438 C153.992662,94.0429691 154.754373,94.3619764 155.223125,94.921875 C155.659325,95.4687527 155.877422,96.1621052 155.877422,97.0019531 C155.864401,97.985031 155.464014,98.7434869 154.67625,99.2773438 C153.894996,99.8242215 152.895657,100.104167 151.678203,100.117188 C150.024549,100.117188 148.536934,99.5117248 147.215312,98.3007812 L148.641094,96.9042969 Z M158.016562,89.8632812 L160.057578,89.8632812 L160.057578,100 L158.016562,100 L158.016562,89.8632812 Z M158.016562,85.7617188 L160.057578,85.7617188 L160.057578,87.8027344 L158.016562,87.8027344 L158.016562,85.7617188 Z M162.772891,89.8632812 L164.813906,89.8632812 L164.813906,90.9375 L164.852969,90.9375 C165.523545,90.1367147 166.402442,89.7363281 167.489687,89.7363281 C168.329535,89.7363281 169.097757,90.0325491 169.794375,90.625 C170.484483,91.2239613 170.845807,92.1028588 170.878359,93.2617188 L170.878359,100 L168.837344,100 L168.837344,93.9648438 C168.837344,93.2552048 168.648544,92.7148456 168.270937,92.34375 C167.899842,91.9661439 167.421331,91.7773438 166.835391,91.7773438 C166.24945,91.7773438 165.767684,91.9661439 165.390078,92.34375 C165.005962,92.7148456 164.813906,93.2552048 164.813906,93.9648438 L164.813906,100 L162.772891,100 L162.772891,89.8632812 Z M179.238203,98.9355469 C178.567627,99.6972694 177.69524,100.091146 176.621016,100.117188 C175.96346,100.104167 175.416591,99.964194 174.980391,99.6972656 C174.524659,99.4433581 174.176355,99.1699233 173.935469,98.8769531 C173.66854,98.5449202 173.476485,98.1380232 173.359297,97.65625 C173.235598,97.1809872 173.17375,96.2760483 173.17375,94.9414062 C173.17375,93.5807224 173.235598,92.6595076 173.359297,92.1777344 C173.476485,91.7024716 173.66854,91.302085 173.935469,90.9765625 C174.176355,90.6575505 174.524659,90.371095 174.980391,90.1171875 C175.416591,89.8763009 175.96346,89.749349 176.621016,89.7363281 C177.630135,89.7363281 178.502522,90.1367147 179.238203,90.9375 L179.238203,89.8632812 L181.279219,89.8632812 L181.279219,99.7558594 C181.253177,101.279304 180.813728,102.399085 179.960859,103.115234 C179.10148,103.850915 178.072845,104.21875 176.874922,104.21875 C175.501217,104.192708 174.329354,103.626308 173.359297,102.519531 L174.941328,101.259766 C175.201746,101.500652 175.501222,101.705728 175.839766,101.875 C176.184819,102.063803 176.542889,102.164713 176.913984,102.177734 C177.610602,102.177734 178.170493,101.985679 178.593672,101.601562 C179.010341,101.210936 179.225182,100.670576 179.238203,99.9804688 L179.238203,98.9355469 Z M175.214766,94.9414062 C175.214766,95.7161497 175.240807,96.2499985 175.292891,96.5429688 C175.338464,96.8489599 175.445885,97.1028636 175.615156,97.3046875 C175.751876,97.4869801 175.960207,97.652994 176.240156,97.8027344 C176.507085,97.985027 176.839113,98.0761719 177.23625,98.0761719 C177.633387,98.0761719 177.965415,97.985027 178.232344,97.8027344 C178.499272,97.652994 178.701093,97.4869801 178.837812,97.3046875 C179.007084,97.1028636 179.121015,96.8489599 179.179609,96.5429688 C179.218672,96.2499985 179.238203,95.7161497 179.238203,94.9414062 C179.238203,94.1536419 179.218672,93.6067724 179.179609,93.3007812 C179.121015,92.9947901 179.007084,92.7473968 178.837812,92.5585938 C178.701093,92.3763012 178.499272,92.1972665 178.232344,92.0214844 C177.965415,91.871744 177.633387,91.7903646 177.23625,91.7773438 C176.839113,91.7903646 176.507085,91.871744 176.240156,92.0214844 C175.960207,92.1972665 175.751876,92.3763012 175.615156,92.5585938 C175.445885,92.7473968 175.338464,92.9947901 175.292891,93.3007812 C175.240807,93.6067724 175.214766,94.1536419 175.214766,94.9414062 Z M183.935937,85.7617188 L185.976953,85.7617188 L185.976953,90.9375 L186.016016,90.9375 C186.686592,90.1367147 187.565489,89.7363281 188.652734,89.7363281 C189.492582,89.7363281 190.260804,90.0325491 190.957422,90.625 C191.647529,91.2239613 192.008854,92.1028588 192.041406,93.2617188 L192.041406,100 L190.000391,100 L190.000391,93.9648438 C190.000391,93.2552048 189.81159,92.7148456 189.433984,92.34375 C189.062889,91.9661439 188.584378,91.7773438 187.998437,91.7773438 C187.412497,91.7773438 186.930731,91.9661439 186.553125,92.34375 C186.169008,92.7148456 185.976953,93.2552048 185.976953,93.9648438 L185.976953,100 L183.935937,100 L183.935937,85.7617188 Z M194.698125,89.8632812 L196.739141,89.8632812 L196.739141,95.8984375 C196.739141,96.5820347 196.931196,97.1158835 197.315312,97.5 C197.692919,97.8841165 198.174685,98.0761719 198.760625,98.0761719 C199.346565,98.0761719 199.825076,97.8841165 200.196172,97.5 C200.573778,97.1158835 200.762578,96.5820347 200.762578,95.8984375 L200.762578,89.8632812 L202.803594,89.8632812 L202.803594,100 L200.762578,100 L200.762578,98.9160156 L200.723516,98.9160156 C200.052939,99.7168009 199.177297,100.117188 198.096562,100.117188 C197.256715,100.104167 196.498259,99.7981801 195.821172,99.1992188 C195.085491,98.6132783 194.711146,97.7474016 194.698125,96.6015625 L194.698125,89.8632812 Z M210.782578,99.1015625 L210.743516,99.1015625 C210.554713,99.4466163 210.261747,99.70052 209.864609,99.8632812 C209.473982,100.032553 208.933623,100.117188 208.243516,100.117188 C207.110697,100.104167 206.23831,99.8046904 205.626328,99.21875 C204.981794,98.6458305 204.659531,97.9134159 204.659531,97.0214844 C204.659531,96.1686155 204.939476,95.4622424 205.499375,94.9023438 C206.059274,94.3294242 206.879578,94.0364584 207.960312,94.0234375 L210.782578,94.0234375 L210.782578,92.9589844 C210.795599,92.0670528 210.102247,91.6341145 208.7025,91.6601562 C208.194685,91.6601562 207.794298,91.7122391 207.501328,91.8164062 C207.195337,91.9401048 206.954454,92.148436 206.778672,92.4414062 L205.177109,91.2207031 C205.951853,90.205073 207.09442,89.7102863 208.604844,89.7363281 C209.880892,89.7233072 210.899762,89.9641902 211.661484,90.4589844 C212.423207,90.9667994 212.810573,91.8391865 212.823594,93.0761719 L212.823594,100 L210.782578,100 L210.782578,99.1015625 Z M210.782578,95.703125 L208.341172,95.703125 C207.15627,95.7291668 206.570338,96.1360638 206.583359,96.9238281 C206.583359,97.2688819 206.736353,97.5618478 207.042344,97.8027344 C207.335314,98.0696628 207.820335,98.203125 208.497422,98.203125 C209.350291,98.2161459 209.952498,98.1152354 210.304062,97.9003906 C210.623075,97.6855458 210.782578,97.1972694 210.782578,96.4355469 L210.782578,95.703125 Z M220.217109,85.7617188 L222.375312,85.7617188 L222.375312,94.9414062 C222.388333,95.9114632 222.668279,96.6503881 223.215156,97.1582031 C223.749013,97.69206 224.435855,97.9589844 225.275703,97.9589844 C226.115551,97.9589844 226.808904,97.69206 227.355781,97.1582031 C227.889638,96.6503881 228.163073,95.9114632 228.176094,94.9414062 L228.176094,85.7617188 L230.334297,85.7617188 L230.334297,95.1757812 C230.308255,96.6731846 229.823234,97.8613237 228.879219,98.7402344 C227.928693,99.6451868 226.727533,100.104167 225.275703,100.117188 C223.849915,100.104167 222.65852,99.6451868 221.701484,98.7402344 C220.724917,97.8613237 220.23013,96.6731846 220.217109,95.1757812 L220.217109,85.7617188 Z M232.912891,89.8632812 L234.953906,89.8632812 L234.953906,90.9375 L234.992969,90.9375 C235.663545,90.1367147 236.542442,89.7363281 237.629687,89.7363281 C238.469535,89.7363281 239.237757,90.0325491 239.934375,90.625 C240.624483,91.2239613 240.985807,92.1028588 241.018359,93.2617188 L241.018359,100 L238.977344,100 L238.977344,93.9648438 C238.977344,93.2552048 238.788544,92.7148456 238.410937,92.34375 C238.039842,91.9661439 237.561331,91.7773438 236.975391,91.7773438 C236.38945,91.7773438 235.907684,91.9661439 235.530078,92.34375 C235.145962,92.7148456 234.953906,93.2552048 234.953906,93.9648438 L234.953906,100 L232.912891,100 L232.912891,89.8632812 Z M243.733672,89.8632812 L245.774687,89.8632812 L245.774687,100 L243.733672,100 L243.733672,89.8632812 Z M243.733672,85.7617188 L245.774687,85.7617188 L245.774687,87.8027344 L243.733672,87.8027344 L243.733672,85.7617188 Z M247.054453,89.8632812 L249.212656,89.8632812 L251.595469,96.9628906 L251.634531,96.9628906 L254.007578,89.8632812 L256.175547,89.8632812 L252.454844,100 L250.775156,100 L247.054453,89.8632812 Z M258.812734,95.703125 C258.812734,96.5169312 259.047107,97.1354146 259.515859,97.5585938 C259.952059,97.9882834 260.52497,98.203125 261.234609,98.203125 C262.061436,98.203125 262.800361,97.8743522 263.451406,97.2167969 L264.926016,98.4765625 C263.890854,99.5833389 262.673418,100.130208 261.273672,100.117188 C260.739815,100.117188 260.218987,100.039063 259.711172,99.8828125 C259.457264,99.7981767 259.209871,99.6842455 258.968984,99.5410156 C258.715077,99.4173171 258.477449,99.2643238 258.256094,99.0820312 C257.826404,98.7044252 257.4781,98.1770867 257.211172,97.5 C256.918202,96.8489551 256.771719,96.0026094 256.771719,94.9609375 C256.771719,93.9583283 256.898671,93.1250033 257.152578,92.4609375 C257.406486,91.7838508 257.732003,91.250002 258.129141,90.859375 C258.532788,90.4622376 258.985258,90.1757821 259.486562,90 C259.981357,89.8242179 260.469633,89.7363281 260.951406,89.7363281 C262.110266,89.749349 263.090074,90.1302046 263.890859,90.8789062 C264.704666,91.6406288 265.118073,92.6887954 265.131094,94.0234375 L265.131094,95.703125 L258.812734,95.703125 Z M263.090078,94.0234375 C263.064036,93.2356731 262.85245,92.639976 262.455312,92.2363281 C262.064686,91.8522116 261.563388,91.6601562 260.951406,91.6601562 C260.339424,91.6601562 259.838127,91.8522116 259.4475,92.2363281 C259.063383,92.639976 258.851797,93.2356731 258.812734,94.0234375 L263.090078,94.0234375 Z M267.289766,89.8632812 L269.330781,89.8632812 L269.330781,90.9375 L269.369844,90.9375 C270.04042,90.1367147 270.919317,89.7363281 272.006562,89.7363281 C272.820369,89.749349 273.529997,90.0097631 274.135469,90.5175781 L272.651094,92.2851562 C272.221404,91.9466129 271.775445,91.7773438 271.313203,91.7773438 C270.792367,91.7773438 270.346408,91.9466129 269.975312,92.2851562 C269.558644,92.6171892 269.343802,93.1542932 269.330781,93.8964844 L269.330781,100 L267.289766,100 L267.289766,89.8632812 Z M275.395703,96.9042969 C276.22253,97.7701866 277.290228,98.203125 278.598828,98.203125 C279.184769,98.203125 279.663279,98.0891938 280.034375,97.8613281 C280.405471,97.6334624 280.591016,97.3144552 280.591016,96.9042969 C280.591016,96.5397117 280.48034,96.285808 280.258984,96.1425781 C280.031119,95.9928378 279.728387,95.9114584 279.350781,95.8984375 L277.553906,95.7421875 C276.701037,95.6640621 276.007685,95.3776066 275.473828,94.8828125 C274.92695,94.4010393 274.647005,93.7272179 274.633984,92.8613281 C274.647005,91.8196562 275.01484,91.0384141 275.7375,90.5175781 C276.440629,89.9967422 277.332547,89.7363281 278.413281,89.7363281 C278.882034,89.7363281 279.301951,89.7656247 279.673047,89.8242188 C280.044142,89.8893232 280.392446,89.9804682 280.717969,90.0976562 C281.342972,90.3515638 281.902862,90.6933572 282.397656,91.1230469 L281.137891,92.5976562 C280.747264,92.3177069 280.333856,92.0865895 279.897656,91.9042969 C279.467967,91.7415356 278.97318,91.6601562 278.413281,91.6601562 C277.775257,91.6601562 277.329298,91.7740874 277.075391,92.0019531 C276.808462,92.2298188 276.675,92.5227847 276.675,92.8808594 C276.661979,93.1087251 276.76289,93.3072908 276.977734,93.4765625 C277.173048,93.6653655 277.518096,93.785807 278.012891,93.8378906 L279.692578,93.9648438 C280.747271,94.0429691 281.508982,94.3619764 281.977734,94.921875 C282.413934,95.4687527 282.632031,96.1621052 282.632031,97.0019531 C282.61901,97.985031 282.218624,98.7434869 281.430859,99.2773438 C280.649605,99.8242215 279.650266,100.104167 278.432812,100.117188 C276.779158,100.117188 275.291543,99.5117248 273.969922,98.3007812 L275.395703,96.9042969 Z M284.771172,89.8632812 L286.812187,89.8632812 L286.812187,100 L284.771172,100 L284.771172,89.8632812 Z M284.771172,85.7617188 L286.812187,85.7617188 L286.812187,87.8027344 L284.771172,87.8027344 L284.771172,85.7617188 Z M289.644687,86.7773438 L291.685703,86.7773438 L291.685703,89.8632812 L293.170078,89.8632812 L293.170078,91.4160156 L291.685703,91.4160156 L291.685703,97.3242188 C291.672682,97.8385442 291.913565,98.0891928 292.408359,98.0761719 L293.170078,98.0761719 L293.170078,100 L292.105625,100 C291.389476,100 290.803544,99.778648 290.347812,99.3359375 C289.87906,98.9127583 289.644687,98.3007853 289.644687,97.5 L289.644687,91.4160156 L288.629062,91.4160156 L288.629062,89.8632812 L289.644687,89.8632812 L289.644687,86.7773438 Z M293.649062,89.8632812 L295.807266,89.8632812 L298.209609,96.9628906 L298.248672,96.9628906 L300.64125,89.8632812 L302.809219,89.8632812 L298.443984,102.099609 C298.164035,102.861332 297.776669,103.38867 297.281875,103.681641 C296.78057,103.96159 296.21417,104.101562 295.582656,104.101562 L294.908828,104.101562 L294.908828,102.177734 L295.504531,102.177734 C295.77146,102.177734 296.018853,102.106121 296.246719,101.962891 C296.474584,101.81315 296.634088,101.591798 296.725234,101.298828 L297.281875,99.5996094 L293.649062,89.8632812 Z" id="Tsinghua-University" fill="#757575"></path>
        </g>
    </g>
</svg>
