<svg width="812px" height="812px" viewBox="0 0 812 812" version="1.1" xmlns="http://www.w3.org/2000/svg" xmlns:xlink="http://www.w3.org/1999/xlink">
  <desc>清华大学计算机科学与技术系系徽</desc>
  <defs></defs>
  <g id="export" stroke="none" stroke-width="1" fill="none" fill-rule="evenodd">
    <path
      d="M561.537191,173.178962 C565.100119,175.034085 569.989574,172.510202 572.031917,170.162756 C572.031917,170.162756 581.748517,170.776089 584.050585,169.752756 C586.317197,168.727746 588.794862,166.487945 587.547638,164.237906 C586.317239,161.987868 584.664861,163.222966 582.59063,163.01292 C580.534902,162.8197 578.057195,162.189563 576.598918,161.584623 C575.174439,160.97299 574.121253,158.723035 573.294246,158.521423 C572.452029,158.319812 566.68658,157.239311 565.683976,157.771977 C564.678056,158.311378 559.932059,162.278768 559.349671,164.157262 C558.7505,166.027489 557.972438,171.29193 561.536981,173.179025 L561.537191,173.178962 Z M591.856593,141.493802 C591.856593,141.493802 595.466725,140.895596 596.666746,141.493802 C597.848179,142.090309 601.865017,146.015698 605.85005,145.234216 C609.834874,144.436035 611.43665,142.476686 611.841762,138.526269 C612.248531,134.590956 607.664557,134.187733 607.664557,134.187733 C607.664557,134.187733 600.667094,130.438927 599.468752,130.052277 C598.268731,129.657403 597.848472,127.884687 594.869652,128.47276 C591.857013,129.060875 591.661065,129.270921 590.884828,131.42351 C590.074688,133.607883 588.098347,138.52629 591.856992,141.493823 L591.856593,141.493802 Z M580.89109,156.086011 C582.298702,156.086011 587.093644,155.497875 588.876052,155.109714 C590.690412,154.714841 591.078678,155.691116 591.856593,156.086011 C592.665034,156.489298 593.476873,156.884172 596.487792,155.313047 C599.468332,153.731831 600.05072,150.967587 596.875973,148.983148 C593.670953,147.023862 594.658243,149.966158 590.690202,147.613677 C586.67328,145.234195 586.479221,144.049699 581.878233,143.274931 C581.878233,143.274931 579.692601,141.49376 578.298521,144.049573 C576.889231,146.628988 575.886731,151.159066 576.889231,153.118331 C577.89515,155.109547 579.483332,156.085864 580.891048,156.085864 L580.89109,156.086011 Z M676.628399,275.265681 C680.984558,275.265681 684.498604,271.775551 684.498604,267.485687 C684.498604,263.18911 680.984558,259.705693 676.628399,259.705693 C672.287346,259.705693 668.756516,263.18911 668.756516,267.485687 C668.756516,271.775551 672.287346,275.265681 676.628399,275.265681 Z M632.735337,196.922377 C633.061063,199.204304 631.828986,200.091522 630.208791,200.333415 C628.588532,200.550195 626.419704,198.002815 626.063684,197.100492 C625.690671,196.221666 625.123577,194.697514 624.524427,194.117853 C623.925256,193.536452 621.543677,192.335004 620.134492,192.020775 C618.742069,191.714959 618.385944,191.738477 617.349688,190.456385 C616.296503,189.165859 615.503251,187.465354 615.535308,185.724485 C615.567406,183.98198 617.479635,183.361997 617.479635,183.361997 C618.742111,182.563816 620.460385,183.281226 621.332918,183.667814 C622.273025,184.0711 627.230012,189.932257 628.671505,191.133536 C630.112873,192.334983 632.428493,194.665625 632.735631,196.922377 L632.735337,196.922377 Z M621.675217,214.256801 C620.654109,214.959169 619.227973,215.265007 618.969716,214.450021 C618.709782,213.660252 616.816183,211.61193 616.119038,210.943107 C615.437166,210.274327 613.590813,209.597133 613.946833,207.105139 C614.304636,204.606495 616.895485,203.211786 616.895485,203.211786 C621.172342,201.171835 624.151204,204.292245 625.057723,207.807529 C625.967431,211.346331 622.711809,213.515599 621.675427,214.256801 L621.675217,214.256801 Z M610.789016,198.390934 C609.477595,200.97874 605.430253,201.074406 603.648054,201.074406 C601.897808,201.074406 601.752672,197.953933 602.17461,196.70545 C602.578001,195.46366 606.221952,193.536305 606.221952,193.536305 C611.145183,192.383593 612.102263,195.818232 610.789163,198.390934 L610.789016,198.390934 Z M626.436488,179.878518 C624.588372,178.878703 617.835571,173.565402 615.373011,172.323633 C612.910451,171.075129 610.579642,169.018331 609.121365,167.825234 C607.664809,166.640591 604.133937,165.02071 602.658877,165.140083 C601.217509,165.261134 599.695119,166.197024 599.824982,169.510717 C599.953166,172.82441 601.283238,175.69439 602.285863,176.000269 C603.291783,176.322911 607.145108,178.379751 607.728964,179.18452 C608.27919,179.999485 609.80158,181.814285 607.210815,183.563546 C604.618393,185.312786 601.995551,186.813252 598.366747,187.513964 C594.77172,188.182744 590.658712,189.488375 587.450126,189.634559 C584.211329,189.738827 578.835572,188.118883 577.635552,186.932625 C576.43723,185.739569 575.044808,186.932625 573.782269,187.819843 C572.518114,188.683543 570.492702,189.570761 570.995787,192.923077 C571.497068,196.302226 575.855031,202.002115 579.838177,202.558278 C583.823001,203.122875 590.788575,201.308096 593.620581,202.244049 C596.488043,203.180002 602.658709,208.242893 607.274802,214.362788 C611.890895,220.472614 612.652027,221.480673 612.101948,222.416773 C611.517966,223.351048 606.577867,228.528277 608.166006,232.236802 C609.735642,235.905047 611.647954,237.654308 613.477566,236.662822 C615.308814,235.663029 616.248942,234.227955 618.709614,229.906202 C621.187279,225.618017 633.903092,209.113537 636.687895,208.557584 C639.457593,207.992987 641.108251,208.364364 643.749555,212.113169 C646.406174,215.861975 650.389319,222.48097 652.299911,223.230353 C654.178426,223.996604 658.924361,225.157708 659.685703,225.480392 C660.446898,225.803013 663.282408,221.602144 663.491572,220.167154 C663.670526,218.732122 663.864586,214.611814 662.796211,214.242157 C661.69408,213.862388 660.44673,213.112963 659.557414,213.233951 C659.231667,213.170174 643.263567,196.383312 640.154633,192.553945 C637.04402,188.739474 636.428065,188.433805 638.323385,187.748198 C639.457572,187.0559 641.86932,190.119078 642.114149,190.240129 C642.355496,190.384677 646.212052,194.069706 646.517511,195.173641 C646.858447,196.302835 648.120903,198.124391 650.713388,197.689068 C653.30581,197.253851 654.568349,195.43903 654.504152,192.819334 C654.439955,190.182856 652.867005,187.747989 651.587598,187.56316 C650.340332,187.376653 646.016314,183.13714 644.316564,181.379488 C642.615262,179.630248 642.113939,178.758114 643.521614,177.694459 C644.883658,176.629126 646.114036,177.074414 646.664325,177.944848 C647.248307,178.815262 653.369965,189.303924 658.293196,190.618073 C663.216428,191.925382 664.497429,190.441636 665.516817,189.248581 C666.521058,188.053847 667.20123,185.739989 665.937076,184.998997 C664.67462,184.249572 659.751305,180.379757 657.288955,177.193828 C654.826395,174.009578 651.540395,169.640621 651.393539,168.39046 C651.393539,168.39046 652.299869,164.834875 652.105768,163.456949 C651.926814,162.077387 649.839156,161.020403 647.685413,161.327961 C645.546984,161.650582 644.265983,162.826833 643.619608,162.956213 C643.00357,163.077264 641.724226,161.270813 640.218641,160.393791 C638.696251,159.521678 637.141805,159.457838 636.184725,158.086689 C635.229429,156.700392 635.973757,154.265504 635.295263,154.087389 C634.581334,153.902561 628.768577,151.758468 627.389602,152.885942 C625.99718,154.023549 624.587806,156.83636 625.365952,159.899769 C626.127147,162.956255 626.711129,163.956132 629.269795,164.771181 C631.892638,165.584468 638.566179,169.140137 638.177851,172.075572 C637.821726,175.009539 633.949876,173.075387 632.184461,172.51079 C630.402158,171.946193 627.681446,168.955204 626.191071,165.448291 C624.668681,161.956482 622.596044,162.95636 621.493997,163.077411 C620.425643,163.206644 617.640714,163.270631 617.898971,166.013056 C618.158905,168.762194 620.003622,168.575477 620.118379,170.010677 C620.231458,171.4541 619.939425,172.324493 621.137789,172.695828 C622.320942,173.075597 624.231408,173.196564 625.544717,174.381227 C626.873006,175.574262 630.79208,179.000468 630.305988,179.694466 C629.787839,180.380051 628.26547,180.870696 626.435922,179.879294 L626.436488,179.878518 Z M206.114581,191.069549 C206.472405,188.43307 209.905345,187.868515 209.905345,187.868515 C212.188951,187.303918 214.246399,187.513964 214.246399,189.738743 C214.246399,192.003887 211.022707,194.237142 208.950154,194.237142 C206.86067,194.237142 205.726462,193.674223 206.114581,191.069675 L206.114581,191.069549 Z M186.112629,155.199003 C188.703373,154.918383 189.903393,154.65121 189.368419,155.585485 C188.818193,156.538243 187.861218,160.939003 190.16167,160.939003 C192.494158,160.939003 195.732955,160.819841 196.121283,161.08523 C196.543241,161.342332 197.613295,162.955458 198.308593,165.632301 C198.988787,168.30906 199.378647,171.251418 198.308593,172.856131 C197.223351,174.460865 168.379408,209.540678 168.379408,209.540678 C168.379408,209.540678 166.451613,210.459826 165.123828,211.007619 C163.762979,211.531894 162.807074,212.47626 162.807074,215.01531 C162.807074,217.562627 162.662107,220.9166 165.803559,221.449267 C168.913543,221.973542 171.894084,222.101243 173.642715,221.835749 C173.642715,221.835749 183.943172,227.335494 185.968521,230.407295 C188.025927,233.4856 189.222633,235.493746 191.119589,235.236539 C193.013293,234.962632 194.21153,234.559345 193.838517,229.34364 C193.435125,224.117676 188.81899,221.304761 187.070568,220.103482 C185.303475,218.902034 178.518533,214.894301 177.725303,214.482686 C176.898296,214.081098 177.433312,211.007661 178.66371,209.799668 C179.87892,208.606613 187.86212,196.141881 189.369279,196.286219 C190.859591,196.424054 191.264661,197.487666 190.97267,198.542971 C190.712757,199.625109 190.437654,205.647429 193.953211,205.244205 C197.484041,204.857723 197.354178,204.178851 199.264771,200.962733 C201.143265,197.746594 203.993943,195.876282 204.934029,197.608759 C205.872437,199.357999 206.974547,202.172614 205.872437,203.639492 C204.804062,205.114825 199.524705,211.412773 198.164402,212.081595 C196.804036,212.741984 193.838664,215.418786 195.053789,216.885664 C196.253789,218.360997 198.714691,220.642861 201.695232,219.844806 C204.674094,219.031519 205.759358,216.885664 207.654845,214.346739 C209.53336,211.814528 214.004255,202.970879 216.302966,202.172614 C218.635453,201.374432 222.151178,200.962754 222.684474,204.857765 C223.366346,207.259065 209.275083,220.369081 209.275083,220.369081 C209.275083,220.369081 207.507968,223.707949 214.554544,225.319375 C214.554544,225.319375 219.705611,221.18392 221.746276,220.248029 C223.786814,219.312076 225.518578,218.233296 227.1556,216.885664 C228.775879,215.563229 233.245075,205.388753 230.944686,202.172614 C228.644297,198.956475 226.603632,194.537168 227.025737,191.603202 C227.430807,188.650773 230.264534,188.249228 231.091541,188.119785 C231.901681,187.990552 235.673858,183.700478 235.673858,180.628887 C235.673858,177.548694 233.390252,175.00977 231.091541,175.130821 C228.775837,175.275369 226.895665,178.879626 226.200408,179.953351 C225.518558,181.032132 225.130355,185.048194 222.944618,184.765811 C220.774091,184.500317 220.515835,182.2336 219.834005,179.953351 C219.1707,177.678137 218.895598,175.130821 215.915057,175.130821 C212.902418,175.130821 208.853397,177.412748 205.356344,181.959819 C201.823836,186.50689 199.913243,189.18365 199.104698,190.522763 C198.309747,191.868738 195.864223,193.473513 194.520703,193.199523 C193.14347,192.923938 194.098745,190.932701 194.908885,189.586873 C195.734214,188.249312 213.064441,167.373904 213.599416,166.962708 C214.16653,166.577905 218.215509,163.625518 221.324443,164.690851 C224.450162,165.771331 225.243392,167.374324 226.603905,168.84309 C227.965949,170.326836 231.091814,173.124562 232.435124,172.857495 C233.795469,172.583609 238.006408,169.108689 237.051217,166.295774 C236.095921,163.489572 232.857019,160.409589 230.944749,158.942501 C229.034156,157.482294 226.767544,154.919704 226.200471,153.047924 C225.665455,151.186109 225.405521,150.2434 223.366576,150.379556 C221.32436,150.515712 216.466878,151.572612 215.656864,152.661484 C214.846724,153.716746 208.335269,161.891572 208.335269,161.891572 C208.335269,161.891572 207.655076,163.625686 205.872709,159.216491 C204.124162,154.788793 200.885281,150.105566 199.379801,149.443666 C197.889488,148.766494 196.6743,148.766494 195.167141,148.235505 C193.693696,147.686013 193.435461,146.365278 193.693696,145.163914 C193.95361,143.945663 191.523169,141.946097 190.309722,141.680498 C189.094533,141.421717 185.821813,140.746223 183.134983,144.881532 C180.412489,149.033771 178.51889,152.24991 180.412489,153.597416 C182.292682,154.91983 183.5552,155.467644 186.113845,155.20045 L186.112629,155.199003 Z M151.160979,190.683528 C152.942422,191.649734 157.995852,195.504381 160.587015,197.487352 C163.194543,199.463442 166.482851,202.783806 168.34561,203.212205 C170.176019,203.63901 172.668831,202.308162 173.867174,199.624731 C175.050327,196.956364 176.459596,190.851573 176.184556,188.215094 C175.924642,185.587007 174.402253,185.232456 172.83268,185.33001 C171.259667,185.434277 170.402219,187.966489 169.948225,189.093921 C169.527966,190.214723 167.956631,191.118746 166.968314,190.634814 C165.996654,190.150862 166.223336,187.966447 166.644602,186.716286 C167.09761,185.498034 168.442598,183.474971 167.907896,182.765868 C165.835133,180.299112 164.442103,180.483941 162.530671,180.751134 C160.652345,181.031733 159.291664,184.765539 158.060804,185.31331 C156.845783,185.845977 157.250517,184.103471 157.80173,182.354169 C158.33576,180.628468 158.871112,178.210531 158.741165,176.735051 C158.611513,175.274823 155.209916,174.332073 155.209916,174.332073 C155.209916,174.332073 152.246578,173.888464 150.934318,175.372209 C149.638925,176.87276 147.533141,183.563819 147.37097,185.918125 C147.209429,188.280613 149.364074,189.722526 151.161315,190.683591 L151.160979,190.683528 Z M121.909428,340.031549 L129.683757,342.659636 L138.591393,311.941626 L130.995598,310.04788 L127.577847,319.617415 L96.0919911,310.442712 L92.8852926,320.738134 L124.53269,330.106057 L121.908798,340.031822 L121.909428,340.031549 Z M135.255461,273.153477 C139.6112,273.153477 143.126505,269.663347 143.126505,265.373483 C143.126505,261.068514 139.6112,257.585098 135.255461,257.585098 C130.914617,257.585098 127.384207,261.068514 127.384207,265.373483 C127.384207,269.663347 130.914617,273.153477 135.255461,273.153477 Z M287.370662,124.327843 C290.739531,123.74812 294.157282,118.417951 297.946368,115.662309 C301.737133,112.887996 308.734805,108.154418 309.932938,109.929064 C311.114392,111.711913 313.122853,122.151861 309.122798,130.850962 C305.120981,139.509782 299.939494,143.662021 296.537057,144.250073 C293.153083,144.846601 288.764826,148.202169 289.152945,150.176749 C289.574882,152.152838 291.35557,158.07108 291.954741,159.642226 C292.553912,161.221764 293.558153,163.004591 299.551375,161.818207 C305.510988,160.62683 311.114371,158.07108 312.928668,153.119107 C314.72616,148.202379 318.499952,142.275914 319.504235,124.910231 C318.499994,113.082265 325.691684,119.798604 325.691684,119.798604 C325.691684,119.798604 349.855736,137.148133 360.028638,137.358347 C370.231331,137.559958 376.030451,135.189078 381.018509,123.135794 C382.606711,119.386989 380.014268,119.20216 378.427765,119.596992 C376.807486,119.985153 351.055966,116.824357 335.281569,110.914675 C319.505914,105.004993 326.11358,101.842561 328.494949,101.247586 C331.296746,100.254485 346.262178,97.3055605 347.654579,96.3207883 C349.06389,95.3377994 353.063903,90.992445 350.861487,85.6624233 C348.658862,80.3324017 348.270744,80.9288455 344.479979,81.727111 C340.658795,82.5017536 328.900061,85.2675914 326.891495,86.8404156 C324.883013,88.4199532 322.098126,91.1858749 319.910816,91.3858084 C317.723505,91.5723151 314.516597,92.7804967 313.318255,89.8062708 C312.119913,86.8404156 311.925832,77.7783718 309.529169,77.7783718 C307.130806,77.7783718 302.921503,78.7529899 300.750976,82.8883197 C300.750976,82.8883197 303.130667,93.1518527 303.729838,95.9261661 C303.729838,95.9261661 303.940807,97.8938433 298.352613,100.658066 C292.766014,103.423987 284.764268,107.16608 282.578636,107.962457 C280.376011,108.745491 276.975253,112.696035 277.589529,115.848397 C278.173511,119.000758 283.971037,124.91044 287.372005,124.329102 L287.370662,124.327843 Z M675.699013,322.050121 L694.649478,326.550199 L679.861112,339.658536 L682.907528,351.276498 L704.33377,330.855168 L719.721308,327.106362 L716.853846,316.059669 L701.857784,320.179809 L673.235614,311.747776 L675.698174,322.049911 L675.699013,322.050121 Z M175.52958,169.194348 C177.553251,167.389639 181.700035,169.001128 182.154239,170.121888 C182.574498,171.234278 181.879115,172.943196 181.11792,173.314531 C180.355047,173.6943 178.559275,173.75814 177.327156,173.106206 C176.096757,172.460964 175.188728,169.508661 175.529664,169.19439 L175.52958,169.194348 Z M164.435053,171.274601 C165.892617,171.274601 169.585072,171.814001 170.103263,172.089587 C170.653489,172.355081 171.04337,174.862222 171.527763,175.677061 C172.015533,176.475221 172.921864,178.523543 174.282146,178.458088 C175.642491,178.402702 177.586818,178.143858 178.137107,178.740386 C178.687333,179.321788 181.181845,183.166406 182.412285,184.142787 C183.659573,185.110671 186.20305,184.514143 186.365011,183.013593 C186.526971,181.514721 185.716895,177.17608 187.109317,176.377814 C188.535495,175.564527 190.704344,174.927677 192.2757,174.660484 C193.847013,174.39499 194.54399,173.427106 194.268972,171.556794 C194.009058,169.686566 193.036895,169.194306 191.580254,169.355638 C190.105131,169.508577 188.6637,170.210925 188.162503,169.735385 C187.676411,169.243041 186.851082,167.969341 186.137154,166.735963 C185.456981,165.494194 183.98362,164.696033 182.736186,164.696033 C181.505787,164.696033 179.93439,164.591766 179.109061,163.25261 C178.298921,161.906656 177.91074,161.22275 177.748716,159.930525 C177.586755,158.65009 177.974873,156.132837 175.578189,156.084165 C173.213603,156.028569 170.881115,156.729407 170.10299,157.898923 C169.358683,159.085265 170.930018,160.898345 170.394981,161.970392 C169.843076,163.027333 169.034636,164.48582 167.949415,164.816874 C166.863501,165.122712 164.370122,165.447011 163.657453,165.275609 C163.657453,165.275609 161.519444,167.21979 161.66502,168.387691 C161.843135,169.574012 162.944867,171.274454 164.434928,171.274454 L164.435053,171.274601 Z M457.202321,110.516214 C458.240318,109.28955 459.306973,108.919872 460.782033,108.645986 C462.255478,108.380492 466.078278,107.147114 466.9206,104.727457 C467.713852,102.324479 467.713852,100.494657 466.468264,99.6561113 C465.219298,98.7941105 463.163592,97.1893557 464.085006,95.4719835 C465.008225,93.7546743 466.628546,93.7546743 471.438699,94.5040997 C471.438699,94.5040997 474.873443,94.6738229 474.696168,96.4381889 C474.549312,98.2042332 473.302046,110.144858 469.447126,112.33091 C466.581343,113.562609 460.247038,112.33091 460.247038,112.33091 C460.247038,112.33091 456.165919,111.749508 457.2023,110.51613 L457.202321,110.516214 Z M471.259976,84.264714 C473.270136,81.8955125 482.43821,85.0628746 485.837289,86.6188104 C489.239935,88.2168309 487.65167,89.384732 486.22717,89.384732 C484.866825,89.384732 483.634748,88.8134215 479.843983,88.4017431 C476.07189,88.0135826 471.455587,85.2493813 471.455587,85.2493813 C471.001573,84.8948297 471.25985,84.264693 471.25985,84.264693 L471.259976,84.264714 Z M492.965244,98.3108295 C494.259776,98.6889199 496.221034,100.236506 495.944106,101.842918 C495.685892,103.454386 492.965244,104.615553 491.506967,105.260669 C490.048711,105.905932 488.251177,106.226875 487.716202,107.235081 C487.165976,108.275217 487.490045,110.145341 488.754178,110.741994 C489.984577,111.314983 490.696827,113.144972 490.308646,114.418631 C489.952521,115.700744 486.890895,116.991332 484.411551,116.991332 C481.918781,116.991332 480.119589,115.39499 479.522097,114.369959 C478.938135,113.363431 480.364314,108.750841 481.044486,106.558076 C481.756736,104.356919 484.995533,97.8335905 484.995533,97.8335905 C486.615813,96.5934993 491.652081,97.9395364 492.965181,98.3108085 L492.965244,98.3108295 Z M430.350182,117.997881 C433.524992,118.982569 448.488745,119.78073 450.49899,119.78073 C452.490562,119.78073 468.669651,121.740015 469.270501,124.117797 C469.867973,126.488677 466.078908,128.456543 462.676262,128.068215 C459.293966,127.666607 453.898069,124.892356 446.709903,124.117797 C439.518171,123.319637 431.710485,124.117797 431.531741,127.270159 C431.320772,130.422521 435.322505,132.406961 437.120018,132.793401 C438.934399,133.188296 450.303252,131.020643 463.067317,137.726912 C463.067317,137.726912 460.476574,149.764881 461.285014,151.530926 C462.096853,153.303704 465.658166,153.303704 466.680911,152.135866 C467.668264,150.951223 469.271655,147.983627 470.258944,143.443479 C471.261486,138.921583 472.881787,140.299509 474.064814,140.694341 C475.264835,141.082501 479.264973,144.41965 487.848897,145.217915 C496.43303,145.999271 499.411893,147.393897 501.015347,143.645112 C502.618759,139.904698 497.435635,138.509989 495.832181,138.123548 C494.22879,137.726975 488.429606,136.928815 484.056454,134.971187 C479.651413,132.995097 475.651275,131.020769 475.651275,129.641165 C475.651275,128.254868 476.834407,126.883635 478.259012,127.068463 C479.651434,127.270075 490.650693,129.439343 497.629694,134.372855 C504.627157,139.308044 513.211291,142.258794 515.802035,142.073966 C518.392778,141.880746 523.381885,139.308044 524.580227,135.767564 C525.778549,132.205265 520.175187,129.044511 517.778502,127.868197 C515.413916,126.673485 513.599619,126.488635 510.814606,126.287002 C508.01281,126.085391 500.222117,123.917591 498.019491,122.731417 C495.832181,121.538382 495.023636,120.956981 495.832181,118.587569 C496.627132,116.225081 500.026379,117.997776 501.224721,117.997776 C502.423063,117.997776 505.015486,120.956918 508.207079,118.797615 C511.396994,116.611563 511.007197,114.250544 509.388533,112.87094 C507.802009,111.493056 507.006953,110.300126 506.620513,108.727092 C506.198576,107.147576 504.821342,103.993515 502.812755,102.995525 C502.812755,102.995525 507.217796,100.236317 507.412065,96.1010712 C507.412065,96.1010712 506.829783,95.1096696 503.817038,94.311488 C500.804399,93.5301319 500.222012,90.5693958 501.614413,90.9742978 C503.006836,91.3675144 511.590948,95.7061973 513.211186,93.7385411 C514.79771,91.7557378 515.995989,88.2169777 513.989269,86.6189782 C512.012865,85.0629795 507.217964,81.8954705 502.812714,81.1141983 C502.812714,81.1141983 504.011056,74.5977927 502.002595,73.4214788 C500.02619,72.2284443 499.023732,71.4302837 497.629443,73.0098003 C496.221831,74.5977297 494.616803,78.1382101 491.637731,78.5347205 C488.640197,78.9363288 484.657052,75.7755122 481.855256,75.3806802 C479.068774,74.9941981 475.861866,74.5976248 474.064352,73.4213739 C472.26686,72.2283394 473.060111,69.0759146 471.650884,68.4878625 C470.258462,67.8913348 467.667739,66.696601 465.075317,69.2608268 C462.482895,71.8419201 460.68706,70.4471479 459.083606,70.4471479 C457.495403,70.4471479 449.30113,69.0759775 447.518931,71.8418362 C445.704571,74.5976878 444.506292,77.3633996 447.307963,81.2989218 C447.307963,81.2989218 450.499556,82.0886906 452.312175,82.0886906 C454.094478,82.0886906 461.090367,82.0886906 459.697966,83.8782528 C458.305543,85.6442972 450.693615,84.8629411 450.693615,84.8629411 C450.693615,84.8629411 448.911312,86.6188943 450.303734,89.9896725 C451.697856,93.3369328 451.891958,92.7623076 454.094499,92.9488143 C456.297124,93.1336426 457.495466,93.3369748 455.503789,95.5045225 C453.512195,97.6721122 449.915511,96.3026831 447.908833,96.3026831 C445.898694,96.3026831 440.717101,95.3196942 439.71135,99.2534331 C438.723997,103.195459 441.721489,107.147765 443.696173,107.540918 C445.704634,107.944205 450.10978,105.961401 450.10978,107.147723 C450.10978,108.340778 450.693741,110.113578 447.519036,109.911966 C444.312338,109.70192 432.73067,106.759604 430.545038,106.557992 C428.342413,106.364772 424.553327,106.944453 423.743313,110.710231 C422.933173,114.450645 427.127287,117.014955 430.350979,117.997839 L430.350182,117.997881 Z M691.795233,354.645304 L684.021324,355.571187 L686.660949,386.320666 L694.839971,385.739265 L694.274556,375.437129 L727.086308,372.066372 L726.309945,361.392902 L693.107976,364.946809 L691.794877,354.644674 L691.795233,354.645304 Z M597.308295,606.355922 L589.500609,612.579875 L605.583402,633.122046 C611.284759,640.846655 606.069495,645.280857 600.498,644.797072 C597.777394,644.538459 595.81771,642.37731 595.81771,642.37731 L578.762732,622.238363 L570.988822,628.769874 L590.715734,652.407343 C594.050827,656.181534 596.44919,656.47042 600.174079,656.003838 C607.413014,655.116264 616.144003,649.183232 618.086484,641.863316 C620.160779,634.10514 613.681444,625.930315 613.681444,625.930315 L597.308295,606.355922 L597.308295,606.355922 Z M458.718501,677.337561 L447.332781,688.78601 L452.8384,694.589746 L459.657119,688.39957 L465.164416,716.520333 L474.848918,715.19838 L466.685002,675.853648 L458.718711,677.337226 L458.718501,677.337561 Z M385.802563,696.50852 C384.975556,698.493526 382.854121,700.461455 379.096924,699.427591 C371.743231,696.073408 376.391423,686.658701 381.120595,686.884019 C383.534063,686.979895 385.70459,688.754079 386.303761,692.976641 C386.335859,693.203659 386.612619,694.557857 385.802479,696.50852 L385.802563,696.50852 Z M391.990012,685.625046 C388.749537,682.029181 384.570444,681.271195 381.26745,681.078185 C373.525639,680.658094 368.536532,687.172695 368.40646,693.687423 C368.374362,695.946063 368.423244,698.139248 369.800561,700.106274 C372.747535,704.329424 375.954233,705.345455 378.56197,705.428114 C384.764524,705.587767 388.717459,699.07304 385.930768,707.523325 C384.474212,711.973052 382.043708,713.199716 378.627636,713.359369 C375.695977,713.52091 372.553266,713.101952 369.054534,711.264137 L368.342305,717.906 C368.310207,718.326091 380.587131,722.841399 389.284343,716.617509 C392.506357,714.312295 396.086069,706.347053 395.730048,698.33188 C395.583193,695.122035 396.11823,690.220832 391.989844,685.624879 L391.990012,685.625046 Z M423.637409,681.657845 L410.727537,691.590114 L415.667762,698.155192 L423.053553,692.526004 L424.932047,721.939097 L434.245214,721.196721 L432.154052,681.092535 L423.637472,681.657132 L423.637409,681.657845 Z M490.202888,685.786378 L493.993653,695.139196 L524.701174,684.092922 L521.300206,674.53115 L490.202469,685.786378 L490.202888,685.786378 Z M686.485981,404.851481 L727.641234,404.851481 L727.641234,393.628351 L686.664306,393.628351 L686.48703,404.851481 L686.485981,404.851481 Z M712.093414,411.996219 C709.339031,412.429737 705.322109,415.541735 704.05957,421.170922 C700.351464,437.520784 694.17933,432.746925 692.965673,426.458985 C691.861843,420.653361 694.32434,415.284737 694.32434,415.284737 L686.341056,414.978921 C685.919118,417.768339 685.174812,422.137086 685.206868,427.136263 C685.529238,430.812899 686.049065,436.504186 691.684672,440.745377 C695.345574,443.487802 707.070531,446.260227 710.213242,432.232784 C713.404835,418.074219 720.093482,421.476865 721.275041,427.361371 C722.328226,432.729995 720.385578,439.471719 720.385578,439.471719 L728.093612,440.261488 C728.643838,440.326944 728.82273,436.956186 728.449737,424.652828 C728.063234,411.300711 714.959156,411.527708 712.093372,411.996387 L712.093414,411.996219 Z M697.305048,467.352415 C695.573368,472.285926 695.377589,471.576823 695.377589,471.576823 L685.045033,468.99573 C685.045033,468.99573 685.951364,461.192239 690.164003,459.224583 C694.341207,457.290515 699.038281,462.434009 697.304964,467.352415 L697.305048,467.352415 Z M704.06964,457.458539 C704.078032,457.70555 704.050759,457.843343 703.993695,457.806377 C703.943134,457.766096 703.971876,457.634975 704.06964,457.458539 C704.025793,456.174768 702.935453,451.577389 699.102562,449.034898 C694.309193,445.85736 686.096394,446.164918 682.258426,455.773055 C678.74438,464.60999 677.529254,469.787072 677.109037,472.771389 C676.6871,475.671579 676.947076,476.510125 677.36895,476.622784 L716.982219,487.024152 L720.286891,476.526908 L704.479137,471.706056 C704.479137,471.706056 704.528019,467.577524 707.896888,465.448326 C709.080041,464.707293 710.958619,464.609843 713.129145,464.512373 C723.203444,464.127569 723.478694,464.191431 723.478694,464.191431 L725.794398,453.112849 C725.794398,453.112849 714.425461,453.774916 708.076052,455.144387 C705.632163,455.656892 704.400044,456.856661 704.069199,457.458203 L704.06964,457.458539 Z M656.505186,526.852039 L680.054542,550.47692 L647.792449,543.898416 L642.31725,553.652779 L684.783714,561.15039 L691.619216,549.3476 L661.832691,517.112781 L656.504347,526.852039 L656.505186,526.852039 Z M699.005217,514.306578 L690.097162,510.357839 L696.152861,494.989393 L689.351135,492.376411 L683.067391,507.921294 L674.905153,504.552215 L680.994628,488.637676 L674.353185,485.638254 L663.924335,512.244305 L702.404716,527.239738 L713.030983,499.859547 L706.197159,497.053345 L699.005427,514.305529 L699.005217,514.306578 Z M633.199192,566.035439 L666.755712,589.802981 L673.024142,581.192833 L639.450837,557.391724 L633.199192,566.033761 L633.199192,566.035439 Z M622.20159,580.45289 L645.32926,601.059048 L612.15876,591.31979 L602.845593,601.638708 L633.94333,628.98743 L640.37372,621.667724 L617.243952,601.253107 L650.269695,610.799145 L659.000684,600.705336 L628.647715,572.95381 L622.20201,580.4531 L622.20159,580.45289 Z M107.374493,374.196933 C112.120658,360.44327 118.388038,364.59551 118.906859,370.568969 C119.359866,376.020042 116.639617,382.494488 116.639617,382.494488 L124.251776,384.163063 C124.770785,384.275722 125.352899,380.945245 126.324727,368.698741 C127.426334,355.363407 114.371725,354.130029 111.488528,354.274577 C108.687361,354.395628 104.363091,357.032107 102.483968,362.466186 C96.9768804,378.316948 91.3405598,372.875946 90.8546773,366.497374 C90.4018373,360.612868 93.4624144,355.573411 93.4624144,355.573411 L85.5429077,354.348445 C84.8460146,357.063807 83.5992519,361.345489 83.0811871,366.304175 C82.9999969,369.989204 82.8864984,375.697274 88.0369366,380.558616 C91.3405598,383.694194 102.695021,387.750558 107.374472,374.196828 L107.374493,374.196933 Z M122.313281,500.696939 L115.899674,502.938586 L118.085935,508.952535 L109.129418,512.355181 C109.129418,512.355181 106.424966,508.678545 106.100415,503.776922 C105.954818,501.906694 106.343125,500.164273 107.315457,497.809966 C110.813768,489.490593 121.891931,487.410277 129.633323,492.070008 C137.423387,497.100863 136.29071,510.612634 136.500504,510.582424 L144.242525,509.323849 C144.242525,509.323849 143.109344,497.810155 139.319713,491.278644 C134.233891,482.523948 127.2037,478.749968 120.337359,478.654092 C116.595896,478.60542 112.401278,479.879057 108.48191,481.55596 C105.954734,482.636419 104.075821,484.409156 101.161155,487.830473 C100.739721,488.329531 93.5160587,496.810278 101.063391,513.194545 C105.387871,522.547363 106.81321,523.547241 106.81321,523.547241 L128.887715,515.421087 L122.312567,500.697757 L122.313281,500.696939 Z M128.565136,453.031784 L97.4694972,458.466074 L126.492374,438.599229 L124.580963,425.312777 L83.8306126,431.666173 L85.1590689,440.857659 L115.50994,436.35926 L87.0535071,455.288327 L88.9475466,468.786461 L129.907691,462.964053 L128.563353,453.031575 L128.565136,453.031784 Z M124.029814,399.632965 L82.8745612,399.448136 L82.6642638,410.686371 L123.834202,410.864486 L124.028051,399.632965 L124.029814,399.632965 Z M197.724087,591.850253 L191.374677,583.981097 L173.398075,598.655545 C162.431523,607.620245 155.12797,596.639133 158.918105,591.752699 C164.667715,584.369216 174.660404,579.272695 181.915703,572.759646 L175.79413,564.162925 C175.79413,564.162925 154.577681,581.174685 153.847599,582.304006 C153.08674,583.40129 144.179041,589.301049 150.754189,601.525525 C158.754676,616.262281 172.165746,611.279888 177.460942,607.539474 C182.725088,603.782277 197.722828,591.850044 197.722828,591.850044 L197.724087,591.850253 Z M162.707401,543.379491 L149.264443,550.667098 L142.624259,539.993628 L156.261696,531.366697 L151.142727,521.998774 L115.511346,542.445279 L120.628636,551.603198 L135.594488,543.734042 L141.652075,555.167176 L127.253086,563.405988 L132.193311,573.16203 L167.646367,552.53741 L162.706352,543.379491 L162.707401,543.379491 Z M203.682231,631.98381 L196.490499,624.872639 L210.323674,617.196703 L203.682231,631.98381 L203.682231,631.98381 Z M172.779602,625.823634 L180.359453,632.934806 L188.71575,628.629836 L200.280425,639.674851 L196.297279,647.930448 L204.621478,655.801073 L221.885831,615.32765 L212.395388,605.942943 L172.780022,625.824893 L172.779602,625.823634 Z M328.285176,681.384505 L332.641335,688.70589 L340.04391,685.513247 L333.952756,714.569691 L343.638937,716.439751 L351.996912,677.839787 L343.832996,675.967692 L328.285176,681.385407 L328.285176,681.384505 Z M277.817176,681.190865 L308.558264,693.381984 L312.153291,683.447408 L281.640878,671.645037 L277.818016,681.190865 L277.817176,681.190865 Z M801.168826,420.689886 C797.121484,427.673503 780.618263,432.961565 777.896398,433.833468 C775.175792,434.702204 771.708949,437.217653 771.708949,437.217653 C770.08869,432.156377 770.915698,426.96419 771.612654,420.254564 C772.292847,413.514728 789.25002,404.677793 794.075277,402.325165 C798.934522,399.96939 803.049208,395.986874 803.049208,395.986874 C806.466959,403.452597 805.266938,413.643961 801.169015,420.690096 L801.168826,420.689886 Z M798.432905,454.875788 C793.637857,461.536742 776.438121,465.453592 773.555554,466.100596 C770.704876,466.759307 766.866908,469.051346 766.866908,469.051346 C765.813722,463.712933 767.271978,458.473542 768.777479,451.732028 C770.267791,444.992192 788.293339,437.783466 793.331747,435.929938 C798.368057,434.074836 802.838973,430.559636 802.838973,430.559636 C805.431396,438.220257 803.195098,448.216723 798.433933,454.876837 L798.432905,454.875788 Z M792.974699,488.608536 C787.759435,494.946826 770.350534,497.800022 767.4344,498.267233 C764.517846,498.751164 760.5668,500.782661 760.5668,500.782661 C759.837682,495.397254 761.652042,490.268634 763.562655,483.626352 C765.491793,476.998965 783.937621,470.921239 789.105052,469.371911 C794.222343,467.824304 798.904311,464.614837 798.904311,464.614837 C800.992096,472.435111 798.158306,482.256818 792.975119,488.608955 L792.974699,488.608536 Z M783.985454,521.747566 C778.13892,527.487735 760.484351,528.453836 757.555629,528.647056 C754.605299,528.793282 750.444877,530.404708 750.444877,530.404708 C750.33012,524.988881 752.662608,520.053691 755.304122,513.668407 C757.942069,507.283122 776.959039,503.203262 782.237452,502.236951 C787.516913,501.23548 792.521125,498.541853 792.521125,498.541853 C793.753202,506.523459 789.849401,516.00572 783.986083,521.747147 L783.985454,521.747566 Z M771.902589,554.850932 C765.667936,560.189346 747.996584,559.945775 745.04898,559.932348 C742.100328,559.865214 737.82536,561.20437 737.82536,561.20437 C738.100463,555.786865 740.789117,551.02979 743.850638,544.837725 C746.927474,538.647339 766.185288,535.873026 771.514051,535.243015 C776.859177,534.614557 782.040665,532.260376 782.040665,532.260376 C782.68876,540.324431 778.155284,549.482351 771.902169,554.850974 L771.902589,554.850932 Z M757.537796,585.923494 C750.800058,590.665464 733.258358,588.729696 730.327539,588.438922 C727.39588,588.099497 723.024406,589.003519 723.024406,589.003519 C723.799112,583.633217 726.926571,579.168385 730.587473,573.298984 C734.26348,567.412799 753.683674,566.510475 759.075375,566.379354 C764.452601,566.283478 769.830036,564.413334 769.830036,564.413334 C769.732062,572.507599 764.275535,581.21677 757.537796,585.923494 Z M740.644779,616.108628 C733.615218,620.398492 716.189114,617.382349 713.306547,616.883271 C710.406987,616.382535 705.984953,617.011035 705.984953,617.011035 C707.11914,611.691084 710.535171,607.433109 714.569086,601.805599 C718.586008,596.17809 738.055504,596.483969 743.415736,596.693973 C748.808276,596.919145 754.283475,595.405147 754.283475,595.405147 C753.635359,603.467523 747.675809,611.80368 740.646248,616.108649 L740.644779,616.108628 Z M720.399676,644.651077 C712.980108,648.213166 695.973382,643.441049 693.157949,642.649623 C690.324054,641.859854 685.853138,642.037969 685.853138,642.037969 C687.520684,636.862565 691.360436,632.974247 695.959536,627.78185 C700.54353,622.591341 719.863443,624.864877 725.194304,625.622652 C730.505863,626.395595 736.143023,625.46132 736.143023,625.46132 C734.669578,633.394254 727.850923,641.102079 720.400935,644.651161 L720.399676,644.651077 Z M698.63147,671.288597 C690.923435,674.238928 674.368815,668.063647 671.631006,667.031881 C668.862986,666.015786 664.39207,665.805741 664.39207,665.805741 C666.530499,660.791669 670.677493,657.227272 675.69681,652.454882 C680.718015,647.649345 699.764356,651.551027 705.013398,652.745572 C710.259082,653.969048 715.92834,653.486606 715.92834,653.486606 C713.79159,661.291775 706.339924,668.386582 698.630211,671.288451 L698.63147,671.288597 Z M674.224057,695.477824 C666.272872,697.702268 650.383088,690.075843 647.727099,688.816661 C645.087473,687.543296 640.648445,686.931642 640.648445,686.931642 C643.207091,682.124217 647.695,678.963044 653.121107,674.643389 C658.560851,670.321007 677.186556,675.899614 682.305525,677.576726 C687.406032,679.253713 693.090395,679.287154 693.090395,679.287154 C690.241395,686.833857 682.173774,693.25124 674.222589,695.477572 L674.224057,695.477824 Z M647.435485,718.083108 C639.322339,719.566518 624.194526,710.536614 621.685392,709.021064 C619.141852,707.536982 614.79933,706.538574 614.79933,706.538574 C617.779871,701.991922 622.541141,699.233133 628.357255,695.443628 C634.171691,691.60566 652.198224,698.861379 657.136771,700.990157 C662.027904,703.117466 667.72926,703.668804 667.72926,703.668804 C664.181647,710.956622 655.55031,716.598816 647.435275,718.082898 L647.435485,718.083108 Z M619.140593,737.593513 C610.878913,738.431681 596.757691,728.193281 594.376532,726.499826 C592.027051,724.790573 587.785649,723.45278 587.785649,723.45278 C591.218715,719.148231 596.255025,716.792666 602.425481,713.47184 C608.628035,710.132761 625.844765,718.82389 630.544146,721.339317 C635.239541,723.854745 640.842924,724.871406 640.842924,724.871406 C636.567746,731.853344 627.399756,736.788744 619.141852,737.593513 L619.140593,737.593513 Z M589.404418,754.993602 C581.110639,754.913041 568.122934,743.269904 565.953666,741.335605 C563.800132,739.400005 559.73244,737.609877 559.73244,737.609877 C563.621178,733.708341 568.870219,731.886911 575.379911,729.240362 C581.889813,726.565491 598.087994,736.998957 602.474783,739.99775 C606.86304,743.012697 612.338239,744.609018 612.338239,744.609018 C607.334027,751.075073 597.681413,755.008707 589.403579,754.993602 L589.404418,754.993602 Z M558.080104,769.908054 C549.917866,769.264805 537.899198,756.6537 535.890212,754.55849 C533.898618,752.461244 529.994796,750.397649 529.994796,750.397649 C534.075915,746.784999 539.388943,745.366374 545.964721,743.17214 C552.557282,741.028257 567.814746,752.622093 571.960272,755.944807 C576.107057,759.281788 581.371413,761.266017 581.371413,761.266017 C576.026286,767.360528 566.24381,770.585268 558.080104,769.907844 L558.080104,769.908054 Z M525.752975,781.793293 C517.555491,780.4542 506.591457,766.942618 504.77716,764.700972 C502.94759,762.425338 499.205875,760.039353 499.205875,760.039353 C503.660008,756.799927 509.135207,755.814735 516.001129,754.203309 C522.836631,752.590666 537.169325,765.393501 541.042119,769.054613 C544.895402,772.682577 550.046469,775.117025 550.046469,775.117025 C544.086856,780.744954 533.931577,783.130939 525.754443,781.793293 L525.752975,781.793293 Z M492.225825,791.161216 C484.240863,788.966773 474.831401,774.325473 473.277038,771.908018 C471.688815,769.456368 468.255833,766.683733 468.255833,766.683733 C473.032209,763.942567 478.588388,763.554868 485.586061,762.684224 C492.549957,761.81381 505.410737,776.100118 508.843803,780.145992 C512.293653,784.193964 517.135904,787.129818 517.135904,787.129818 C510.560336,792.096687 500.193794,793.38587 492.224986,791.160797 L492.225825,791.161216 Z M458.279088,797.595173 C450.505178,794.70841 442.454341,779.324649 441.110821,776.762018 C439.765665,774.181134 436.575708,771.13283 436.575708,771.13283 C441.612019,768.811252 447.168198,768.893281 454.196291,768.649711 C461.225852,768.375321 472.756959,783.743956 475.834425,788.06424 C478.880841,792.385993 483.448052,795.755072 483.448052,795.755072 C476.482478,800.110811 466.021739,800.481726 458.279088,797.594942 L458.279088,797.595173 Z M423.554016,800.673688 C416.070461,797.128592 409.430696,781.082512 408.32844,778.422956 C407.195931,775.746196 404.296412,772.408587 404.296412,772.408587 C409.511677,770.538505 415.067856,771.10176 422.063641,771.489585 C429.091524,771.844136 439.198131,788.145325 441.856219,792.724915 C444.543258,797.303874 448.755918,801.061701 448.755918,801.061701 C441.434323,804.801696 431.003794,804.254343 423.553387,800.673121 L423.554016,800.673688 Z M388.862511,800.690471 C381.736654,796.513266 376.487613,779.969765 375.628507,777.212445 C374.754234,774.470021 372.163553,770.890728 372.163553,770.890728 C377.508679,769.455885 382.967095,770.504078 389.962879,771.472298 C396.928454,772.42472 405.544476,789.515615 407.811298,794.304159 C410.079589,799.093122 413.96497,803.204661 413.96497,803.204661 C406.320923,806.285064 395.988368,804.864676 388.86314,800.689443 L388.862511,800.690471 Z M354.638846,797.915948 C347.884324,793.128873 344.127337,776.229561 343.496067,773.391051 C342.864839,770.584849 340.564408,766.812756 340.564408,766.812756 C346.039607,765.844705 351.383056,767.360213 358.250656,768.892862 C365.118257,770.440616 372.244113,788.210257 374.073725,793.159712 C375.904974,798.126581 379.435845,802.544209 379.435845,802.544209 C371.563962,804.981384 361.376584,802.690645 354.638217,797.916577 L354.638846,797.915948 Z M320.8033,791.823326 C314.455568,786.580159 311.96091,769.440424 311.508594,766.58513 C311.086636,763.71536 309.093448,759.781516 309.093448,759.781516 C314.617529,759.216416 319.832793,761.102273 326.570532,763.133812 C333.291276,765.166546 339.073613,783.420664 340.563989,788.483198 C342.022245,793.545943 345.197075,798.222666 345.197075,798.222666 C337.178336,800.092706 327.186696,797.061542 320.804349,791.822277 L320.8033,791.823326 Z M287.018104,782.90583 C281.220661,777.036428 280.442536,759.71732 280.312464,756.864124 C280.18428,753.977361 278.595994,749.848618 278.595994,749.848618 C284.152173,749.833933 289.156385,752.219708 295.634189,754.913461 C302.145769,757.622318 306.049613,776.327115 307.004804,781.519512 C307.943211,786.71149 310.665706,791.677099 310.665706,791.677099 C302.469901,792.725313 292.847707,788.741664 287.017747,782.90583 L287.018104,782.90583 Z M250.316774,744.848812 C250.414748,741.963308 249.15053,737.722536 249.15053,737.722536 C254.689926,738.157753 259.484763,740.930283 265.736409,744.141388 C271.988055,747.317666 274.38453,766.264145 274.902721,771.553047 C275.437737,776.793067 277.736616,781.937841 277.736616,781.937841 C269.493397,782.357932 260.214007,777.616089 254.883775,771.32668 C249.572425,765.03874 250.203695,747.718792 250.316774,744.848812 Z M218.344196,714.311225 C218.344196,714.311225 208.433537,700.458959 192.138851,697.459117 C192.138851,697.459117 186.324416,684.802676 167.003454,677.770807 C167.003454,677.770807 163.01863,664.033927 144.393975,656.648765 C144.393975,656.648765 142.482711,644.584992 123.257248,632.266528 C123.257248,632.266528 121.070987,619.013643 104.534828,607.080781 C104.534828,607.080781 103.222065,591.924017 88.2252475,580.346755 C88.2252475,580.346755 89.0671081,567.463527 74.1986429,551.336466 C74.1986429,551.336466 74.4583886,533.906167 62.8615949,521.956941 C62.8615949,521.956941 64.1900513,503.590751 53.9216511,491.998384 C53.9216511,491.998384 57.1766021,476.243498 47.8640645,462.278992 C45.6937475,458.698231 49.1918496,456.764142 49.0627215,452.007067 C48.9651673,447.218104 47.151311,435.415314 44.1390704,429.319964 C44.1390704,429.319964 51.0062514,417.034858 43.2806571,398.150897 C43.2806571,398.150897 50.4069334,387.420154 45.4669184,366.176222 C45.4669184,366.176222 53.4350973,355.774855 50.1644117,334.765892 C50.1644117,334.765892 58.391686,328.194101 57.5332097,304.563975 C57.5332097,304.563975 66.5872813,298.824016 67.6882793,274.716609 C67.6882793,274.716609 78.7985401,267.081163 80.3539514,245.697928 C80.3539514,245.697928 91.1249756,241.634851 95.3516916,218.238016 C95.3516916,218.238016 107.56295,212.634004 112.876189,192.680933 C112.876189,192.680933 119.143359,188.392748 122.771953,183.965049 C126.415232,179.555813 131.112726,172.510097 132.910659,167.252245 C132.910659,167.252245 141.138562,163.800717 146.207181,156.997104 C151.293002,150.191602 154.305851,143.976041 154.305851,143.976041 C154.305851,143.976041 168.315043,141.106061 178.599975,122.84351 C178.599975,122.84351 192.139439,121.89243 203.848661,104.347877 C203.848661,104.347877 217.113084,103.267397 230.651918,88.3458541 C230.651918,88.3458541 245.391402,88.5794175 258.930027,74.1386169 C258.930027,74.1386169 273.409576,76.3970474 288.408156,62.6735948 C288.408156,62.6735948 301.574606,66.1335144 318.838748,53.8534432 C318.838748,53.8534432 330.808534,58.731569 349.531583,47.9924334 C349.531583,47.9924334 360.902198,52.9997922 381.309052,44.1712489 C381.309052,44.1712489 390.848377,51.0959133 413.086522,43.704122 C413.086522,43.704122 425.783663,50.7414457 444.117125,45.7104432 C444.117125,45.7104432 453.804983,53.3626726 475.183393,50.4994066 C475.183393,50.4994066 484.594533,60.1664958 506.344068,57.8845684 C506.344068,57.8845684 512.14151,67.2054978 536.30682,67.8019416 C536.30682,67.8019416 540.90592,77.3563715 564.82829,80.3474019 C564.82829,80.3474019 570.254607,91.0949293 592.846253,95.5125576 C592.846253,95.5125576 597.673399,106.372744 618.808238,112.588306 C618.808238,112.588306 622.437042,123.681993 642.861099,132.157663 C642.861099,132.157663 648.285738,145.758386 665.699253,153.659431 C665.699253,153.659431 667.15581,164.986618 686.833882,177.523477 C686.833882,177.523477 688.162171,189.827045 705.55819,203.08056 C705.55819,203.08056 707.144714,217.995222 721.884135,229.692905 C721.884135,229.692905 722.481607,245.583947 735.877592,257.994091 C735.877592,257.994091 734.451414,272.917354 747.246529,287.356833 C747.246529,287.356833 746.048207,305.867571 756.186682,317.567142 C756.186682,317.567142 752.557879,331.887039 762.244059,348.608235 C762.244059,348.608235 757.498103,362.580293 765.871184,379.655622 C765.871184,379.655622 759.685414,393.619288 766.683024,411.422601 C766.683024,411.422601 759.813745,419.888201 764.269555,443.640637 C764.269555,443.640637 756.900758,452.605336 759.685561,473.746049 C759.685561,473.746049 751.101427,484.952396 752.333546,503.819993 C752.333546,503.819993 743.018701,514.332341 742.421208,534.393245 C742.421208,534.393245 731.423607,542.504294 729.592316,563.290245 C729.592316,563.290245 719.45382,569.608396 714.368418,590.974637 C714.368418,590.974637 701.816454,599.682129 697.475401,616.869488 C697.475401,616.869488 683.578239,624.157095 677.296173,642.541957 C677.296173,642.541957 665.34338,646.136564 656.029374,664.276596 C656.029374,664.276596 656.029374,664.64812 650.717814,667.259234 C645.404576,669.870958 637.306745,677.771793 631.995185,685.642627 C631.995185,685.642627 630.310771,686.254449 624.86765,688.512397 C619.427906,690.786142 611.686095,696.993522 606.616008,704.879251 C606.616008,704.879251 591.390431,706.184882 579.437219,721.341562 C579.437219,721.341562 566.62532,720.148339 551.305966,735.192569 C551.305966,735.192569 536.794318,733.776021 521.586575,747.014031 C521.586575,747.014031 507.900255,743.530615 491.980471,755.849078 C491.980471,755.849078 477.468824,752.044677 460.689724,762.315133 C460.689724,762.315133 447.990904,756.817277 429.155616,765.749878 C429.155616,765.749878 416.716731,759.557603 397.734796,766.477317 C397.734796,766.477317 385.780115,759.188031 366.19859,764.556675 C366.19859,764.556675 356.789128,756.687939 335.054698,760.155621 C335.054698,760.155621 327.312887,751.206656 304.217105,752.495 C304.217105,752.495 295.293735,741.885097 274.254353,742.481751 C274.254353,742.481751 266.060226,731.260719 246.364363,729.694608 C246.364363,729.694608 236.938117,717.165511 218.344301,714.312106 L218.344196,714.311225 Z M223.333303,756.846921 C218.668328,750.074986 221.017599,732.886369 221.405864,730.047859 C221.810913,727.178089 220.985605,722.856546 220.985605,722.856546 C226.443811,723.824094 230.945147,727.049066 236.840563,730.838152 C242.752973,734.610455 243.25417,753.718265 243.25417,758.990384 C243.25417,764.263132 245.004396,769.633644 245.004396,769.633644 C236.776492,769.230693 227.998299,763.618016 223.332695,756.846081 L223.333303,756.846921 Z M193.435587,739.463825 C189.320691,732.354332 193.013649,715.438237 193.629646,712.599727 C194.245705,709.778629 193.791607,705.409673 193.791607,705.409673 C199.136734,706.779669 203.380023,710.343184 208.966413,714.599901 C214.554691,718.824309 213.533624,737.884916 213.098092,743.171721 C212.676155,748.429363 214.004444,753.878758 214.004444,753.878758 C205.808638,752.880957 197.531643,746.592828 193.435419,739.463195 L193.435587,739.463825 Z M184.687814,736.079431 C176.606766,734.402276 168.84964,727.467605 165.334544,720.065449 C161.820498,712.633923 166.906215,696.054547 167.748222,693.283171 C168.590775,690.542215 168.460137,686.122698 168.460137,686.122698 C173.708758,687.929736 177.627916,691.832657 182.859964,696.492387 C188.07355,701.154006 185.482807,720.083701 184.655778,725.309665 C183.781505,730.531853 184.687877,736.08048 184.687877,736.08048 L184.687814,736.079431 Z M157.446087,704.102658 C156.248102,709.343937 156.749886,715.051797 156.749886,715.051797 C149.039964,713.020258 142.059494,705.635201 139.240914,698.023253 C136.455482,690.478857 142.513068,674.352216 143.517771,671.692031 C144.506131,669.030377 144.715757,664.77429 144.715757,664.77429 C149.509335,666.694931 152.94366,670.628586 157.608216,675.385451 C162.272562,680.125952 158.596408,698.878162 157.446045,704.102028 L157.446087,704.102658 Z M132.050546,681.593879 C130.381846,686.688722 130.317188,692.413786 130.317188,692.413786 C122.851465,689.67262 116.599399,681.67465 114.510063,673.838641 C112.485406,666.06578 120.064564,650.568311 121.312627,648.006729 C122.559222,645.457944 123.190974,641.233536 123.190974,641.233536 C127.77434,643.587632 130.819497,647.81246 134.997541,652.987444 C139.193207,658.196624 133.718533,676.499037 132.050567,681.594928 L132.050546,681.593879 Z M106.054994,667.791334 C98.8798362,664.307918 93.4705125,655.744764 92.1916094,647.746584 C90.91193,639.81512 99.998247,625.141301 101.503937,622.722378 C103.010446,620.302616 104.030274,616.174084 104.030274,616.174084 C108.371118,618.948397 110.995009,623.46337 114.623184,629.010318 C118.283456,634.572372 110.995009,652.263865 108.85763,657.181432 C106.686474,662.098579 106.054785,667.791125 106.054785,667.791125 L106.054994,667.791334 Z M88.0450346,629.946628 C85.4698155,634.68692 84.4004965,640.329534 84.4004965,640.329534 C77.5333155,636.300024 72.803514,627.365535 72.1563001,619.270431 C71.5088764,611.272042 81.7449264,597.340683 83.4295707,595.051833 C85.1298447,592.761514 86.4734692,588.698437 86.4734692,588.698437 C90.5875259,591.825624 92.8224594,596.535495 96.0134233,602.322657 C99.2201217,608.175275 90.5875259,625.238436 88.0452444,629.946209 L88.0450346,629.946628 Z M69.7596155,601.049628 C66.8271176,605.564811 65.2889094,611.096444 65.2889094,611.096444 C58.7460697,606.53259 54.7935542,597.228444 54.8101279,589.118444 C54.8269114,581.121733 66.1473856,568.025774 68.026299,565.898465 C69.8887646,563.739267 71.5730733,559.803955 71.5730733,559.803955 C75.4116707,563.223384 77.2582759,568.093118 79.9625181,574.123851 C82.6839635,580.201578 72.6740712,596.552908 69.7594057,601.050887 L69.7596155,601.049628 Z M48.7361774,580.798022 C42.6785908,575.637723 39.6332238,566.027698 40.411349,557.966161 C41.1885722,549.967772 53.7408088,538.00365 55.7978372,536.036413 C57.8547397,534.068715 59.9118939,530.326665 59.9118939,530.326665 C63.409996,534.102324 64.8023975,539.116606 66.8917341,545.372448 C69.0140083,551.675493 57.4982161,567.010582 54.1614454,571.219046 C50.8097795,575.445132 48.7361774,580.798651 48.7361774,580.798651 L48.7361774,580.798022 Z M34.4504774,548.90097 C28.8794027,543.258356 26.6444692,533.438327 28.1014872,525.456511 C29.5756034,517.538683 43.0673387,506.687098 45.302482,504.897557 C47.5044779,503.106316 49.901582,499.527255 49.901582,499.527255 C53.0596083,503.607115 54.0156387,508.701958 55.5542666,515.120809 C57.1412938,521.585186 44.3628155,535.888299 40.6702346,539.807247 C36.9774439,543.74256 34.4504774,548.90139 34.4504774,548.90139 L34.4504774,548.90097 Z M19.2614052,492.235661 C21.4799748,484.497626 35.9916228,474.966693 38.3572578,473.387155 C40.7537326,471.822744 43.4430795,468.485532 43.4430795,468.485532 C46.1962037,472.854489 46.6663516,478.016465 47.5886052,484.529514 C48.5440692,491.123124 34.43768,504.152579 30.3876104,507.701241 C26.3073305,511.265218 23.2936423,516.166841 23.2936423,516.166841 C18.3053748,510.038554 17.0101078,500.008522 19.2614052,492.235661 L19.2614052,492.235661 Z M13.2850088,458.53648 C16.0387625,450.958098 31.1325882,442.379839 33.6108826,440.959955 C36.0891769,439.573679 39.0051011,436.412883 39.0051011,436.412883 C41.4661923,440.928066 41.5637465,446.120253 42.0819372,452.698758 C42.583722,459.310829 27.6506403,471.404394 23.3752521,474.693541 C19.0832903,478.000521 15.7467295,482.69193 15.7467295,482.69193 C11.1627346,476.242868 10.5639831,466.163954 13.2850088,458.536271 L13.2850088,458.53648 Z M10.0940449,448.506448 C6.15873255,441.637169 6.57999853,431.560143 10.0793594,424.222814 C13.5445238,416.967095 29.4334681,409.918023 32.0573594,408.741709 C34.6806212,407.59571 37.903264,404.742409 37.903264,404.742409 C39.8798154,409.4827 39.4585495,414.644677 39.2963579,421.253602 C39.1348166,427.897772 23.0520228,438.443688 18.4678182,441.298562 C13.8521445,444.151758 10.0941079,448.505609 10.0941079,448.505609 L10.0940449,448.506448 Z M9.85076802,389.690752 C13.9008376,382.725807 30.3237072,377.000744 33.0434742,376.049748 C35.7326113,375.113795 39.1828804,372.534443 39.1828804,372.534443 C40.7531871,377.412569 39.9278582,382.524195 39.2143495,389.094308 C38.4858824,395.681205 21.5769835,404.90479 16.7831948,407.388329 C11.9564685,409.871868 7.8266773,413.887951 7.8266773,413.887951 C4.47417214,406.711114 5.73803302,396.721572 9.8506841,389.690332 L9.85076802,389.690752 Z M12.9124989,355.055891 C17.528802,348.435218 34.3555247,343.985701 37.1248031,343.244709 C39.8951304,342.518802 43.5384098,340.228504 43.5384098,340.228504 C44.7212063,345.203974 43.4737933,350.243431 42.24287,356.724591 C41.0126391,363.262815 23.4235257,371.148755 18.435468,373.229071 C13.4302071,375.316078 8.97586487,379.017911 8.97586487,379.017911 C6.22274065,371.615966 8.26317431,361.715376 12.9118066,355.055262 L12.9124989,355.055891 Z M18.1762257,321.224541 C23.2935165,314.985482 40.4290556,311.865009 43.2486845,311.340734 C46.0664252,310.824872 49.8725046,308.816915 49.8725046,308.816915 C50.6662595,313.871477 49.0140913,318.806667 47.2972855,325.175168 C45.5323531,331.592341 27.3761041,338.083572 22.2248268,339.769055 C17.075018,341.46956 12.3777345,344.823617 12.3777345,344.823617 C10.2080469,337.228452 13.0099901,327.514369 18.1762257,321.223911 L18.1762257,321.224541 Z M27.5863175,287.177103 C33.4494252,281.621972 50.8272763,280.638878 53.7119412,280.469155 C56.5613608,280.316215 60.578283,278.783776 60.578283,278.783776 C60.7404536,283.903795 58.4889673,288.5887 55.9626093,294.698316 C53.4196984,300.8501 34.5678361,305.035906 29.2558567,306.074175 C23.926884,307.131117 18.8253278,309.873541 18.8253278,309.873541 C17.6589162,302.059981 21.6590129,292.796115 27.5873665,287.178047 L27.5863175,287.177103 Z M39.263651,255.338793 C45.4991428,250.180173 62.9095118,250.339826 65.7941768,250.371715 C68.6599603,250.405282 72.7912201,249.140036 72.7912201,249.140036 C72.595902,254.258376 70.004319,258.78195 67.0730799,264.716808 C64.1254768,270.682085 45.0468273,273.624233 39.6530283,274.318231 C34.2758031,275.003795 28.9955026,277.389822 28.9955026,277.389822 C28.3475544,269.53766 32.9803263,260.547575 39.2640706,255.338395 L39.263651,255.338793 Z M53.4192788,223.823566 C60.1406531,219.2916 77.4553562,221.187088 80.2896706,221.476183 C83.1562933,221.792091 87.3670649,220.945195 87.3670649,220.945195 C86.6873959,226.016541 83.6585397,230.264446 80.1275,235.883564 C76.580516,241.536248 57.3061288,242.584798 51.8976443,242.737738 C46.4566417,242.890677 40.965918,244.769276 40.965918,244.769276 C41.1117247,236.868231 46.6339175,228.370742 53.4205376,223.823671 L53.4192788,223.823566 Z M70.7488773,193.741231 C77.8111665,189.741932 94.9129288,192.894336 97.7493412,193.427002 C100.583656,193.942864 104.843309,193.412317 104.843309,193.412317 C103.757375,198.417997 100.420856,202.449185 96.4695989,207.769137 C92.532818,213.131047 73.2118567,212.736215 67.8012742,212.502715 C62.3753768,212.245612 56.7547907,213.704162 56.7547907,213.704162 C57.4997685,205.843397 63.6542799,197.781231 70.7482479,193.741651 L70.7488773,193.741231 Z M90.4768386,165.563824 C97.8292727,162.161178 114.624107,166.748467 117.393385,167.497892 C120.147348,168.247339 124.454415,168.09442 124.454415,168.09442 C122.932697,172.989329 119.304607,176.714638 114.899356,181.68843 C110.493896,186.710894 91.2849644,184.696244 85.9079489,184.002246 C80.5149892,183.316661 74.7983175,184.276132 74.7983175,184.276132 C76.2231532,176.50453 83.0249623,168.998317 90.476419,165.563782 L90.4768386,165.563824 Z M112.696102,138.731195 C120.309099,135.965274 136.650359,141.996007 139.323132,142.972387 C142.011011,143.955397 146.351645,144.172156 146.351645,144.172156 C144.392296,148.922517 140.423921,152.30838 135.598033,156.895731 C130.771517,161.523363 111.8221,157.846789 106.54159,156.710903 C101.229821,155.532973 95.4313294,156.008513 95.4313294,156.008513 C97.5372397,148.389851 104.987857,141.505467 112.696102,138.731153 L112.696102,138.731195 Z M136.698612,114.309097 C144.569866,112.302755 160.247968,119.808842 162.838921,121.04222 C165.413511,122.290724 169.673584,122.895664 169.673584,122.895664 C167.27648,127.444414 163.000462,130.435444 157.769044,134.553907 C152.505107,138.699433 133.993111,133.280207 128.825889,131.643647 C123.675661,129.975073 117.861225,129.911212 117.861225,129.911212 C120.663231,122.52605 128.760643,116.357482 136.697353,114.309265 L136.698612,114.309097 Z M163.487184,91.8233963 C171.520189,90.4942476 186.419746,99.3799597 188.882725,100.830055 C191.345285,102.290282 195.539273,103.281705 195.539273,103.281705 C192.737477,107.603458 188.202364,110.20637 182.631079,113.851117 C177.027696,117.495865 159.06494,110.465255 154.092827,108.368156 C149.072251,106.240847 143.305439,105.6679 143.305439,105.6679 C146.772072,98.5651206 155.388304,93.1476149 163.487184,91.8236061 L163.487184,91.8233963 Z M191.926833,72.1363448 C200.056973,71.5230126 214.116725,81.6739912 216.416065,83.3594747 C218.746875,85.0280488 222.844777,86.3907855 222.844777,86.3907855 C219.654862,90.428687 214.908697,92.6382355 209.013281,95.7519953 C203.100872,98.9026788 185.852044,90.3093144 181.089724,87.777103 C176.279572,85.2448917 170.594998,84.1577401 170.594998,84.1577401 C174.708216,77.384337 183.761448,72.7397118 191.924736,72.1365546 L191.926833,72.1363448 Z M221.889586,54.9294757 C230.002732,55.0991989 242.992746,66.5558293 245.130545,68.4513164 C247.285966,70.3383489 251.221698,72.0723577 251.221698,72.0723577 C247.674085,75.8043798 242.718755,77.5385355 236.546411,80.0774602 C230.343857,82.6415602 214.018752,72.4336226 209.514478,69.450984 C205.013142,66.4683453 199.440179,64.8468489 199.440179,64.8468489 C204.186135,58.4867396 213.661473,54.7446474 221.890215,54.9294757 L221.889586,54.9294757 Z M252.662143,39.5559948 C260.760184,40.2331673 272.875147,52.8678319 274.849937,54.9462592 C276.858398,57.0265327 280.649057,59.0512948 280.649057,59.0512948 C276.826194,62.6943644 271.756107,64.186418 265.423481,66.4515618 C259.041973,68.7334891 243.525203,57.1795144 239.268486,53.8423242 C234.976524,50.4648535 229.550207,48.4569169 229.550207,48.4569169 C234.765472,42.1756901 244.482072,38.8705984 252.663192,39.5562046 L252.662143,39.5559948 Z M286.300483,27.9296412 C294.317544,29.4537303 304.844158,43.3048005 306.594468,45.578336 C308.327826,47.8602633 311.873929,50.2783468 311.873929,50.2783468 C307.581968,53.5112695 302.317611,54.4473695 295.709945,56.0269072 C289.036404,57.6165149 274.946861,44.4897159 271.092739,40.7088118 C267.222673,36.9197257 262.054612,34.3235273 262.054612,34.3235273 C268.048002,28.6389541 278.218596,26.3989855 286.300483,27.929851 L286.300483,27.9296412 Z M319.196153,18.7952185 C327.066358,20.8586875 336.63946,35.3869721 338.209137,37.7983422 C339.765283,40.1677535 343.166145,42.8377994 343.166145,42.8377994 C338.663131,45.7547726 333.349893,46.3430345 326.629148,47.4721448 C319.859521,48.5946046 306.723491,34.548636 303.144828,30.5174479 C299.533018,26.4610845 294.560695,23.527118 294.560695,23.527118 C300.942203,18.2709438 311.225876,16.7065113 319.194685,18.7952185 L319.196153,18.7952185 Z M353.547792,12.482103 C361.240722,15.2715216 369.338763,30.6315757 370.699066,33.1537169 C372.027355,35.6859283 375.137883,38.6366783 375.137883,38.6366783 C370.391928,41.1353226 365.046591,41.2093798 358.261649,41.7168711 C351.394049,42.2075159 339.650421,27.0189262 336.459876,22.6801803 C333.268283,18.3112242 328.587993,14.9253618 328.587993,14.9253618 C335.455593,10.2725546 345.820247,9.67590097 353.547163,12.482103 L353.547792,12.482103 Z M387.672854,9.32134942 C395.026547,12.7728773 401.796174,28.7595855 402.896752,31.3958546 C403.998883,34.0172283 406.849477,37.2333675 406.849477,37.2333675 C401.892469,39.313641 396.580909,38.9338932 389.745407,38.8532275 C382.89459,38.7640651 372.529937,22.6076336 369.72835,17.9967852 C366.924875,13.3842584 362.568716,9.61845942 362.568716,9.61845942 C369.792337,5.55538262 380.190977,5.8545486 387.672644,9.32105571 L387.672854,9.32134942 Z M422.527998,9.6523621 C429.523783,13.8280982 434.577087,30.1542528 435.419409,32.8471662 C436.229549,35.5306389 438.724081,38.973775 438.724081,38.973775 C433.574692,40.4340029 428.32565,39.4661191 421.555814,38.5872928 C414.737095,37.7168793 406.087296,20.8259387 403.803691,16.0365557 C401.472881,11.2073119 397.519946,7.03828921 397.519946,7.03828921 C405.131895,3.93459952 415.466129,5.4352337 422.527369,9.65127117 L422.527998,9.6523621 Z M456.638375,12.5695451 C463.293244,17.1988554 467.099324,33.9349472 467.732272,36.7000296 C468.363499,39.4508461 470.566166,43.0786008 470.566166,43.0786008 C465.318804,44.2145084 460.135638,42.9088776 453.463775,41.6099811 C446.741352,40.3194555 439.387659,22.7916858 437.477066,17.8424399 C435.534439,12.8350811 431.920887,8.40885122 431.920887,8.40885122 C439.745357,5.7404837 449.931266,7.88457648 456.638794,12.5678038 L456.638375,12.5695451 Z M490.713086,18.5599977 C496.917319,23.8027451 499.119944,40.8065338 499.491279,43.6198688 C499.849103,46.3925039 501.712366,50.2151569 501.712366,50.2151569 C496.399128,50.8755459 491.361139,49.0943755 484.819348,47.207343 C478.258886,45.28838 472.591306,27.1640616 471.165128,22.0614564 C469.691704,16.9095497 466.516936,12.1608667 466.516936,12.1608667 C474.55078,10.2335119 484.495217,13.2816692 490.712457,18.5612564 L490.713086,18.5599977 Z M524.401777,27.6136497 C530.00516,33.4360575 530.476147,50.5860724 530.557127,53.4077992 C530.623003,56.2291064 532.079517,60.2046992 532.079517,60.2046992 C526.73439,60.3240719 521.908923,58.0589281 515.608395,55.5114018 C509.258985,52.9473018 505.485004,34.3557935 504.544918,29.1319276 C503.638567,23.8505781 500.966885,18.8113307 500.966885,18.8113307 C509.16269,17.7073536 518.734323,21.7469755 524.400854,27.6146987 L524.401777,27.6136497 Z M556.470859,39.0232863 C561.58815,45.2724147 560.632959,62.3964152 560.454005,65.2265338 C560.308827,68.0310575 561.443057,72.1193095 561.443057,72.1193095 C556.082615,71.8050803 551.449738,69.1601678 545.39383,66.1137518 C539.270578,63.048874 537.067952,44.2238652 536.58186,38.9349631 C536.095768,33.5982281 533.827477,28.3655508 533.827477,28.3655508 C542.104263,27.9152074 551.287567,32.7042966 556.470524,39.0239157 L556.470859,39.0232863 Z M587.795174,53.6322786 C592.394483,60.2747703 590.093885,77.25716 589.737822,80.0600054 C589.349641,82.8578157 590.159781,87.0268384 590.159781,87.0268384 C584.848221,86.2925181 580.424509,83.2931379 574.610283,79.8181131 C568.748644,76.2877028 568.036394,57.3408039 567.972197,52.0267265 C567.904643,46.673208 566.059947,41.2724858 566.059947,41.2724858 C574.319949,41.4740977 583.13024,46.9402755 587.794586,53.6314394 L587.795174,53.6322786 Z M618.227864,70.603759 C622.195905,77.6427611 618.276746,94.346125 617.628693,97.0986198 C616.980577,99.8393662 617.385647,104.080558 617.385647,104.080558 C612.153599,102.838788 608.07248,99.452926 602.59896,95.4284513 C597.091662,91.382158 598.193919,72.4518327 598.646234,67.152441 C599.083361,61.8157059 597.77196,56.2771492 597.77196,56.2771492 C605.999864,57.245033 614.227768,63.5244765 618.227906,70.603759 L618.227864,70.603759 Z M626.86088,74.2164085 C634.975705,75.7892117 642.700732,82.6736167 646.150582,90.0503868 C649.551549,97.3547781 644.368279,113.721423 643.509278,116.423567 C642.636703,119.10704 642.731215,123.33984 642.731215,123.33984 C637.630708,121.735106 633.79274,118.043385 628.673561,113.63247 C623.507179,109.174562 626.050719,90.3726301 626.892957,85.1319807 C627.767231,79.8506312 626.860859,74.2164085 626.860859,74.2164085 L626.86088,74.2164085 Z M654.199112,105.255403 C655.559478,100.095105 655.22022,94.3952167 655.22022,94.3952167 C663.171406,96.7577049 670.16719,104.336087 672.857586,111.995239 C675.546304,119.60551 668.744369,135.399837 667.642322,138.013868 C666.508135,140.601675 666.184087,144.817691 666.184087,144.817691 C661.260856,142.722292 657.811006,138.699474 653.162814,133.78967 C648.431964,128.862872 652.821878,110.399757 654.199112,105.255613 L654.199112,105.255403 Z M678.94639,127.984465 C680.696616,122.945008 680.841772,117.24533 680.841772,117.24533 C688.5668,120.204471 694.948308,128.31552 697.020862,136.167683 C699.0614,143.956068 691.044465,159.161085 689.733044,161.676513 C688.404755,164.168444 687.724583,168.369355 687.724583,168.369355 C682.995411,165.885816 679.884798,161.595952 675.60962,156.346491 C671.334441,151.075212 677.148877,133.006929 678.94639,127.984465 L678.94639,127.984465 Z M704.667112,142.391846 C712.148989,145.947431 717.83524,154.542474 719.274845,162.547577 C720.667268,170.482188 711.468837,184.985025 709.946363,187.387164 C708.423995,189.773359 707.419816,193.8935 707.419816,193.8935 C702.901697,191.047017 700.130321,186.525121 696.309136,180.969991 C692.454175,175.365979 699.74388,157.815048 701.912519,152.960419 C704.099829,148.058796 704.666902,142.391006 704.666902,142.391006 L704.667112,142.391846 Z M722.999944,179.558918 C725.69034,174.907789 726.854906,169.335665 726.854906,169.335665 C733.90146,173.649026 738.677836,182.775057 739.261902,190.879392 C739.812107,198.901278 729.123406,212.412629 727.340998,214.621758 C725.59245,216.855013 724.151083,220.837319 724.151083,220.837319 C719.955207,217.54041 717.688594,212.76823 714.464903,206.833372 C711.226106,200.868095 720.311437,184.169347 723.000154,179.558079 L722.999944,179.558918 Z M741.270258,207.537021 C744.331989,203.117714 745.965654,197.651536 745.965654,197.651536 C752.62388,202.52127 756.624019,212.018636 756.526045,220.128846 C756.461848,228.18283 744.637239,240.751787 742.694758,242.841124 C740.752109,244.904593 739.003646,248.782904 739.003646,248.782904 C735.099803,245.138156 733.238092,240.202967 730.515808,234.019294 C727.761425,227.812124 738.22573,211.904928 741.270468,207.534923 L741.270258,207.537021 Z M762.455238,228.612907 C768.68989,234.006916 771.881483,243.793168 771.103358,251.881139 C770.325275,259.894634 757.513335,271.463923 755.39169,273.368222 C753.287038,275.287164 751.214485,278.987339 751.214485,278.987339 C747.619458,275.052027 746.161181,269.965576 743.990864,263.597075 C741.788239,257.178223 753.547182,242.191812 756.94794,238.071462 C760.365691,233.934537 762.455238,228.614376 762.455238,228.614376 L762.455238,228.612907 Z M776.254636,260.113449 C782.133268,265.893898 784.67492,275.851551 783.378814,283.872598 C782.101149,291.813923 768.593805,302.553059 766.359081,304.334208 C764.139672,306.100253 761.805506,309.672622 761.805506,309.672622 C758.470414,305.518704 757.368367,300.351693 755.587637,293.860462 C753.805334,287.313846 766.487265,273.099686 770.148167,269.197101 C773.840958,265.278572 776.254636,260.111351 776.254636,260.111351 L776.254636,260.113449 Z M792.158685,317.687165 C790.054033,325.450376 775.540707,334.819977 773.144023,336.350843 C770.747338,337.89845 768.090719,341.205471 768.090719,341.205471 C765.174165,336.754276 764.593666,331.514885 763.489731,324.862323 C762.372411,318.179551 776.448485,305.294645 780.465407,301.770318 C784.546526,298.2483 787.461192,293.329894 787.461192,293.329894 C792.740653,299.674898 794.264595,309.832695 792.158265,317.686955 L792.158685,317.687165 Z M798.020324,351.323407 C795.218528,358.893398 779.913859,366.932067 777.388781,368.254607 C774.862234,369.585456 771.913582,372.648739 771.913582,372.648739 C769.40214,367.964043 769.305845,362.692764 768.804647,355.976424 C768.301688,349.219805 783.476578,337.601843 787.785533,334.449481 C792.158475,331.297119 795.510561,326.661096 795.510561,326.661096 C800.190851,333.417715 800.808484,343.68964 798.020324,351.324456 L798.020324,351.323407 Z M801.000865,361.297845 C805.049886,368.449296 804.727432,378.719752 801.260799,386.080788 C797.81095,393.368396 781.82592,400.044454 779.20098,401.148389 C776.576459,402.230527 773.337662,405.051813 773.337662,405.051813 C771.297124,400.148512 771.653249,394.877233 771.751139,388.159215 C771.847224,381.38749 788.012887,371.132349 792.610518,368.391603 C797.243395,365.617289 801.000592,361.297215 801.000592,361.297215 L801.000865,361.297845 Z M808.92163,388.175999 C808.92163,388.175999 810.945281,380.790837 810.362998,373.188958 C809.73177,364.481466 806.475938,355.378932 806.475938,355.378932 C806.475938,355.378932 807.640524,345.268338 806.183968,336.552245 C804.516422,326.723824 800.190578,318.145774 800.190578,318.145774 C800.190578,318.145774 801.194798,310.365781 798.992236,302.182563 C796.70863,293.676683 791.252103,284.758977 791.252103,284.758977 C791.252103,284.758977 791.478261,276.955486 788.593806,268.982272 C785.501864,260.395621 779.233435,251.607568 779.233435,251.607568 C779.233435,251.607568 779.022466,243.641068 775.653723,236.232409 C771.751558,227.581981 764.57682,219.292817 764.57682,219.292817 C764.57682,219.292817 763.619845,211.803598 760.186884,205.755871 C755.182672,196.991105 747.133513,188.648235 747.133513,188.648235 C747.133513,188.648235 745.076107,181.342165 740.298011,174.635896 C734.466792,166.469462 725.690277,158.598628 725.690277,158.598628 C725.690277,158.598628 724.895348,153.608052 720.375361,148.141874 C714.253787,140.739929 703.889133,132.267616 703.889133,132.267616 C703.889133,132.267616 700.844396,125.631837 694.94898,119.90027 C688.663557,113.788767 679.497246,108.554621 679.497246,108.554621 C675.787462,101.275405 670.378138,96.4056709 665.763723,93.1811399 C661.130637,89.9633224 651.576207,85.4733152 651.576207,85.4733152 C651.576207,85.4733152 648.659653,79.7249647 642.455421,75.3946106 C634.860465,70.1149394 623.73447,66.0501843 623.73447,66.0501843 C619.864403,60.6645673 616.007763,58.0280884 609.545275,54.2792827 C603.116563,50.530477 595.568811,49.1928317 594.385574,48.5796044 C593.172042,47.9830976 588.441276,43.2579745 581.867177,39.5897296 C575.259511,35.9214848 561.816343,33.3252863 561.816343,33.3252863 C561.816343,33.3252863 556.228065,27.8909972 548.470939,25.1504606 C539.626871,22.0299874 528.451993,21.5462028 528.451993,21.5462028 C528.451993,21.5462028 523.656946,16.7723446 516.222273,14.7962966 C507.072745,12.3782131 494.894633,12.6773791 494.894633,12.6773791 C494.894633,12.6773791 489.014323,8.19597344 480.786419,6.47020952 C471.392272,4.50251138 459.521718,5.26876231 459.521718,5.26876231 C459.521718,5.26876231 451.600953,1.62401437 443.404938,0.938408183 C434.383804,0.172178235 424.991125,2.39024432 424.991125,2.39024432 C424.991125,2.39024432 418.106741,0.123422152 409.846529,0.00404947171 C400.695323,-0.101896405 390.102833,1.90620803 390.102833,1.90620803 C390.102833,1.90620803 381.439397,0.237612925 373.1945,0.970254884 C364.188472,1.78521994 355.57224,5.02661829 355.57224,5.02661829 C355.57224,5.02661829 346.211659,3.79995385 338.259005,5.19466313 C328.687582,6.86323726 320.199744,11.2421796 320.199744,11.2421796 C320.199744,11.2421796 311.389453,10.7263176 303.745615,12.7897866 C294.611402,15.2582207 286.415387,20.3446717 286.415387,20.3446717 C286.415387,20.3446717 277.1832,20.5462835 269.053061,23.5859861 C260.40494,26.8189088 252.8553,32.9136289 252.8553,32.9136289 C252.8553,32.9136289 245.341325,32.3339057 237.695599,35.8071052 C229.599236,39.5173088 221.339234,47.265414 221.339234,47.265414 C221.339234,47.265414 213.904561,47.8770678 206.989757,51.7317145 C198.339958,56.5779516 189.853588,64.8719402 189.853588,64.8719402 C189.853588,64.8719402 182.369823,67.3235908 175.892229,71.8555567 C168.11832,77.3049511 161.137011,84.9806774 161.137011,84.9806774 C161.137011,84.9806774 154.415427,87.0122158 148.423086,91.9626155 C141.29618,97.8152335 134.721032,106.758114 134.721032,106.758114 C134.721032,106.758114 127.011949,110.239853 120.727575,116.512478 C114.086552,123.148256 108.80751,132.630307 108.80751,132.630307 C108.80751,132.630307 102.166487,136.466597 96.9184948,142.692228 C91.4602891,149.149892 87.3628061,158.001932 87.3628061,158.001932 C87.3628061,158.001932 79.9293917,163.533566 74.9404948,170.570889 C69.5150169,178.238434 66.502168,187.446704 66.502168,187.446704 C66.502168,187.446704 60.1531778,193.114493 55.8125437,200.6677 C51.0353288,208.94008 48.2331128,219.163333 48.2331128,219.163333 C48.2331128,219.163333 42.4023133,224.493354 38.9042113,231.740681 C35.0335154,239.868513 33.4460056,250.043094 33.4460056,250.043094 C33.4460056,250.043094 28.1491314,256.411595 25.2833479,264.161378 C22.1576298,272.601803 21.4447504,282.477218 21.4447504,282.477218 C21.4447504,282.477218 16.4243845,289.541395 14.3184742,297.63566 C11.9528391,306.72141 12.5047856,316.969838 12.5047856,316.969838 C12.5047856,316.969838 8.06638771,323.692891 6.38195317,332.247653 C4.66581879,341.099693 5.70157085,351.790157 5.70157085,351.790157 C5.70157085,351.790157 2.26808529,359.862603 1.50653374,368.286244 C0.69758977,376.97024 2.5436075,386.024102 2.5436075,386.024102 C2.5436075,386.024102 0.0653131717,395.207196 0.00132605833,404.22896 C-0.063919818,413.339886 2.30024668,422.28927 2.30024668,422.28927 C2.30024668,422.28927 0.227420852,430.94809 1.05352596,439.640477 C1.91191833,448.605177 5.70150791,457.601765 5.70150791,457.601765 C5.70150791,457.601765 4.03350023,465.4726 5.45890235,473.758406 C6.99765606,482.724784 11.6291482,492.190052 11.6291482,492.190052 C11.6291482,492.190052 11.1438951,501.23699 13.1844127,508.879359 C15.5974612,517.716294 20.6020926,525.358454 20.6020926,525.358454 C20.6020926,525.358454 20.3754314,534.178605 23.0480787,541.807338 C26.3519117,551.223933 32.7166364,559.834081 32.7166364,559.834081 C32.7166364,559.834081 32.8464988,567.477919 36.069771,574.377408 C40.1343163,583.069795 47.4880091,591.405952 47.4880091,591.405952 C47.4880091,591.405952 48.118922,599.081888 51.9257777,605.870396 C56.7193565,614.431662 64.9474699,622.559704 64.9474699,622.559704 C64.9474699,622.559704 66.3893409,630.42886 70.9563844,636.814145 C76.285357,644.279868 84.8042447,650.439834 84.8042447,650.439834 C84.8042447,650.439834 86.8447832,657.793317 91.5421926,663.549849 C98.0361503,671.450684 107.819465,678.447727 107.819465,678.447727 C107.819465,678.447727 110.13496,684.574546 115.253719,689.655542 C122.12027,696.459575 132.291075,702.732201 132.291075,702.732201 C132.291075,702.732201 135.482878,708.956783 141.410602,713.810573 C149.006397,720.018162 159.80931,725.244126 159.80931,725.244126 C159.80931,725.244126 164.150153,731.918296 170.142075,736.079137 C177.770807,741.36678 187.423211,744.398301 187.423211,744.398301 C187.423211,744.398301 192.201265,751.106458 199.376003,755.396112 C207.944822,760.539418 219.166903,763.42702 219.166903,763.42702 C219.166903,763.42702 224.9998,769.167188 231.929919,772.343886 C240.643915,776.357032 250.912483,778.035383 250.912483,778.035383 C250.912483,778.035383 256.88888,783.534078 264.728665,786.292867 C273.457976,789.386487 284.114452,789.774395 284.114452,789.774395 C284.114452,789.774395 289.815809,794.788468 297.363561,796.900672 C306.723932,799.513654 318.256717,799.352322 318.256717,799.352322 C318.256717,799.352322 323.617159,803.609039 330.499865,804.835703 C340.316117,806.544285 352.65619,805.431727 352.65619,805.431727 C352.65619,805.431727 359.069796,809.189554 366.74762,809.896559 C376.303938,810.802365 387.559586,808.673692 387.559586,808.673692 C387.559586,808.673692 394.344528,811.768571 402.572432,811.897803 C411.674546,812.027036 422.331233,809.155379 422.331233,809.155379 C422.331233,809.155379 431.305163,811.091062 439.386211,810.350658 C448.714483,809.478335 457.349387,805.931142 457.349387,805.931142 C457.349387,805.931142 465.381553,807.834685 473.221338,806.414905 C482.679682,804.706344 492.234322,799.579403 492.234322,799.579403 C492.234322,799.579403 499.620113,800.8029 506.71555,798.934161 C516.319071,796.353278 526.410364,790.483876 526.410364,790.483876 C526.410364,790.483876 535.058484,790.515345 542.540571,787.709563 C551.254567,784.438038 558.996378,778.260869 558.996378,778.260869 C558.996378,778.260869 566.802386,778.165203 574.414335,774.650108 C582.836298,770.747943 591.098188,763.427187 591.098188,763.427187 C591.098188,763.427187 598.776013,762.539634 605.543961,758.621021 C613.934035,753.76828 621.740044,745.721219 621.740044,745.721219 C621.740044,745.721219 629.54773,743.723122 635.394264,739.562302 C643.558181,733.757097 650.56907,725.244503 650.56907,725.244503 C650.56907,725.244503 658.214796,722.85663 664.240075,717.954588 C671.494115,712.053717 677.357643,703.458465 677.357643,703.458465 C677.357643,703.458465 684.907073,700.055819 690.542554,694.477192 C697.42526,687.608123 702.65584,678.32076 702.65584,678.32076 C702.65584,678.32076 709.491342,674.351671 714.951435,667.870511 C720.860488,660.857103 725.461266,651.261974 725.461266,651.261974 C725.461266,651.261974 732.133129,646.761896 736.539848,640.490949 C741.917074,632.910889 745.189647,623.268975 745.189647,623.268975 C745.189647,623.268975 751.4243,618.333785 755.505419,611.304853 C760.541729,602.646033 763.586467,591.552346 763.586467,591.552346 C763.586467,591.552346 769.223627,586.358481 772.494522,579.280667 C776.575641,570.443732 778.5198,559.350045 778.5198,559.350045 C778.5198,559.350045 783.735065,554.125759 786.455881,546.611364 C789.306559,538.742208 789.662579,528.582943 789.662579,528.582943 C789.662579,528.582943 794.796863,521.47345 797.080469,513.184286 C799.737088,503.508806 799.591911,492.431902 799.591911,492.431902 C799.591911,492.431902 803.850305,487.078383 805.227392,479.515107 C806.960751,470.049629 805.890697,457.956694 805.890697,457.956694 C805.890697,457.956694 809.293343,451.314202 810.054475,442.768042 C810.879804,433.673899 809.048556,422.644199 809.048556,422.644199 C809.048556,422.644199 811.917696,415.88758 811.900912,408.519201 C811.868394,398.947023 808.92163,388.175999 808.92163,388.175999 Z"
      id="path"
      fill="#7C2E9A"></path>
    <circle id="path" stroke="#7C2E9A" stroke-width="8" cx="406" cy="406" r="245"></circle>
    <path d="M459,364 L410,297" id="path" stroke="#C09BC7" stroke-width="5" stroke-linecap="round"></path>
    <path d="M458.5,232.5 L409.5,296.5" id="path" stroke="#7C2E9A" stroke-width="5" stroke-linecap="round"></path>
    <path
      d="M417.550893,216.89237 C379.170941,210.343371 343.260792,224.849916 331.308962,254.431733 C316.87654,290.153232 342.844804,334.330109 389.310704,353.103551 C435.776603,371.876994 485.144447,358.137879 499.57687,322.416381 C506.171126,306.095023 504.33122,288.008495 495.955602,271.38642 C509.221266,292.770722 513.103794,316.942406 504.404118,338.47486 C487.524958,380.252246 429.673172,396.274268 375.188537,374.261047 C320.703902,352.247825 290.218641,300.53532 307.097801,258.757933 C322.046238,221.759254 369.130073,204.960865 417.550893,216.89237 Z"
      id="path"
      fill="#7C2E9A"></path>
    <path
      d="M413,460.995253 C413,458.236451 415.241462,456 418.001252,456 L518.954779,456 C521.716894,456 525.305899,457.792468 526.967764,459.99923 L536.005862,472.00077 C537.669196,474.209484 536.77684,476 534.019283,476 L417.998311,476 C415.23782,476 413,473.763962 413,471.004747 L413,460.995253 Z"
      id="path"
      fill="#7C2E9A"></path>
    <path d="M545.5,502.5 L572.5,538.5" id="path" stroke="#7C2E9A" stroke-width="21" stroke-linecap="round" stroke-linejoin="round"></path>
    <rect id="path" fill="#7C2E9A" x="413" y="529" width="162" height="20" rx="3"></rect>
    <rect id="path" fill="#7C2E9A" x="413" y="492" width="135" height="20" rx="3"></rect>
    <path
      d="M441,476 C438.231133,476.000686 436,478.237515 436,480.996686 L436,487.003314 C436,489.757998 438.238458,491.999311 441,492 L441,495.999422 C441,497.656596 439.649502,499 438.00351,499 L415.99649,499 C414.341574,499 413,497.648035 413,495.999422 L413,471.000578 C413,469.343404 414.350498,468 415.99649,468 L438.00351,468 C439.658426,468 441,469.351965 441,471.000578 L441,476 Z"
      id="path"
      fill="#7C2E9A"></path>
    <path
      d="M413,460.995253 C413,458.236451 415.241462,456 418.001252,456 L518.954779,456 C521.716894,456 525.305899,457.792468 526.967764,459.99923 L536.005862,472.00077 C537.669196,474.209484 536.77684,476 534.019283,476 L417.998311,476 C415.23782,476 413,473.763962 413,471.004747 L413,460.995253 Z"
      id="path"
      fill="#7C2E9A"></path>
    <path
      d="M528,529 L548.019283,529 C550.77684,529 551.533579,527.32499 549.702952,525.25876 L541.270674,515.74124 C539.441412,513.67655 535.716894,512 532.954779,512 L528,512 L528,508.000578 C528,506.343404 529.350498,505 530.99649,505 L553.00351,505 C554.658426,505 556,506.351965 556,508.000578 L556,532.999422 C556,534.656596 554.649502,536 553.00351,536 L530.99649,536 C529.341574,536 528,534.648035 528,532.999422 L528,529 Z"
      id="path"
      fill="#7C2E9A"></path>
    <path d="M294.73819,466.5 L240,538.5" id="path" stroke="#7C2E9A" stroke-width="21" stroke-linecap="round" stroke-linejoin="round"></path>
    <rect id="path" fill="#7C2E9A" x="292" y="456" width="107" height="20" rx="3"></rect>
    <rect id="path" fill="#7C2E9A" x="237" y="529" width="162" height="20" rx="3"></rect>
    <polygon id="path" fill="#7C2E9A" points="457 395 463 401 475 401 481 395"></polygon>
    <polygon
      id="path"
      fill="#7C2E9A"
      transform="translate(459.000000, 406.499218) rotate(-90.000000) translate(-459.000000, -406.499218) "
      points="451.499218 403.499218 448.500782 406.500782 451.499218 409.499218 463.499218 409.499218 469.499218 403.499218"></polygon>
    <polygon
      id="path"
      fill="#7C2E9A"
      transform="translate(479.000000, 406.499218) scale(-1, 1) rotate(-90.000000) translate(-479.000000, -406.499218) "
      points="471.499218 403.499218 468.500782 406.500782 471.499218 409.499218 483.499218 409.499218 489.499218 403.499218"></polygon>
    <polygon id="path" fill="#7C2E9A" transform="translate(469.000000, 438.000000) scale(1, -1) translate(-469.000000, -438.000000) " points="457 435 463 441 475 441 481 435"></polygon>
    <polygon
      id="path"
      fill="#7C2E9A"
      transform="translate(459.000000, 429.500782) scale(1, -1) rotate(-90.000000) translate(-459.000000, -429.500782) "
      points="451.499218 426.500782 448.500782 429.502346 451.499218 432.500782 463.499218 432.500782 469.499218 426.500782"></polygon>
    <polygon
      id="path"
      fill="#7C2E9A"
      transform="translate(479.000000, 429.500782) scale(-1, -1) rotate(-90.000000) translate(-479.000000, -429.500782) "
      points="471.499218 426.500782 468.500782 429.502346 471.499218 432.500782 483.499218 432.500782 489.499218 426.500782"></polygon>
    <polygon id="path" fill="#7C2E9A" points="478 418 475 421 463 421 460 418 463 415 475 415"></polygon>
    <polygon id="path" fill="#7C2E9A" points="415 395 421 401 433 401 439 395"></polygon>
    <polygon
      id="path"
      fill="#7C2E9A"
      transform="translate(417.000000, 406.499218) rotate(-90.000000) translate(-417.000000, -406.499218) "
      points="409.499218 403.499218 406.500782 406.500782 409.499218 409.499218 421.499218 409.499218 427.499218 403.499218"></polygon>
    <polygon id="path" fill="#7C2E9A" transform="translate(427.000000, 438.000000) scale(1, -1) translate(-427.000000, -438.000000) " points="415 435 421 441 433 441 439 435"></polygon>
    <polygon
      id="path"
      fill="#7C2E9A"
      transform="translate(437.000000, 429.500782) scale(-1, -1) rotate(-90.000000) translate(-437.000000, -429.500782) "
      points="429.499218 426.500782 426.500782 429.502346 429.499218 432.500782 441.499218 432.500782 447.499218 426.500782"></polygon>
    <polygon id="path" fill="#7C2E9A" points="436 418 433 421 421 421 418 418 421 415 433 415"></polygon>
    <polygon id="path" fill="#7C2E9A" points="373 395 379 401 391 401 397 395"></polygon>
    <polygon
      id="path"
      fill="#7C2E9A"
      transform="translate(375.000000, 406.499218) rotate(-90.000000) translate(-375.000000, -406.499218) "
      points="367.499218 403.499218 364.500782 406.500782 367.499218 409.499218 379.499218 409.499218 385.499218 403.499218"></polygon>
    <polygon
      id="path"
      fill="#7C2E9A"
      transform="translate(395.000000, 406.499218) scale(-1, 1) rotate(-90.000000) translate(-395.000000, -406.499218) "
      points="387.499218 403.499218 384.500782 406.500782 387.499218 409.499218 399.499218 409.499218 405.499218 403.499218"></polygon>
    <polygon id="path" fill="#7C2E9A" transform="translate(385.000000, 438.000000) scale(1, -1) translate(-385.000000, -438.000000) " points="373 435 379 441 391 441 397 435"></polygon>
    <polygon
      id="path"
      fill="#7C2E9A"
      transform="translate(395.000000, 429.500782) scale(-1, -1) rotate(-90.000000) translate(-395.000000, -429.500782) "
      points="387.499218 426.500782 384.500782 429.502346 387.499218 432.500782 399.499218 432.500782 405.499218 426.500782"></polygon>
    <polygon id="path" fill="#7C2E9A" points="394 418 391 421 379 421 376 418 379 415 391 415"></polygon>
    <polygon
      id="path"
      fill="#7C2E9A"
      transform="translate(353.000000, 406.499218) scale(-1, 1) rotate(-90.000000) translate(-353.000000, -406.499218) "
      points="345.499218 403.499218 342.500782 406.500782 345.499218 409.499218 357.499218 409.499218 363.499218 403.499218"></polygon>
    <polygon
      id="path"
      fill="#7C2E9A"
      transform="translate(353.000000, 429.500782) scale(-1, -1) rotate(-90.000000) translate(-353.000000, -429.500782) "
      points="345.499218 426.500782 342.500782 429.502346 345.499218 432.500782 357.499218 432.500782 363.499218 426.500782"></polygon>
  </g>
</svg>
