
<svg width="1024px" height="1024px" viewBox="0 0 1024 1024" version="1.1" xmlns="http://www.w3.org/2000/svg" xmlns:xlink="http://www.w3.org/1999/xlink">
    <desc>清华大学计算机科学与技术系系徽</desc>
    <defs></defs>
    <g stroke="none" stroke-width="1" fill="none" fill-rule="evenodd">
        <g id="thu-cs-crest">
            <path d="M708.145423,218.393174 C712.638574,220.732639 718.804586,217.549811 721.380151,214.589485 C721.380151,214.589485 733.633598,215.36295 736.536698,214.072441 C739.395086,212.779818 742.519629,209.955241 740.946775,207.117753 C739.395139,204.280267 737.311352,205.837829 734.695573,205.572943 C732.103128,205.329277 728.978532,204.534621 727.139522,203.771741 C725.343135,203.000421 724.014979,200.163039 722.972054,199.90879 C721.909948,199.654541 714.639234,198.291939 713.374866,198.963675 C712.106317,199.643905 706.121217,204.647116 705.386777,207.016055 C704.631172,209.374567 703.649971,216.013468 708.145158,218.393253 L708.145423,218.393174 Z M746.380728,178.435534 C746.380728,178.435534 750.933407,177.681146 752.446734,178.435534 C753.93662,179.187779 759.002189,184.138023 764.027649,183.152509 C769.052846,182.145936 771.07282,179.675033 771.5837,174.693226 C772.09667,169.730467 766.315895,169.221969 766.315895,169.221969 C766.315895,169.221969 757.491508,164.49441 755.980298,164.006812 C754.466971,163.508843 753.936989,161.2733 750.180448,162.014909 C746.381258,162.756571 746.134151,163.021457 745.155251,165.736052 C744.133597,168.490729 741.641265,174.693252 746.381231,178.43556 L746.380728,178.435534 Z M732.552311,196.837531 C734.327427,196.837531 740.374251,196.095842 742.622016,195.606339 C744.910076,195.108371 745.399712,196.339535 746.380728,196.837531 C747.40024,197.34611 748.424037,197.844079 752.221058,195.862759 C755.979768,193.868713 756.714208,190.38277 752.710587,187.880226 C748.668788,185.409402 749.913843,189.119884 744.909811,186.153208 C739.844136,183.152482 739.599412,181.658734 733.797181,180.681686 C733.797181,180.681686 731.040916,178.435481 729.282864,181.658575 C727.505631,184.911433 726.241395,190.624241 727.505631,193.095038 C728.774179,195.606128 730.77701,196.837346 732.552258,196.837346 L732.552311,196.837531 Z M853.285075,347.133076 C858.778556,347.133076 863.210062,342.731729 863.210062,337.321852 C863.210062,331.903508 858.778556,327.510628 853.285075,327.510628 C847.810643,327.510628 843.357971,331.903508 843.357971,337.321852 C843.357971,342.731729 847.810643,347.133076 853.285075,347.133076 Z M797.932248,248.335608 C798.343015,251.213309 796.789263,252.332166 794.746062,252.637213 C792.702779,252.910591 789.967706,249.698131 789.518735,248.560226 C789.048334,247.451953 788.333181,245.52987 787.577603,244.798869 C786.821998,244.065673 783.818627,242.550547 782.041527,242.154278 C780.285565,241.768618 779.836461,241.798276 778.529656,240.181451 C777.201501,238.55399 776.201144,236.40951 776.241571,234.214129 C776.282049,232.016684 778.69353,231.234834 778.69353,231.234834 C780.285618,230.228261 782.452505,231.132975 783.552842,231.620495 C784.738396,232.129072 790.989572,239.520482 792.807415,241.035395 C794.625101,242.55052 797.545292,245.489655 797.932618,248.335608 L797.932248,248.335608 Z M783.98451,270.195769 C782.696807,271.081514 780.89833,271.467201 780.572647,270.439435 C780.244848,269.443471 777.856861,266.860365 776.977703,266.016923 C776.117805,265.173536 773.7894,264.319537 774.238371,261.176924 C774.68959,258.025925 777.956868,256.26708 777.956868,256.26708 C783.350343,253.694531 787.106937,257.629629 788.250133,262.062697 C789.397351,266.525422 785.291739,269.261051 783.984775,270.195769 L783.98451,270.195769 Z M770.256099,250.187582 C768.602287,253.451022 763.49825,253.571665 761.250748,253.571665 C759.043541,253.571665 758.860512,249.636487 759.392612,248.062045 C759.901321,246.496044 764.496649,244.065488 764.496649,244.065488 C770.705255,242.611822 771.912213,246.943189 770.256284,250.187582 L770.256099,250.187582 Z M789.988872,226.841875 C787.658243,225.581024 779.142395,218.880507 776.036901,217.314532 C772.931406,215.740064 769.992061,213.14627 768.153051,211.641674 C766.316212,210.14774 761.863487,208.104935 760.003313,208.255474 C758.185627,208.40813 756.265766,209.588365 756.429534,213.76721 C756.591185,217.946054 758.268517,221.565339 759.532911,221.951078 C760.80146,222.357957 765.660826,224.951804 766.397117,225.966685 C767.090998,226.994424 769.01086,229.283039 765.743688,231.489004 C762.474427,233.694942 759.166803,235.587155 754.590577,236.470812 C750.056947,237.314199 744.8701,238.960709 740.823804,239.14506 C736.73941,239.27655 729.96013,237.233665 728.446804,235.737695 C726.93562,234.233151 725.179659,235.737695 723.587492,236.856551 C721.993287,237.945749 719.439072,239.064605 720.073505,243.292156 C720.705662,247.553546 726.201418,254.741583 731.224499,255.442952 C736.249696,256.154956 745.033868,253.866367 748.605265,255.046682 C752.221374,256.226998 760.003101,262.611727 765.824381,270.329427 C771.645661,278.034429 772.605512,279.305676 771.911816,280.486177 C771.175366,281.664376 764.945487,288.193295 766.948264,292.870056 C768.927706,297.49602 771.339292,299.701984 773.646586,298.451638 C775.955943,297.190815 777.141523,295.381066 780.244636,289.930974 C783.369179,284.523214 799.404884,263.709682 802.916754,263.008579 C806.409575,262.296575 808.491193,262.764912 811.822099,267.492469 C815.172318,272.220028 820.195397,280.567135 822.604814,281.512169 C824.973779,282.478476 830.9588,283.942725 831.918916,284.349657 C832.878847,284.756509 836.454662,279.458861 836.718436,277.649219 C836.944112,275.839523 837.188838,270.64347 835.841527,270.177301 C834.451648,269.698381 832.878635,268.753293 831.757133,268.905869 C831.346339,268.825441 811.209227,247.655802 807.288601,242.82665 C803.365858,238.016282 802.589087,237.630808 804.979244,236.7662 C806.409549,235.893155 809.450965,239.756079 809.759715,239.908734 C810.064074,240.091021 814.927514,244.738151 815.312723,246.130306 C815.742672,247.554314 817.334735,249.851449 820.604076,249.30247 C823.873337,248.753625 825.465504,246.464984 825.384546,243.161328 C825.303589,239.836508 823.319967,236.765937 821.706528,236.532852 C820.133621,236.297651 814.680672,230.95127 812.537145,228.734724 C810.39166,226.528786 809.75945,225.428952 811.534646,224.087594 C813.252298,222.744119 814.803907,223.305665 815.497868,224.403355 C816.234318,225.50102 823.954242,238.728101 830.162848,240.385353 C836.371456,242.033979 837.986906,240.162851 839.272439,238.658309 C840.538871,237.151649 841.396625,234.233681 839.802421,233.299228 C838.210358,232.35414 832.001646,227.473979 828.896416,223.456256 C825.790922,219.44065 821.647001,213.931029 821.461803,212.354472 C821.461803,212.354472 822.604761,207.870581 822.359983,206.132901 C822.134307,204.393158 819.501596,203.060213 816.785545,203.448069 C814.088807,203.854921 812.473358,205.338272 811.658225,205.501431 C810.881349,205.654087 809.267989,203.376001 807.369321,202.270002 C805.449459,201.170195 803.489173,201.089687 802.282215,199.360554 C801.077507,197.612317 802.016166,194.541719 801.160529,194.317101 C800.260204,194.084018 792.929831,191.380137 791.190828,192.801976 C789.434867,194.236594 787.657529,197.783784 788.638836,201.646999 C789.598767,205.501484 790.335217,206.762413 793.561909,207.790258 C796.869534,208.815881 805.285428,213.299877 804.795714,217.001707 C804.34661,220.701685 799.463883,218.262557 797.237547,217.550553 C794.989914,216.838549 791.558868,213.066661 789.67938,208.64415 C787.759519,204.240687 785.14575,205.501617 783.755977,205.654272 C782.408693,205.817246 778.896664,205.897939 779.222348,209.356366 C779.550146,212.823259 781.876489,212.587794 782.021207,214.397701 C782.163809,216.217978 781.795531,217.315617 783.306768,217.783901 C784.798823,218.262822 787.208081,218.415371 788.864274,219.909331 C790.539357,221.413848 795.481638,225.73458 794.868635,226.60977 C794.215206,227.47435 792.295371,228.093094 789.988158,226.842854 L789.988872,226.841875 Z M259.927747,240.954702 C260.378993,237.629881 264.708218,236.91793 264.708218,236.91793 C267.588037,236.205926 270.182651,236.470812 270.182651,239.276444 C270.182651,242.132981 266.117305,244.949302 263.503642,244.949302 C260.868628,244.949302 259.438297,244.239414 259.927747,240.954861 L259.927747,240.954702 Z M234.703611,195.71894 C237.970756,195.365054 239.484082,195.028127 238.809435,196.206326 C238.115554,197.407834 236.908728,202.95756 239.809791,202.95756 C242.751253,202.95756 246.835648,202.807287 247.325362,203.141965 C247.857486,203.466192 249.206914,205.500479 250.083743,208.876202 C250.941524,212.25182 251.433171,215.962379 250.083743,217.986057 C248.715162,220.009761 212.340534,264.248343 212.340534,264.248343 C212.340534,264.248343 209.909423,265.407465 208.234975,266.098278 C206.518831,266.759433 205.313354,267.950357 205.313354,271.152312 C205.313354,274.364692 205.130539,278.594333 209.092173,279.266071 C213.014123,279.927225 216.772835,280.088267 218.978005,279.753457 C218.978005,279.753457 231.967744,286.689096 234.521879,290.562894 C237.11644,294.444895 238.625586,296.977335 241.017807,296.652975 C243.405926,296.307556 244.917003,295.798977 244.446603,289.221536 C243.937892,282.631158 238.116559,279.083837 235.911652,277.568923 C233.6832,276.053797 225.12682,270.99971 224.12649,270.480629 C223.083565,269.974193 223.758265,266.098331 225.3099,264.574951 C226.842382,263.070409 236.909866,247.351338 238.810519,247.53336 C240.689928,247.707181 241.200755,249.048485 240.83253,250.379313 C240.504758,251.74398 240.15783,259.33863 244.591241,258.83013 C249.043914,258.342744 248.880146,257.48663 251.289563,253.430836 C253.658502,249.375015 257.253445,247.016395 258.438973,249.201194 C259.622384,251.407132 261.012237,254.956597 259.622384,256.806453 C258.275073,258.666971 251.617362,266.609211 249.901906,267.452652 C248.186371,268.285458 244.446788,271.661129 245.979162,273.510985 C247.492463,275.371504 250.595866,278.249125 254.354578,277.242711 C258.111173,276.217088 259.479782,273.510985 261.870149,270.309188 C264.239114,267.115858 269.877287,255.963276 272.776154,254.956597 C275.717616,253.950023 280.151239,253.430862 280.82377,258.342797 C281.683668,261.371038 263.913405,277.903866 263.913405,277.903866 C263.913405,277.903866 261.684925,282.114458 270.571248,284.146601 C270.571248,284.146601 277.067174,278.931446 279.640624,277.751209 C282.213913,276.570894 284.397813,275.210462 286.462234,273.510985 C288.505542,271.843284 294.141572,259.012418 291.240589,254.956597 C288.339606,250.900776 285.766157,245.32766 286.298466,241.627683 C286.809294,237.904423 290.382861,237.398041 291.425786,237.234803 C292.44744,237.071829 297.204471,231.661687 297.204471,227.788153 C297.204471,223.903772 294.324653,220.701976 291.425786,220.854631 C288.505489,221.036919 286.134435,225.582188 285.257657,226.936246 C284.397787,228.296679 283.908231,233.361269 281.151834,233.005161 C278.414617,232.670351 278.088935,229.811831 277.22909,226.936246 C276.392607,224.06701 276.04568,220.854631 272.286968,220.854631 C268.487778,220.854631 263.381624,223.732332 258.971547,229.46657 C254.516759,235.200807 252.107341,238.576426 251.087698,240.265159 C250.085198,241.962546 247.001188,243.986302 245.306896,243.640778 C243.57009,243.293242 244.774772,240.782125 245.796426,239.084924 C246.837235,237.398147 268.692103,211.072509 269.366751,210.553957 C270.081929,210.068688 275.188031,206.345481 279.108657,207.688955 C283.050451,209.051531 284.05078,211.073039 285.766501,212.925276 C287.484152,214.796404 291.42613,218.324571 293.120156,217.987777 C294.835665,217.642384 300.146012,213.260219 298.941436,209.712897 C297.736728,206.174042 293.652201,202.289925 291.240669,200.439804 C288.831251,198.598361 285.972863,195.36672 285.257737,193.006249 C284.583037,190.658344 284.255238,189.469509 281.683958,189.641213 C279.108553,189.812918 272.982861,191.145757 271.961365,192.518916 C270.939711,193.84969 262.728221,204.15883 262.728221,204.15883 C262.728221,204.15883 261.870441,206.345693 259.622727,200.785329 C257.417662,195.201631 253.333162,189.295689 251.434626,188.460978 C249.555216,187.607007 248.022763,187.607007 246.122109,186.937386 C244.263971,186.24443 243.938315,184.578873 244.263971,183.063852 C244.591745,181.527536 241.526755,179.005915 239.996497,178.670973 C238.464042,178.344628 234.336868,177.492774 230.94855,182.707745 C227.515257,187.944066 225.12727,191.999887 227.515257,193.699204 C229.886338,195.366879 231.478479,196.057719 234.705144,195.720765 L234.703611,195.71894 Z M190.626653,240.467897 C192.873202,241.686364 199.246001,246.547397 202.513674,249.048089 C205.801985,251.540104 209.948817,255.727361 212.297912,256.267608 C214.606211,256.805845 217.749856,255.127534 219.261067,251.743503 C220.753122,248.378469 222.530328,240.679816 222.183479,237.354995 C221.855706,234.040758 219.935846,233.593639 217.956483,233.716663 C215.972782,233.848152 214.891468,237.041484 214.318944,238.46327 C213.788962,239.876695 211.807377,241.016744 210.561027,240.406465 C209.335682,239.796161 209.621547,237.041431 210.152799,235.464873 C210.72408,233.928555 212.420222,231.377303 211.745918,230.483065 C209.13199,227.372279 207.375263,227.605364 204.964787,227.942317 C202.596061,228.296176 200.880128,233.004818 199.32791,233.695603 C197.795667,234.36734 198.306071,232.169894 199.001196,229.963878 C199.674653,227.787625 200.349777,224.738404 200.185903,222.8777 C200.022401,221.03623 195.732702,219.847343 195.732702,219.847343 C195.732702,219.847343 191.995685,219.287915 190.340815,221.159042 C188.707216,223.051362 186.051646,231.489348 185.847135,234.458325 C185.643418,237.43762 188.360606,239.255993 190.627077,240.467977 L190.626653,240.467897 Z M153.737998,428.808259 L163.542078,432.122497 L174.775353,393.384514 L165.196419,390.996341 L160.886349,403.064326 L121.180048,391.494257 L117.136133,404.477647 L157.046151,416.291382 L153.737203,428.808603 L153.737998,428.808259 Z M170.568463,344.469409 C176.061415,344.469409 180.494509,340.068063 180.494509,334.658185 C180.494509,329.229259 176.061415,324.83638 170.568463,324.83638 C165.094295,324.83638 160.642153,329.229259 160.642153,334.658185 C160.642153,340.068063 165.094295,344.469409 170.568463,344.469409 Z M362.39847,156.787822 C366.646896,156.056742 370.956966,149.334953 375.735321,145.859858 C380.515793,142.361217 389.340444,136.391778 390.85139,138.629756 C392.341302,140.878077 394.87414,154.043726 389.829735,165.014021 C384.783109,175.933518 378.24882,181.169839 373.958062,181.911422 C369.690587,182.663694 364.156628,186.895346 364.646078,189.385457 C365.178176,191.877471 367.423773,199.340869 368.179378,201.322216 C368.934983,203.314146 370.201415,205.56244 377.759369,204.06631 C385.274941,202.563884 392.341276,199.340869 394.629256,193.096017 C396.896044,186.895611 401.655112,179.421842 402.921597,157.522262 C401.655165,142.606206 410.724488,151.076072 410.724488,151.076072 C410.724488,151.076072 441.197381,172.955281 454.026263,173.220378 C466.892713,173.474627 474.205889,170.484749 480.496248,155.284548 C482.499104,150.556991 479.229816,150.323906 477.229103,150.821822 C475.185795,151.311326 442.710972,147.325297 422.818136,139.872694 C402.923714,132.42009 411.256534,128.431998 414.25964,127.681685 C417.792941,126.429301 436.665604,122.710461 438.421538,121.46858 C440.198797,120.228949 445.243149,114.749093 442.465718,108.027489 C439.688023,101.305886 439.198574,102.058051 434.418102,103.064731 C429.599269,104.04162 414.77052,107.529573 412.23755,109.513036 C409.704686,111.504966 406.192711,114.993025 403.43433,115.245157 C400.675947,115.480358 396.631768,117.003976 395.120558,113.253228 C393.609348,109.513036 393.364596,98.0850403 390.342203,98.0850403 C387.317667,98.0850403 382.009383,99.3141153 379.272167,104.529113 C379.272167,104.529113 382.273156,117.472287 383.028761,120.970929 C383.028761,120.970929 383.294811,123.452334 376.24763,126.938251 C369.202461,130.426309 359.111589,135.145401 356.355324,136.149699 C353.57763,137.137171 349.288989,142.119138 350.063642,146.09453 C350.800093,150.069921 358.111258,157.522525 362.400164,156.789409 L362.39847,156.787822 Z M852.113041,406.132172 L876.011164,411.807148 L857.361796,428.337858 L861.203582,442.989081 L888.223868,417.236074 L907.628842,412.508516 L904.012732,398.577711 L885.101442,403.773552 L849.006489,393.140052 L852.111983,406.131907 L852.113041,406.132172 Z M221.3575,213.368242 C223.909519,211.092353 229.13896,213.124575 229.71175,214.537947 C230.241731,215.940764 229.364795,218.095853 228.404865,218.564138 C227.442818,219.043058 225.178199,219.123566 223.624394,218.301422 C222.072758,217.487718 220.927657,213.764617 221.357606,213.368295 L221.3575,213.368242 Z M207.366372,215.991615 C209.204483,215.991615 213.860977,216.671844 214.51446,217.019381 C215.208341,217.354191 215.700013,220.515906 216.310874,221.543486 C216.925992,222.550032 218.068952,225.133138 219.784381,225.050594 C221.49989,224.980747 223.951849,224.654323 224.64581,225.406595 C225.339691,226.139792 228.485479,230.988177 230.037167,232.219475 C231.610102,233.440058 234.817639,232.687786 235.021886,230.795467 C235.226131,228.905264 234.204557,223.433874 235.960518,222.427194 C237.759048,221.401571 240.494148,220.59845 242.47576,220.261497 C244.457317,219.926687 245.336263,218.706104 244.989443,216.347484 C244.661669,213.98897 243.43569,213.368189 241.598744,213.571642 C239.73849,213.764511 237.920725,214.650231 237.288674,214.050535 C236.675671,213.429648 235.634862,211.823405 234.734539,210.268012 C233.876784,208.702038 232.018752,207.69549 230.445634,207.69549 C228.893997,207.69549 226.912334,207.564 225.871525,205.875213 C224.849871,204.177852 224.360342,203.315389 224.156016,201.685785 C223.95177,200.071049 224.441219,196.896583 221.4188,196.835203 C218.436859,196.765092 215.495396,197.648907 214.514115,199.123765 C213.575482,200.619842 215.557067,202.906287 214.882341,204.258228 C214.186342,205.591119 213.166832,207.430394 211.798277,207.847881 C210.428849,208.233568 207.284489,208.642536 206.385754,208.426384 C206.385754,208.426384 203.689545,210.878159 203.873129,212.35098 C204.097747,213.84703 205.487123,215.99143 207.366215,215.99143 L207.366372,215.991615 Z M576.570415,139.370201 C577.879416,137.823275 579.224557,137.35708 581.084731,137.011687 C582.942869,136.676877 587.76374,135.121484 588.825978,132.070094 C589.826336,129.039737 589.826336,126.732178 588.255545,125.674702 C586.680494,124.587647 584.088077,122.563917 585.250057,120.398166 C586.414313,118.232496 588.457674,118.232496 594.52368,119.177584 C594.52368,119.177584 598.855179,119.391619 598.631621,121.616632 C598.446423,123.843762 596.873516,138.90189 592.012139,141.658685 C588.398147,143.21196 580.410058,141.658685 580.410058,141.658685 C580.410058,141.658685 575.263425,140.925488 576.570388,139.370095 L576.570415,139.370201 Z M594.298295,106.264861 C596.833275,103.2771 608.394984,107.271408 612.681507,109.233574 C616.972529,111.248811 614.969594,112.721632 613.17318,112.721632 C611.457671,112.721632 609.903919,112.001162 605.123447,111.482001 C600.366521,110.992498 594.544977,107.506609 594.544977,107.506609 C593.972427,107.05949 594.298136,106.264835 594.298136,106.264835 L594.298295,106.264861 Z M621.670455,123.978189 C623.302969,124.454993 625.776279,126.406628 625.42705,128.432448 C625.10142,130.464644 621.670455,131.928973 619.831446,132.742519 C617.992463,133.556249 615.725622,133.960985 615.050974,135.232417 C614.357093,136.544116 614.765771,138.902499 616.359949,139.654928 C617.911585,140.377516 618.809792,142.685285 618.320263,144.291476 C617.871159,145.908327 614.010193,147.535867 610.883532,147.535867 C607.739941,147.535867 605.471009,145.522746 604.717521,144.230096 C603.981096,142.96078 605.779628,137.143918 606.637381,134.378657 C607.535588,131.602814 611.619983,123.376351 611.619983,123.376351 C613.663291,121.812492 620.014447,123.509957 621.670376,123.978162 L621.670455,123.978189 Z M542.707619,148.80521 C546.71132,150.046984 565.581866,151.053531 568.116953,151.053531 C570.628492,151.053531 591.031678,153.524354 591.7894,156.522936 C592.542863,159.512814 587.764534,161.994458 583.473513,161.504744 C579.208154,160.998283 572.403476,157.49972 563.338597,156.522936 C554.269221,155.51639 544.423075,156.522936 544.197664,160.498329 C543.931614,164.473721 548.978134,166.976266 551.244949,167.463599 C553.533035,167.961595 567.870111,165.228003 583.966666,173.68517 C583.966666,173.68517 580.699522,188.866057 581.719032,191.093187 C582.742829,193.328809 587.233943,193.328809 588.52371,191.856067 C589.768845,190.362133 591.790856,186.619746 593.03591,180.89424 C594.300199,175.19175 596.343534,176.92943 597.83543,177.427346 C599.348757,177.916849 604.393266,182.125273 615.218313,183.131952 C626.043624,184.117307 629.80022,185.876047 631.82231,181.148516 C633.844346,176.43154 627.307993,174.672695 625.285903,174.185361 C623.263893,173.685249 615.950636,172.678703 610.435725,170.20997 C604.8806,167.717955 599.836091,165.228162 599.836091,163.488366 C599.836091,161.740129 601.328119,160.010889 603.124665,160.243973 C604.880626,160.498223 618.751613,163.233851 627.552718,169.455423 C636.377104,175.67911 647.202416,179.400253 650.469561,179.167169 C653.736705,178.923502 660.028387,175.67911 661.539597,171.214268 C663.050781,166.721911 655.984472,162.735935 652.962052,161.252505 C649.980111,159.745873 647.69213,159.512761 644.179996,159.258485 C640.646696,159.004237 630.82198,156.27046 628.044284,154.774595 C625.285903,153.270078 624.26626,152.536882 625.285903,149.548855 C626.288403,146.56956 630.575138,148.805077 632.086348,148.805077 C633.597557,148.805077 636.86682,152.536803 640.891686,149.813741 C644.914436,147.056946 644.422869,144.079504 642.381598,142.339708 C640.380859,140.60208 639.378226,139.097696 638.890893,137.113968 C638.358795,135.122066 636.621988,131.144531 634.088992,129.885982 C634.088992,129.885982 639.644117,126.40639 639.889107,121.191499 C639.889107,121.191499 639.1548,119.941258 635.355476,118.934684 C631.556286,117.949329 630.821848,114.215593 632.577782,114.726208 C634.333744,115.222087 645.159028,120.69353 647.202284,118.21215 C649.203023,115.711669 650.714154,111.248997 648.183512,109.233785 C645.691101,107.271541 639.644329,103.277047 634.08894,102.291797 C634.08894,102.291797 635.600149,94.0740637 633.067312,92.5906334 C630.5749,91.0861169 629.310716,90.0795696 627.552401,92.0714723 C625.777284,94.0739843 623.75321,98.5388265 619.99635,99.0388593 C616.216209,99.545321 611.19313,95.5592666 607.65983,95.0613504 C604.145843,94.5739641 600.101664,94.073852 597.834848,92.5905011 C595.56806,91.0859847 596.568416,87.110513 594.791263,86.36893 C593.035302,85.6166587 589.768183,84.1099993 586.498922,87.3437028 C583.229661,90.5986776 580.964962,88.839753 578.942873,88.839753 C576.940016,88.839753 566.606351,87.1105923 564.358849,90.5985718 C562.070789,94.0739314 560.559659,97.5617256 564.092801,102.524749 C564.092801,102.524749 568.117667,103.520713 570.403531,103.520713 C572.651164,103.520713 581.473566,103.520713 579.717632,105.777501 C577.96167,108.004631 568.362391,107.019275 568.362391,107.019275 C568.362391,107.019275 566.114758,109.23368 567.870719,113.484513 C569.628823,117.705689 569.873602,116.981038 572.651191,117.216239 C575.428885,117.449323 576.940095,117.705742 574.428424,120.439201 C571.916857,123.172713 567.381137,121.445748 564.850548,121.445748 C562.315594,121.445748 555.781172,120.206117 554.512835,125.166891 C553.267701,130.138116 557.047789,135.122305 559.538031,135.618103 C562.070868,136.126682 567.626127,133.6262 567.626127,135.122252 C567.626127,136.626794 568.36255,138.862443 564.358981,138.608194 C560.315067,138.343308 545.709613,134.632801 542.953348,134.378551 C540.175654,134.134885 535.397299,134.865911 534.375804,139.614873 C533.354149,144.331848 538.643278,147.565658 542.708624,148.805157 L542.707619,148.80521 Z M872.411722,447.237428 L862.608172,448.405044 L865.93696,487.182712 L876.251392,486.449516 L875.538356,473.45766 L916.916723,469.206853 L915.937665,455.746714 L874.067201,460.228488 L872.411273,447.236633 L872.411722,447.237428 Z M753.255781,764.665596 L743.409635,772.514522 L763.691384,798.41992 C770.881272,808.161299 764.304388,813.753199 757.278266,813.143106 C753.847354,812.816973 751.376028,810.091583 751.376028,810.091583 L729.868273,784.694684 L720.064721,792.931467 L744.942009,822.740295 C749.147841,827.499866 752.172378,827.864175 756.869775,827.275776 C765.998678,826.156471 777.009186,818.674421 779.458817,809.443394 C782.074677,799.659684 773.903693,789.350545 773.903693,789.350545 L753.255781,764.665596 Z M578.482445,854.179387 L564.124098,868.61684 L571.067145,875.935837 L579.666121,868.129507 L586.611283,903.592144 L598.824251,901.925051 L588.52887,852.308049 L578.482709,854.178965 L578.482445,854.179387 Z M486.529341,878.355572 C485.486415,880.858831 482.811108,883.340554 478.072968,882.036765 C468.799345,877.806859 474.661105,865.934125 480.624987,866.21827 C483.668572,866.339178 486.405788,868.576573 487.161393,873.901577 C487.201871,874.187866 487.550889,875.895623 486.529235,878.355572 L486.529341,878.355572 Z M494.332232,864.6306 C490.245722,860.095913 484.975535,859.140029 480.810183,858.896627 C471.047111,858.366857 464.75543,866.582315 464.591398,874.797932 C464.55092,877.646267 464.612564,880.412057 466.349476,882.892641 C470.065857,888.218387 474.109772,889.499687 477.398346,889.603927 C485.220286,889.805263 490.205268,881.589647 486.691018,892.246164 C484.854179,897.857642 481.78911,899.404568 477.481157,899.605904 C473.784089,899.80962 469.820867,899.281279 465.408673,896.963641 L464.510493,905.339586 C464.470015,905.869356 479.952244,911.563538 490.920157,903.714691 C494.983386,900.807623 499.497703,890.762786 499.04873,880.654982 C498.863534,876.607098 499.53826,870.426271 494.33202,864.630389 L494.332232,864.6306 Z M534.24225,859.627627 L517.96182,872.15305 L524.191857,880.432163 L533.505958,873.333286 L535.874897,910.425659 L547.61958,909.489461 L544.98245,858.914724 L534.242329,859.626728 L534.24225,859.627627 Z M618.186893,864.834053 L622.967365,876.62874 L661.692121,862.698463 L657.403215,850.640268 L618.186365,864.834053 L618.186893,864.834053 Z M865.716311,510.551621 L917.616532,510.551621 L917.616532,496.398315 L865.941194,496.398315 L865.717634,510.551621 L865.716311,510.551621 Z M898.009428,519.561734 C894.535921,520.108437 889.470246,524.032927 887.878078,531.131803 C883.201846,551.750348 875.418268,545.730112 873.887745,537.800493 C872.495723,530.479115 875.601138,523.708831 875.601138,523.708831 L865.533548,523.323171 C865.001449,526.840861 864.062817,532.350217 864.103242,538.654598 C864.509778,543.291144 865.165323,550.468333 872.272296,555.81683 C876.889,559.275258 891.675152,562.771518 895.638374,545.081737 C899.66324,527.226601 908.098184,531.517623 909.588229,538.938478 C910.916384,545.708762 908.466542,554.210641 908.466542,554.210641 L918.187018,555.206606 C918.880899,555.289151 919.106497,551.038343 918.636122,535.522778 C918.148709,518.68464 901.623369,518.970903 898.009376,519.561946 L898.009428,519.561734 Z M879.360061,589.370533 C877.176267,595.592104 876.929373,594.697865 876.929373,594.697865 L863.899155,591.442891 C863.899155,591.442891 865.042114,581.602035 870.354605,579.120656 C875.622409,576.681635 881.545812,583.168011 879.359955,589.370533 L879.360061,589.370533 Z M887.890778,576.893527 C887.901361,577.205029 887.866967,577.378797 887.795005,577.33218 C887.731243,577.281382 887.767489,577.116028 887.890778,576.893527 C887.835483,575.274584 886.460473,569.476904 881.626876,566.27061 C875.582036,562.263469 865.225009,562.651325 860.38501,574.767991 C855.953504,585.912106 854.421128,592.44084 853.891199,596.204313 C853.359101,599.861696 853.686953,600.919172 854.218971,601.061245 L904.174621,614.178241 L908.342089,600.940337 L888.407188,594.860839 C888.407188,594.860839 888.468832,589.654415 892.717258,586.969318 C894.209313,586.034813 896.578357,585.91192 899.315572,585.789002 C912.020107,585.303732 912.36722,585.384268 912.36722,585.384268 L915.287517,571.413248 C915.287517,571.413248 900.950335,572.24817 892.943199,573.975188 C889.86125,574.621499 888.307445,576.134508 887.890221,576.893103 L887.890778,576.893527 Z M827.908018,664.404542 L857.605728,694.197495 L816.920527,685.901451 L810.015842,698.202519 L863.56961,707.657635 L872.18975,692.773328 L834.626448,652.122522 L827.90696,664.404542 L827.908018,664.404542 Z M881.504116,648.583665 L870.270313,643.603974 L877.907056,624.223077 L869.32951,620.927888 L861.405183,640.531287 L851.111917,636.282596 L858.791255,616.21303 L850.415839,612.430508 L837.264186,645.982966 L885.791169,664.893463 L899.191782,630.364749 L890.573757,626.825893 L881.504381,648.582342 L881.504116,648.583665 Z M798.517208,713.818091 L840.83479,743.790951 L848.739805,732.932834 L806.401056,702.917642 L798.517208,713.815974 L798.517208,713.818091 Z M784.648311,731.999704 L813.814239,757.985795 L771.983461,745.703775 L760.238777,758.716794 L799.455628,793.205823 L807.564888,783.975061 L778.396314,758.230519 L820.044541,770.268873 L831.05505,757.539734 L792.777414,722.542736 L784.64884,731.999968 L784.648311,731.999704 Z M135.408228,471.893669 C141.393539,454.549148 149.29723,459.785471 149.951507,467.318503 C150.522787,474.192762 147.092325,482.357581 147.092325,482.357581 L156.691895,484.461794 C157.346409,484.603866 158.080503,480.403856 159.30606,464.959989 C160.695278,448.143016 144.232323,446.587623 140.59637,446.76991 C137.063864,446.922565 131.610598,450.247386 129.240866,457.100215 C122.295967,477.089353 115.188095,470.227794 114.575357,462.183881 C114.004287,454.763026 117.863931,448.407848 117.863931,448.407848 L107.87677,446.863064 C106.99793,450.287363 105.425658,455.686922 104.772334,461.94024 C104.669947,466.587371 104.526816,473.785725 111.02195,479.916284 C115.188095,483.870511 129.507022,488.985925 135.408201,471.893537 L135.408228,471.893669 Z M154.24729,631.42077 L146.159195,634.247675 L148.916253,641.831768 L137.621335,646.12279 C137.621335,646.12279 134.210795,641.486244 133.801509,635.304887 C133.617899,632.946373 134.107586,630.749034 135.333778,627.780056 C139.745441,617.28863 153.715933,614.665177 163.478476,620.541488 C173.302399,626.885817 171.873999,643.925292 172.138567,643.887195 L181.901903,642.300026 C181.901903,642.300026 180.472867,627.780294 175.693825,619.543512 C169.280178,608.503107 160.414518,603.743802 151.755487,603.622894 C147.037189,603.561515 141.747424,605.167678 136.804773,607.282393 C133.617793,608.644942 131.248326,610.880512 127.572688,615.195079 C127.041225,615.824433 117.931581,626.519365 127.449399,647.181298 C132.902931,658.975985 134.700403,660.236915 134.700403,660.236915 L162.538202,649.989154 L154.24639,631.421802 L154.24729,631.42077 Z M162.131403,571.311018 L122.917198,578.164113 L159.517477,553.110358 L157.107027,536.355029 L105.717423,544.367194 L107.392717,555.958427 L145.667708,550.285569 L109.781763,574.156708 L112.170305,591.178985 L163.824477,583.836441 L162.129155,571.310755 L162.131403,571.311018 Z M156.411982,503.970636 L104.511762,503.737551 L104.246559,517.909906 L156.165299,518.134524 L156.409759,503.970636 L156.411982,503.970636 Z M249.346632,746.372733 L241.339494,736.449068 L218.669494,754.954776 C204.839753,766.260013 195.629361,752.411912 200.409039,746.249709 C207.659779,736.938519 220.261396,730.511379 229.410936,722.297879 L221.69112,711.456694 C221.69112,711.456694 194.935401,732.909948 194.014706,734.334116 C193.055199,735.717883 181.821845,743.157973 190.113657,758.574061 C200.202941,777.158345 217.115424,770.87513 223.793109,766.158154 C230.431638,761.420014 249.345044,746.372469 249.345044,746.372469 L249.346632,746.372733 Z M205.187658,685.247043 L188.234963,694.437326 L179.861135,680.977186 L197.059085,670.097904 L190.603636,658.284168 L145.669481,684.068923 L152.122812,695.617826 L170.996005,685.694161 L178.635129,700.112301 L160.476798,710.502133 L166.706836,722.805319 L211.416108,696.795946 L205.186336,685.247043 L205.187658,685.247043 Z M256.86035,796.984509 L247.790974,788.016727 L265.235766,778.336729 L256.86035,796.984509 Z M217.889547,789.216011 L227.448374,798.183795 L237.986365,792.754867 L252.570388,806.683556 L247.547308,817.094555 L258.04482,827.020072 L279.816614,775.979697 L267.848371,764.144795 L217.890077,789.217599 L217.889547,789.216011 Z M413.995099,859.282923 L419.48858,868.515802 L428.823847,864.489612 L421.142392,901.132221 L433.357477,903.490523 L443.897584,854.812736 L433.602202,852.451868 L413.995099,859.28406 L413.995099,859.282923 Z M350.350724,859.038726 L389.117811,874.412748 L393.651441,861.884416 L355.172733,847.000638 L350.351784,859.038726 L350.350724,859.038726 Z M1010.34098,530.525176 C1005.23695,539.332102 984.425002,546.000791 980.992502,547.100334 C977.56159,548.195883 973.189611,551.368075 973.189611,551.368075 C971.146328,544.985382 972.189255,538.437599 973.068175,529.976199 C973.925955,521.476701 995.31037,510.332586 1001.39542,507.365725 C1007.52334,504.394896 1012.7123,499.37261 1012.7123,499.37261 C1017.02237,508.787511 1015.50904,521.639675 1010.34122,530.525441 L1010.34098,530.525176 Z M1006.89076,573.636462 C1000.8438,582.036483 979.153492,586.975958 975.518334,587.791885 C971.92339,588.622574 967.083391,591.513027 967.083391,591.513027 C965.755236,584.780842 967.594219,578.173531 969.492781,569.671917 C971.37219,561.172419 994.103915,552.081612 1000.45777,549.744158 C1006.80898,547.404719 1012.44718,542.971758 1012.44718,542.971758 C1015.71644,552.632442 1012.89628,565.238823 1006.89205,573.637785 L1006.89076,573.636462 Z M1000.0075,616.176282 C993.430618,624.169396 971.476535,627.767515 967.799046,628.356708 C964.121027,628.966985 959.138428,631.528873 959.138428,631.528873 C958.218949,624.737424 960.507009,618.269804 962.916452,609.893331 C965.349256,601.535641 988.61099,593.871119 995.127553,591.917287 C1001.58089,589.965625 1007.48524,585.918218 1007.48524,585.918218 C1010.11811,595.780239 1006.54446,608.166234 1000.00803,616.17681 L1000.0075,616.176282 Z M988.671311,657.967374 C981.298342,665.206208 959.034452,666.424542 955.341089,666.668209 C951.620476,666.852612 946.373835,668.884755 946.373835,668.884755 C946.229117,662.054944 949.17058,655.831256 952.50175,647.778878 C955.828422,639.726499 979.810414,634.581454 986.466935,633.362854 C993.124777,632.099916 999.435507,628.703026 999.435507,628.703026 C1000.98926,638.7685 996.06624,650.726425 988.672105,657.966845 L988.671311,657.967374 Z M973.433807,699.713491 C965.571387,706.445678 943.286333,706.138514 939.569157,706.121582 C935.85066,706.03692 930.459567,707.725708 930.459567,707.725708 C930.806495,700.89378 934.197113,694.894711 938.057947,687.085998 C941.938095,679.279403 966.223811,675.780762 972.943828,674.986265 C979.684479,674.193727 986.21877,671.224908 986.21877,671.224908 C987.036072,681.394356 981.318979,692.94326 973.433277,699.713544 L973.433807,699.713491 Z M955.3186,738.898593 C946.821748,744.878615 924.700195,742.437449 921.004187,742.070759 C917.30712,741.642715 911.794325,742.782763 911.794325,742.782763 C912.771294,736.010362 916.715282,730.379835 921.331986,722.978029 C925.967738,715.555057 950.458229,714.417151 957.257616,714.251796 C964.038748,714.130889 970.820144,711.77248 970.820144,711.77248 C970.696591,721.980026 963.815453,732.96302 955.3186,738.898593 Z M934.015091,776.964575 C925.150226,782.374453 903.174449,778.570844 899.539291,777.941465 C895.882703,777.309995 890.306148,778.102586 890.306148,778.102586 C891.736452,771.393682 896.044354,766.024019 901.131458,758.927258 C906.197133,751.830498 930.749798,752.216237 937.5095,752.481069 C944.309944,752.76503 951.214629,750.855752 951.214629,750.855752 C950.3973,761.023083 942.881808,771.535675 934.016943,776.964602 L934.015091,776.964575 Z M908.48432,812.958994 C899.127624,817.451086 877.680718,811.433047 874.130221,810.434993 C870.556442,809.439028 864.918243,809.663646 864.918243,809.663646 C867.021158,803.137028 871.863407,798.233533 877.663257,791.685486 C883.444058,785.139819 907.808086,788.006938 914.530748,788.962556 C921.229069,789.937302 928.337999,788.759103 928.337999,788.759103 C926.479862,798.763197 917.880967,808.48341 908.485908,812.9591 L908.48432,812.958994 Z M881.03279,846.551137 C871.312312,850.271752 850.43555,842.484205 846.982944,841.183062 C843.492239,839.901681 837.854039,839.636797 837.854039,839.636797 C840.550777,833.313632 845.780484,828.818629 852.110263,822.800245 C858.442423,816.740061 882.461454,821.660408 889.080935,823.16683 C895.696182,824.709735 902.845591,824.101336 902.845591,824.101336 C900.150971,833.944307 890.753796,842.891453 881.031202,846.550953 L881.03279,846.551137 Z M850.252998,877.055778 C840.225888,879.860988 820.18754,870.243428 816.838115,868.655494 C813.509326,867.049674 807.91134,866.278327 807.91134,866.278327 C811.138006,860.215761 816.797635,856.229257 823.640411,850.781811 C830.500384,845.330925 853.988957,852.366016 860.444406,854.480994 C866.876572,856.595815 874.04503,856.637987 874.04503,856.637987 C870.452203,866.155012 860.278257,874.247869 850.251147,877.05546 L850.252998,877.055778 Z M816.470365,905.562934 C806.239009,907.433638 787.16157,896.046173 783.997342,894.134938 C780.789725,892.263386 775.313441,891.00431 775.313441,891.00431 C779.072153,885.270601 785.076513,881.791537 792.41112,877.012654 C799.74361,872.172655 822.476578,881.322724 828.704499,884.007292 C834.872628,886.690006 842.062515,887.38529 842.062515,887.38529 C837.588678,896.575839 826.703839,903.691118 816.4701,905.562669 L816.470365,905.562934 Z M780.788137,930.167189 C770.369467,931.224189 752.561423,918.312709 749.558582,916.17712 C746.59569,914.021609 741.246927,912.33454 741.246927,912.33454 C745.576311,906.906144 751.927519,903.935579 759.708981,899.747739 C767.530921,895.536881 789.242659,906.497122 795.168972,909.669286 C801.090259,912.841452 808.156594,914.123546 808.156594,914.123546 C802.765236,922.928355 791.203633,929.152308 780.789725,930.167189 L780.788137,930.167189 Z M743.28833,952.110158 C732.82918,952.008564 716.450597,937.325593 713.714968,934.88628 C710.999181,932.445327 705.869481,930.187825 705.869481,930.187825 C710.773505,925.267662 717.392986,922.970686 725.602252,919.633166 C733.811784,916.25993 754.239047,929.417404 759.771155,933.199133 C765.305114,937.001234 772.209799,939.014328 772.209799,939.014328 C765.899069,947.168565 753.726314,952.129207 743.287272,952.110158 L743.28833,952.110158 Z M703.785747,970.918531 C693.492481,970.10734 678.335934,954.203681 675.802435,951.561446 C673.290868,948.916643 668.367822,946.314277 668.367822,946.314277 C673.514454,941.758422 680.214628,939.969417 688.507234,937.202305 C696.821006,934.498689 716.061946,949.119487 721.289801,953.309707 C726.519244,957.51792 733.158038,960.020199 733.158038,960.020199 C726.417385,967.705888 714.080864,971.772555 703.785747,970.918266 L703.785747,970.918531 Z M663.01853,985.906813 C652.680816,984.218104 638.854251,967.178868 636.566271,964.351965 C634.25903,961.4822 629.540414,958.473273 629.540414,958.473273 C635.157449,954.388085 642.062133,953.145676 650.720636,951.113533 C659.340776,949.079855 677.415503,965.225302 682.299421,969.842271 C687.158734,974.417437 693.65466,977.48748 693.65466,977.48748 C686.139089,984.58477 673.332432,987.593696 663.020381,985.906813 L663.01853,985.906813 Z M620.737986,997.720548 C610.66828,994.953172 598.802161,976.489266 596.841979,973.440653 C594.839097,970.348917 590.509819,966.852392 590.509819,966.852392 C596.533229,963.395552 603.540036,962.906632 612.364688,961.808677 C621.146744,960.711012 637.365264,978.727242 641.694648,983.829428 C646.045198,988.93426 652.151682,992.636618 652.151682,992.636618 C643.85934,998.900256 630.786262,1000.52602 620.736928,997.72002 L620.737986,997.720548 Z M577.928308,1005.83431 C568.124756,1002.19386 557.971977,982.793646 556.277686,979.561954 C554.581331,976.307243 550.558528,972.463076 550.558528,972.463076 C556.909738,969.535372 563.916545,969.638817 572.779559,969.331655 C581.644424,968.985626 596.186116,988.366762 600.067058,993.815002 C603.908844,999.265095 609.668479,1003.51379 609.668479,1003.51379 C600.884307,1009.00674 587.692439,1009.47449 577.928308,1005.83402 L577.928308,1005.83431 Z M534.137084,1009.71657 C524.699695,1005.24591 516.326395,985.010458 514.936358,981.656536 C513.508169,978.280917 509.851633,974.071913 509.851633,974.071913 C516.428519,971.713583 523.435326,972.423894 532.257597,972.912974 C541.120346,973.360093 553.865623,993.917257 557.217695,999.692504 C560.606276,1005.46695 565.918793,1010.20589 565.918793,1010.20589 C556.685649,1014.92234 543.531878,1014.23208 534.136291,1009.71586 L534.137084,1009.71657 Z M490.388191,1009.73774 C481.401889,1004.46993 474.782409,983.607191 473.699004,980.12998 C472.596472,976.671554 469.329407,972.157765 469.329407,972.157765 C476.070058,970.348308 482.953578,971.670167 491.775847,972.891174 C500.560021,974.092258 511.425546,995.645308 514.284198,1001.68406 C517.144703,1007.72335 522.044494,1012.90834 522.044494,1012.90834 C512.404711,1016.79299 499.374494,1015.00176 490.388984,1009.73644 L490.388191,1009.73774 Z M447.229284,1006.23883 C438.711266,1000.20193 433.973391,978.890481 433.177306,975.310882 C432.381275,971.772026 429.480239,967.015101 429.480239,967.015101 C436.384923,965.794308 443.12346,967.70549 451.784079,969.638289 C460.444698,971.590136 469.431,993.999142 471.738294,1000.24082 C474.047652,1006.50446 478.500376,1012.07546 478.500376,1012.07546 C468.573272,1015.14894 455.726135,1012.26012 447.22849,1006.23962 L447.229284,1006.23883 Z M404.559827,998.555524 C396.554805,991.943452 393.408832,970.328811 392.838424,966.728046 C392.3063,963.109025 389.792723,958.148119 389.792723,958.148119 C396.759051,957.43548 403.335936,959.813704 411.832789,962.375645 C420.30821,964.939092 427.600221,987.959064 429.47971,994.343343 C431.318693,1000.72789 435.32242,1006.62563 435.32242,1006.62563 C425.210118,1008.98391 412.609824,1005.16135 404.561149,998.554202 L404.559827,998.555524 Z M361.953865,987.309815 C354.642804,979.908008 353.661523,958.067162 353.497492,954.469043 C353.335841,950.828593 351.332879,945.621817 351.332879,945.621817 C358.339686,945.603383 364.650417,948.612046 372.81947,952.009094 C381.031118,955.425189 385.954192,979.013505 387.158768,985.561552 C388.342177,992.109071 391.775472,998.37112 391.775472,998.37112 C381.439875,999.693006 369.305483,994.669291 361.953415,987.309815 L361.953865,987.309815 Z M315.670415,939.316728 C315.793968,935.677866 314.199683,930.329898 314.199683,930.329898 C321.185325,930.878743 327.232016,934.375135 335.115866,938.424608 C342.999715,942.43016 346.02187,966.323257 346.675353,972.993005 C347.350053,979.601109 350.249132,986.0891 350.249132,986.0891 C339.853742,986.61887 328.151654,980.639009 321.429785,972.707537 C314.731728,964.777918 315.527812,942.936014 315.670415,939.316728 Z M275.350316,900.806274 C275.350316,900.806274 262.852145,883.337406 242.303182,879.554354 C242.303182,879.554354 234.970692,863.593522 210.605341,854.725747 C210.605341,854.725747 205.580144,837.402391 182.092895,828.089083 C182.092895,828.089083 179.682631,812.875655 155.437712,797.34104 C155.437712,797.34104 152.680654,780.628042 131.827172,765.579704 C131.827172,765.579704 130.171668,746.465755 111.259425,731.865859 C111.259425,731.865859 112.321082,715.619029 93.5707024,695.281455 C93.5707024,695.281455 93.8982635,673.300388 79.2737354,658.231413 C79.2737354,658.231413 80.9490302,635.07011 67.9997176,620.451164 C67.9997176,620.451164 72.1044834,600.582933 60.3605937,582.972522 C57.6236422,578.456882 62.0350419,576.017834 61.8722005,570.018764 C61.7491765,563.979481 59.4617518,549.095174 55.6630641,541.408428 C55.6630641,541.408428 64.3231545,525.91588 54.5805331,502.101624 C54.5805331,502.101624 63.5673643,488.569258 57.3375917,461.778881 C57.3375917,461.778881 67.3861326,448.661886 63.2615241,422.167824 C63.2615241,422.167824 73.636806,413.880246 72.5541955,384.080678 C72.5541955,384.080678 83.972138,376.842109 85.3605887,346.44065 C85.3605887,346.44065 99.371558,336.811713 101.333062,309.845663 C101.333062,309.845663 114.916225,304.721783 120.246468,275.216414 C120.246468,275.216414 135.645888,268.149286 142.346327,242.986792 C142.346327,242.986792 150.249753,237.579032 154.825714,231.995333 C159.420194,226.434917 165.344127,217.549679 167.611471,210.919087 C167.611471,210.919087 177.987546,206.566421 184.379499,197.986496 C190.793145,189.404188 194.5926,181.565845 194.5926,181.565845 C194.5926,181.565845 212.259365,177.94656 225.229525,154.915953 C225.229525,154.915953 242.303923,153.716562 257.070233,131.591411 C257.070233,131.591411 273.797781,130.228836 290.871384,111.41152 C290.871384,111.41152 309.459108,111.706063 326.532448,93.4950046 C326.532448,93.4950046 344.792372,96.3430746 363.706837,79.0366516 C363.706837,79.0366516 380.310833,83.3998999 402.082362,67.9137018 C402.082362,67.9137018 417.177265,74.0654269 440.788597,60.5224776 C440.788597,60.5224776 455.127895,66.8371764 480.862647,55.7036439 C480.862647,55.7036439 492.892535,64.4362256 520.936698,55.1145578 C520.936698,55.1145578 536.948856,63.9892123 560.068887,57.6446968 C560.068887,57.6446968 572.286087,67.2947989 599.246052,63.6839807 C599.246052,63.6839807 611.114288,75.8749898 638.542273,72.9972882 C638.542273,72.9972882 645.853333,84.7517608 676.327812,85.5039264 C676.327812,85.5039264 682.127663,97.5528626 712.295775,101.324802 C712.295775,101.324802 719.138815,114.878334 747.628772,120.449334 C747.628772,120.449334 753.716208,134.144938 780.369009,141.983282 C780.369009,141.983282 784.945235,155.973351 810.701681,166.66188 C810.701681,166.66188 817.542606,183.813531 839.502506,193.777411 C839.502506,193.777411 841.339347,208.061942 866.155043,223.871971 C866.155043,223.871971 867.830127,239.387801 889.767964,256.101593 C889.767964,256.101593 891.768703,274.910231 910.356348,289.661989 C910.356348,289.661989 911.10981,309.701923 928.003269,325.352154 C928.003269,325.352154 926.204739,344.171639 942.34045,362.381031 C942.34045,362.381031 940.829266,385.724622 953.614732,400.47876 C953.614732,400.47876 949.038508,418.53735 961.253592,439.624178 C961.253592,439.624178 955.268544,457.244113 965.8277,478.777533 C965.8277,478.777533 958.026926,496.386885 966.851498,518.838354 C966.851498,518.838354 958.188762,529.514185 963.807912,559.467995 C963.807912,559.467995 954.515242,570.773232 958.027111,597.433441 C958.027111,597.433441 947.2018,611.565583 948.755605,635.359203 C948.755605,635.359203 937.008805,648.616154 936.255316,673.914634 C936.255316,673.914634 922.386421,684.143346 920.077009,710.356171 C920.077009,710.356171 907.291517,718.323889 900.878399,745.268508 C900.878399,745.268508 885.049321,756.249384 879.57489,777.924083 C879.57489,777.924083 862.049405,787.114366 854.127194,810.299217 C854.127194,810.299217 839.053721,814.832317 827.307979,837.708417 C827.307979,837.708417 827.307979,838.17694 820.609657,841.469773 C813.909219,844.763376 803.697176,854.72699 796.998854,864.652771 C796.998854,864.652771 794.874667,865.42433 788.010435,868.271791 C781.150463,871.139174 771.387391,878.9672 764.993586,888.911765 C764.993586,888.911765 745.792859,890.558275 730.718857,909.672118 C730.718857,909.672118 714.56198,908.167363 695.242992,927.139397 C695.242992,927.139397 676.942588,925.353012 657.764351,942.047251 C657.764351,942.047251 640.504755,937.654372 620.428574,953.188985 C620.428574,953.188985 602.128172,948.391317 580.968322,961.343222 C580.968322,961.343222 564.954046,954.409965 541.201171,965.674723 C541.201171,965.674723 525.514695,957.865746 501.576886,966.592084 C501.576886,966.592084 486.501032,957.399684 461.807089,964.169994 C461.807089,964.169994 449.940969,954.246859 422.532033,958.619896 C422.532033,958.619896 412.768961,947.334502 383.643246,948.959212 C383.643246,948.959212 372.390129,935.579236 345.857706,936.331666 C345.857706,936.331666 335.524226,922.181005 310.686093,920.206008 C310.686093,920.206008 298.798808,904.405768 275.350449,900.807385 L275.350316,900.806274 Z M281.641998,954.447349 C275.759074,945.907372 278.721701,924.231086 279.211336,920.651487 C279.722137,917.032467 278.681354,911.582639 278.681354,911.582639 C285.564609,912.802798 291.241171,916.869758 298.675784,921.648113 C306.131828,926.405303 306.763879,950.501851 306.763879,957.150435 C306.763879,963.799812 308.971061,970.572477 308.971061,970.572477 C298.594985,970.064322 287.524948,962.986266 281.641231,954.446289 L281.641998,954.447349 Z M243.938474,932.525809 C238.749246,923.560143 243.406375,902.22753 244.183199,898.647932 C244.960101,895.090291 244.387445,889.580671 244.387445,889.580671 C251.128098,891.308351 256.479241,895.802242 263.524146,901.170319 C270.571433,906.497651 269.283782,930.534672 268.73454,937.201776 C268.202442,943.832103 269.877525,950.704247 269.877525,950.704247 C259.541928,949.445936 249.103944,941.516079 243.938262,932.525014 L243.938474,932.525809 Z M232.9068,928.257805 C222.715922,926.142772 212.933536,917.397571 208.500706,908.062832 C204.069199,898.691056 210.482714,877.783074 211.544556,874.288137 C212.607086,870.831562 212.44234,865.258181 212.44234,865.258181 C219.061291,867.537007 224.003677,872.458917 230.601728,878.335227 C237.176497,884.213919 233.909353,908.08585 232.8664,914.676228 C231.763868,921.261844 232.906879,928.259127 232.906879,928.259127 L232.9068,928.257805 Z M198.552701,887.932416 C197.041941,894.542108 197.674733,901.740197 197.674733,901.740197 C187.951876,899.178256 179.148919,889.865081 175.594453,880.265777 C172.08179,870.751662 179.720913,850.414617 180.987928,847.059901 C182.234333,843.703333 182.498689,838.33605 182.498689,838.33605 C188.543792,840.75814 192.874763,845.718808 198.757159,851.717613 C204.63929,857.695782 200.003352,881.343889 198.552648,887.931622 L198.552701,887.932416 Z M166.526797,859.546961 C164.422426,865.971984 164.340887,873.19177 164.340887,873.19177 C154.925985,869.73493 147.041607,859.64882 144.406779,849.766956 C141.853517,839.964727 151.41147,820.421121 152.985382,817.190752 C154.557443,813.976521 155.354135,808.649188 155.354135,808.649188 C161.134143,811.6179 164.974341,816.945762 170.243204,823.471851 C175.534291,830.041063 168.630268,853.121938 166.526823,859.548284 L166.526797,859.546961 Z M133.744229,842.140796 C124.695754,837.747916 117.874144,826.949062 116.26134,816.862687 C114.647557,806.860447 126.106164,788.355532 128.004965,785.305068 C129.904799,782.253545 131.190887,777.047121 131.190887,777.047121 C136.665055,780.545762 139.974001,786.239521 144.549434,793.234687 C149.165344,800.248903 139.974001,822.559357 137.278588,828.760821 C134.540578,834.961755 133.743965,842.140532 133.743965,842.140532 L133.744229,842.140796 Z M111.032162,794.415452 C107.784595,800.393357 106.436094,807.509166 106.436094,807.509166 C97.7760038,802.427616 91.811328,791.160478 90.9951371,780.951874 C90.1786816,770.865235 103.087198,753.296625 105.211675,750.410193 C107.355863,747.521909 109.050286,742.398029 109.050286,742.398029 C114.238456,746.341674 117.056895,752.281215 121.080967,759.579311 C125.124883,766.959953 114.238456,788.478028 111.032426,794.414924 L111.032162,794.415452 Z M87.9727171,757.973915 C84.2745917,763.667939 82.3347823,770.643791 82.3347823,770.643791 C74.0837135,764.888389 69.0992605,753.155082 69.1201613,742.927693 C69.1413267,732.843171 83.4173927,716.32807 85.7868598,713.645355 C88.1355849,710.922425 90.2596392,705.959667 90.2596392,705.959667 C95.100432,710.271854 97.4291558,716.412996 100.839432,724.018255 C104.271402,731.682778 91.6480898,752.303175 87.9724525,757.975503 L87.9727171,757.973915 Z M61.4604011,732.434944 C53.8212771,725.927375 49.9808143,713.808329 50.9620953,703.642055 C51.9422388,693.555417 67.7716604,678.467657 70.3657454,675.986807 C72.9596717,673.505375 75.5539155,668.786336 75.5539155,668.786336 C79.9653152,673.547758 81.72125,679.871188 84.3560785,687.760329 C87.032444,695.708996 72.5100656,715.047828 68.3021183,720.355053 C64.075387,725.684501 61.4604011,732.435737 61.4604011,732.435737 L61.4604011,732.434944 Z M43.444937,692.21009 C36.4193453,685.094281 33.600907,672.710403 35.4383287,662.644664 C37.2973127,652.65962 54.3115207,638.974863 57.1302236,636.718101 C59.9071248,634.459197 62.9300739,629.945701 62.9300739,629.945701 C66.9126095,635.090746 68.1182439,641.51577 70.0585825,649.610478 C72.0599567,657.762599 55.9452255,675.800022 51.2885717,680.742144 C46.6316534,685.704903 43.444937,692.21062 43.444937,692.21062 L43.444937,692.21009 Z M24.290245,620.75039 C27.088047,610.99208 45.3884504,598.972775 48.3717143,596.980846 C51.3938697,595.007992 54.7853613,590.799489 54.7853613,590.799489 C58.2572815,596.309109 58.8501774,602.818793 60.0132164,611.032294 C61.2181365,619.347388 43.4287984,635.778622 38.3213215,640.253782 C33.1757468,644.748255 29.3752336,650.929612 29.3752336,650.929612 C23.0846106,643.201329 21.4511704,630.552619 24.290245,620.75039 Z M16.7535086,578.252901 C20.2262227,568.695927 39.2608009,557.878024 42.3861377,556.087431 C45.5114743,554.339221 49.1886989,550.353192 49.1886989,550.353192 C52.292341,556.047216 52.415365,562.594999 53.0688469,570.891045 C53.7016396,579.22942 34.869773,594.480418 29.4781504,598.628308 C24.0656272,602.798687 19.8579446,608.714946 19.8579446,608.714946 C14.0771431,600.582139 13.3220674,587.871784 16.7535086,578.252637 L16.7535086,578.252901 Z M12.7294359,565.604191 C7.7666775,556.941455 8.29792918,544.233481 12.7109163,534.980495 C17.0807788,525.830425 37.1180681,516.940955 40.4270148,515.457525 C43.7351676,514.012324 47.7991901,510.414072 47.7991901,510.414072 C50.2917869,516.391976 49.7605353,522.901662 49.5559981,531.23607 C49.352281,539.614924 29.0705312,552.914208 23.2894653,556.514443 C17.4687142,560.112562 12.7295154,565.603133 12.7295154,565.603133 L12.7294359,565.604191 Z M12.4226434,491.432672 C17.5301203,482.649294 38.2407342,475.42951 41.6705882,474.230224 C45.0618152,473.049909 49.4128935,469.79713 49.4128935,469.79713 C51.3931818,475.948855 50.3523729,482.395044 49.4525787,490.680507 C48.5339207,498.987135 27.2103831,510.618848 21.1650141,513.750799 C15.0781081,516.88275 9.87009551,521.947367 9.87009551,521.947367 C5.64230575,512.896774 7.23614016,500.299125 12.4225376,491.432143 L12.4226434,491.432672 Z M16.2837425,447.755212 C22.1052873,439.405989 43.3251937,433.794776 46.8174857,432.860323 C50.3111004,431.944893 54.9055808,429.056636 54.9055808,429.056636 C56.3971863,435.33112 54.824094,441.686297 53.2717967,449.859583 C51.7203725,458.104831 29.5390275,468.049661 23.248669,470.673114 C16.9366159,473.305005 11.3193173,477.973326 11.3193173,477.973326 C7.84739708,468.638854 10.4205548,456.153381 16.2828694,447.754419 L16.2837425,447.755212 Z M22.9217428,405.091047 C29.375075,397.223071 50.9844248,393.287893 54.540213,392.626738 C58.09362,391.976193 62.8934048,389.443991 62.8934048,389.443991 C63.8943962,395.818217 61.8108738,402.041905 59.6458379,410.073118 C57.4201103,418.165711 34.5235599,426.351697 28.0273678,428.477232 C21.5330276,430.621711 15.6093598,434.851458 15.6093598,434.851458 C12.873202,425.273319 16.406687,413.023047 22.9217428,405.090252 L22.9217428,405.091047 Z M34.7886566,362.154376 C42.1825264,355.148891 64.0974519,353.909127 67.7352559,353.695092 C71.3286126,353.502222 76.3942879,351.569688 76.3942879,351.569688 C76.5987986,358.026461 73.7594859,363.934518 70.5735369,371.639256 C67.3667133,379.39717 43.5929362,384.675822 36.8940853,385.985167 C30.1738045,387.318059 23.7403149,390.776485 23.7403149,390.776485 C22.2693722,380.922932 27.3138291,369.240421 34.7899794,362.155567 L34.7886566,362.154376 Z M49.514752,322.003601 C57.3782293,315.498149 79.3341627,315.699485 82.9719668,315.7397 C86.5859598,315.782031 91.7958244,314.186449 91.7958244,314.186449 C91.5495119,320.641105 88.2813087,326.34571 84.5847707,333.830063 C80.8675964,341.352777 56.8078216,345.063072 50.0057894,345.938262 C43.2246581,346.802815 36.565757,349.811795 36.565757,349.811795 C35.74864,339.909561 41.5909534,328.572311 49.5152812,322.003099 L49.514752,322.003601 Z M67.3661841,282.260261 C75.8424,276.545072 97.6776906,278.935441 101.251998,279.300014 C104.86705,279.6984 110.177185,278.630394 110.177185,278.630394 C109.320066,285.025786 105.500424,290.38275 101.047488,297.468928 C96.5744438,304.597436 72.2678275,305.919745 65.4472756,306.112615 C58.5857156,306.305484 51.6614532,308.674555 51.6614532,308.674555 C51.8453277,298.710676 58.8092753,287.99463 67.3677716,282.260393 L67.3661841,282.260261 Z M89.2202591,244.323917 C98.1263972,239.280466 119.693152,243.255911 123.270105,243.927648 C126.844413,244.578193 132.216193,243.909129 132.216193,243.909129 C130.846739,250.221711 126.639109,255.305376 121.656243,262.014281 C116.691633,268.776099 92.3262823,268.278182 85.5030847,267.983719 C78.6605737,267.659491 71.5725439,269.498845 71.5725439,269.498845 C72.5120233,259.585762 80.2733776,249.418695 89.2194653,244.324447 L89.2202591,244.323917 Z M114.09887,208.789847 C123.370905,204.498825 144.550598,210.283781 148.042889,211.228869 C151.515867,212.173984 156.94744,211.98114 156.94744,211.98114 C155.028426,218.154031 150.4531,222.851957 144.89771,229.124326 C139.342056,235.458073 115.117985,232.917431 108.337118,232.042241 C101.536144,231.177661 94.3269423,232.387634 94.3269423,232.387634 C96.1237794,222.586993 104.70143,213.12103 114.098341,208.789794 L114.09887,208.789847 Z M142.119222,174.951655 C151.719849,171.463597 172.327546,179.068856 175.698137,180.300153 C179.087777,181.539811 184.56168,181.813162 184.56168,181.813162 C182.090777,187.803765 177.086324,192.073622 171.000475,197.858656 C164.913834,203.694487 141.017033,199.05802 134.357867,197.625572 C127.659282,196.140104 120.346898,196.7398 120.346898,196.7398 C123.002627,187.132029 132.39848,178.450244 142.119222,174.951602 L142.119222,174.951655 Z M172.388397,144.153344 C182.314708,141.623179 202.086107,151.088983 205.353516,152.644376 C208.60029,154.218844 213.972599,154.981724 213.972599,154.981724 C210.94965,160.718079 205.557233,164.490018 198.959977,169.683745 C192.321711,174.9116 168.976534,168.077502 162.460234,166.013663 C155.965366,163.909452 148.632875,163.828918 148.632875,163.828918 C152.166439,154.51561 162.377954,146.736529 172.38681,144.153556 L172.388397,144.153344 Z M206.17103,115.796992 C216.301322,114.120825 235.090911,125.326452 238.196934,127.155143 C241.302428,128.996612 246.591398,130.246879 246.591398,130.246879 C243.058099,135.696972 237.338942,138.979462 230.313085,143.575793 C223.24675,148.172125 200.59421,139.305937 194.323959,136.66132 C187.992592,133.978605 180.72016,133.256071 180.72016,133.256071 C185.091874,124.298871 195.957664,117.466943 206.17103,115.797257 L206.17103,115.796992 Z M242.035809,90.9699718 C252.288596,90.1965085 270.019121,102.997743 272.918781,105.123278 C275.858128,107.22749 281.025926,108.946015 281.025926,108.946015 C277.003176,114.038147 271.017864,116.824573 263.583251,120.751285 C256.127208,124.72456 234.374991,113.887608 228.369307,110.694278 C222.303303,107.500947 215.134579,106.129958 215.134579,106.129958 C220.321691,97.5881294 231.738575,91.7308681 242.033165,90.9702363 L242.035809,90.9699718 Z M279.82135,69.2706689 C290.052706,69.484704 306.434202,83.9324744 309.130145,86.3228424 C311.848312,88.7025484 316.811599,90.8892787 316.811599,90.8892787 C312.337762,95.5956711 306.088676,97.7825866 298.304834,100.984383 C290.482894,104.217928 269.895569,91.344864 264.215302,87.5835069 C258.538741,83.8221497 251.510768,81.777307 251.510768,81.777307 C257.495816,73.7566765 269.44501,69.0375849 279.822143,69.2706689 L279.82135,69.2706689 Z M318.628121,49.883422 C328.840429,50.7373932 344.118412,66.6707634 346.608788,69.2918343 C349.141625,71.9152334 353.921964,74.4686279 353.921964,74.4686279 C349.101013,79.0628438 342.707209,80.9444483 334.721237,83.8009843 C326.673621,86.6786858 307.105675,72.1081561 301.737598,67.8996798 C296.325075,63.6404064 289.482034,61.1082302 289.482034,61.1082302 C296.05892,53.1870772 308.312367,49.0190798 318.629444,49.8836866 L318.628121,49.883422 Z M361.048885,35.2216165 C371.15907,37.1436205 384.434012,54.6109799 386.6413,57.4780986 C388.827209,60.3558 393.299142,63.4052058 393.299142,63.4052058 C387.88662,67.4821921 381.247825,68.6626926 372.915005,70.6546219 C364.49911,72.6592503 346.731017,56.1052575 341.870646,51.3372208 C336.990169,46.5588659 330.472811,43.2848423 330.472811,43.2848423 C338.030978,36.1161195 350.856949,33.2913315 361.048885,35.2218811 L361.048885,35.2216165 Z M402.53308,23.7023445 C412.458067,26.3045517 424.530551,44.6259353 426.510045,47.6668749 C428.472475,50.654901 432.761247,54.0220524 432.761247,54.0220524 C427.082569,57.7005999 420.382131,58.4424474 411.906709,59.8663501 C403.369642,61.2818659 386.804008,43.5687232 382.291015,38.4850575 C377.73622,33.3696435 371.465704,29.669666 371.465704,29.669666 C379.51332,23.0411902 392.481893,21.0683098 402.531228,23.7023445 L402.53308,23.7023445 Z M445.853373,15.7409772 C455.554802,19.2586676 465.76711,38.6289822 467.482566,41.8096134 C469.15765,45.0029441 473.080286,48.7240869 473.080286,48.7240869 C467.095239,51.8750866 460.354322,51.968479 451.797942,52.608468 C443.137323,53.2272122 428.327625,34.0731286 424.30408,28.6016067 C420.279214,23.0919872 414.376976,18.8221311 414.376976,18.8221311 C423.037595,12.9545516 436.108292,12.2021214 445.85258,15.7409772 L445.853373,15.7409772 Z M488.887934,11.7550022 C498.161557,16.1076679 506.698623,36.2682458 508.086544,39.5928019 C509.476424,42.8985736 513.071262,46.9543945 513.071262,46.9543945 C506.820059,49.5777936 500.121737,49.0988998 491.501597,48.9971736 C482.862143,48.8847323 469.791448,28.5101192 466.258412,22.6954533 C462.722995,16.8786707 457.229514,12.1296828 457.229514,12.1296828 C466.339105,7.00580271 479.452661,7.38307607 488.887669,11.7546318 L488.887934,11.7550022 Z M532.84319,12.1724369 C541.66546,17.4383898 548.0381,38.027038 549.100338,41.4230273 C550.121993,44.8071111 553.267807,49.1491941 553.267807,49.1491941 C546.773996,50.9906638 540.154514,49.7700812 531.617184,48.6618077 C523.018208,47.5641434 512.110088,26.2632527 509.23027,20.2234397 C506.290924,14.1333588 501.305942,8.87587211 501.305942,8.87587211 C510.905247,4.96185949 523.937581,6.85428486 532.842396,12.1710612 L532.84319,12.1724369 Z M575.859232,15.851249 C584.251579,21.689197 589.051364,42.7948103 589.849565,46.2818107 C590.645595,49.7508207 593.423342,54.3257232 593.423342,54.3257232 C586.805979,55.7581978 580.269573,54.111688 571.855795,52.4736707 C563.378257,50.8462099 554.104634,28.7422245 551.695216,22.5008109 C549.245401,16.1861121 544.688409,10.6042656 544.688409,10.6042656 C554.555721,7.23923068 567.401005,9.94311123 575.85976,15.8490531 L575.859232,15.851249 Z M618.830296,23.4057114 C626.654353,30.0172549 629.432048,51.4604564 629.900332,55.0083075 C630.351578,58.5048325 632.701309,63.3255181 632.701309,63.3255181 C626.000871,64.1583239 619.647545,61.9121189 611.397798,59.5324128 C603.124506,57.1124398 595.977213,34.2561565 594.178684,27.821344 C592.320573,21.3243582 588.316924,15.3358713 588.316924,15.3358713 C598.448274,12.9053155 610.989042,16.7492971 618.829502,23.4072987 L618.830296,23.4057114 Z M661.314556,34.8231247 C668.380891,42.1656686 668.974845,63.7932736 669.076968,67.3517074 C669.160043,70.909612 670.996829,75.9231675 670.996829,75.9231675 C664.256177,76.0737064 658.170859,73.2171704 650.225365,70.0045264 C642.218227,66.7709816 637.458921,43.3255327 636.273394,36.7378003 C635.13041,30.0775763 631.761195,23.7226633 631.761195,23.7226633 C642.096791,22.3304558 654.167422,27.4247573 661.313392,34.8244476 L661.314556,34.8231247 Z M701.756354,49.211632 C708.209687,57.0923062 707.005111,78.6871049 706.779435,82.2561214 C706.596353,85.7928607 708.026712,90.9484888 708.026712,90.9484888 C701.266746,90.5522195 695.4243,87.2167633 687.787293,83.3749776 C680.065359,79.5099101 677.287664,55.7699975 676.674661,49.100249 C676.061658,42.3701793 673.201153,35.771335 673.201153,35.771335 C683.638874,35.2034143 695.219789,41.2428568 701.755932,49.2124257 L701.756354,49.211632 Z M741.258939,67.6347947 C747.059052,76.011533 744.157806,97.4277486 743.70878,100.962371 C743.219252,104.490644 744.240906,109.748131 744.240906,109.748131 C737.542584,108.822092 731.963913,105.039622 724.631687,100.657325 C717.239669,96.2051819 716.341462,72.3115557 716.260505,65.610059 C716.175313,58.8588239 713.848997,52.0480609 713.848997,52.0480609 C724.265551,52.3023104 735.376066,59.1956184 741.258197,67.6337364 L741.258939,67.6347947 Z M779.637109,89.0372527 C784.641141,97.9140239 779.698754,118.978365 778.881504,122.449491 C778.064176,125.905802 778.575003,131.2543 778.575003,131.2543 C771.976952,129.688324 766.83032,125.418468 759.927753,120.343269 C752.982589,115.240554 754.372627,91.3678284 754.943034,84.6848517 C755.494288,77.9547818 753.840501,70.970198 753.840501,70.970198 C764.216577,72.1907805 774.592653,80.1096847 779.637162,89.0372527 L779.637109,89.0372527 Z M790.524065,93.5931063 C800.757539,95.5765428 810.499445,104.258354 814.849995,113.561079 C819.138899,122.772528 812.602362,143.412238 811.519089,146.819868 C810.418699,150.203952 810.537887,155.541867 810.537887,155.541867 C804.10572,153.518163 799.265721,148.862594 792.810008,143.300061 C786.294768,137.678265 789.502385,113.967455 790.564517,107.358557 C791.66705,100.698333 790.524039,93.5931063 790.524039,93.5931063 L790.524065,93.5931063 Z M824.999865,132.735878 C826.715401,126.22831 826.287568,119.040273 826.287568,119.040273 C836.314679,122.019569 845.136949,131.576543 848.529764,141.235375 C851.920462,150.832564 843.342653,170.750533 841.952879,174.047045 C840.522574,177.310487 840.113923,182.627236 840.113923,182.627236 C833.905316,179.984762 829.554766,174.911652 823.693007,168.719978 C817.727009,162.506873 823.263058,139.223339 824.999865,132.736143 L824.999865,132.735878 Z M856.208255,161.399128 C858.415437,155.043951 858.598491,147.85618 858.598491,147.85618 C868.340398,151.587904 876.388014,161.816616 879.001678,171.718851 C881.574967,181.540657 871.464941,200.715457 869.811129,203.887622 C868.136046,207.030156 867.278292,212.327857 867.278292,212.327857 C861.31441,209.195906 857.391666,203.786028 852.000309,197.166018 C846.60895,190.518494 853.941441,167.732876 856.208255,161.399128 Z M888.64424,179.568042 C898.079513,184.051933 905.250352,194.891002 907.065814,204.986107 C908.821776,214.992316 897.221785,233.281608 895.301817,236.310906 C893.381984,239.320098 892.11563,244.515941 892.11563,244.515941 C886.417904,240.926287 882.922966,235.223798 878.104132,228.218314 C873.242703,221.151185 882.435632,199.017992 885.170467,192.895898 C887.928848,186.714541 888.643975,179.566983 888.643975,179.566983 L888.64424,179.568042 Z M911.763476,226.438833 C915.156291,220.573369 916.624906,213.546454 916.624906,213.546454 C925.511201,218.985964 931.534611,230.494653 932.271167,240.714898 C932.965022,250.831168 919.485675,267.870113 917.237909,270.65601 C915.032843,273.472332 913.215159,278.494353 913.215159,278.494353 C907.923808,274.336675 905.065419,268.318556 901.000075,260.834203 C896.91568,253.311489 908.373044,232.25297 911.763741,226.437775 L911.763476,226.438833 Z M934.803872,261.721563 C938.664971,256.148447 940.72516,249.255139 940.72516,249.255139 C949.12174,255.396281 954.166251,267.373255 954.042697,277.600909 C953.961739,287.757658 939.049917,303.608165 936.600286,306.242994 C934.150443,308.845201 931.945485,313.736076 931.945485,313.736076 C927.022412,309.139744 924.674638,302.916057 921.24161,295.117927 C917.768102,287.290166 930.964467,267.22986 934.804137,261.718918 L934.803872,261.721563 Z M961.519906,288.300021 C969.382324,295.102318 973.40719,307.443601 972.42591,317.64321 C971.444682,327.748898 955.287753,342.33874 952.61218,344.740221 C949.958038,347.160167 947.344375,351.826398 947.344375,351.826398 C942.810745,346.86364 940.971736,340.449199 938.234784,332.417986 C935.45709,324.323276 950.286101,305.424157 954.574742,300.228051 C958.884812,295.011042 961.519906,288.301873 961.519906,288.301873 L961.519906,288.300021 Z M978.922103,328.024842 C986.33555,335.314472 989.540786,347.871907 987.906288,357.987119 C986.295045,368.001795 969.261153,381.544744 966.442979,383.790922 C963.644118,386.018053 960.70054,390.52311 960.70054,390.52311 C956.494709,385.284671 955.104936,378.768637 952.859286,370.582652 C950.611653,362.326821 966.60463,344.401574 971.221334,339.480088 C975.878252,334.538495 978.922103,328.022196 978.922103,328.022196 L978.922103,328.024842 Z M998.97844,400.630119 C996.324298,410.420179 978.021778,422.23603 974.999359,424.16658 C971.976939,426.118242 968.62672,430.288673 968.62672,430.288673 C964.948701,424.675343 964.216643,418.068032 962.824488,409.678595 C961.415454,401.251059 979.166562,385.002114 984.232237,380.557642 C989.37887,376.116083 993.054508,369.913561 993.054508,369.913561 C999.712351,377.915142 1001.63417,390.724975 998.977911,400.629855 L998.97844,400.630119 Z M1006.37046,443.048237 C1002.83716,452.59463 983.536689,462.732065 980.352354,464.399898 C977.166167,466.078211 973.44767,469.941267 973.44767,469.941267 C970.280531,464.033473 970.159095,457.385949 969.527043,448.916081 C968.892769,440.395419 988.029576,425.744196 993.463529,421.768804 C998.978175,417.793411 1003.20544,411.946998 1003.20544,411.946998 C1009.10767,420.46766 1009.88656,433.421418 1006.37046,443.04956 L1006.37046,443.048237 Z M1010.12917,455.626839 C1015.23532,464.645418 1014.82868,477.597323 1010.45697,486.880206 C1006.10642,496.07049 985.947958,504.489558 982.637689,505.881712 C979.327948,507.246379 975.243554,510.804257 975.243554,510.804257 C972.670265,504.620784 973.119368,497.973259 973.242816,489.501276 C973.363987,480.961564 993.750242,468.028972 999.548239,464.572662 C1005.39069,461.07402 1010.12883,455.626045 1010.12883,455.626045 L1010.12917,455.626839 Z M1020.11792,489.522442 C1020.11792,489.522442 1022.66991,480.209134 1021.9356,470.622528 C1021.13957,459.641652 1017.0337,448.162594 1017.0337,448.162594 C1017.0337,448.162594 1018.50234,435.412288 1016.6655,424.420565 C1014.56258,412.026103 1009.10733,401.208464 1009.10733,401.208464 C1009.10733,401.208464 1010.37374,391.397241 1007.59612,381.077518 C1004.7163,370.350891 997.835164,359.104917 997.835164,359.104917 C997.835164,359.104917 998.120369,349.264061 994.482829,339.209171 C990.583631,328.380685 982.678618,317.298214 982.678618,317.298214 C982.678618,317.298214 982.412568,307.25179 978.164301,297.908851 C973.243344,286.999937 964.195399,276.546607 964.195399,276.546607 C964.195399,276.546607 962.988573,267.102074 958.659322,259.475384 C952.348591,248.42228 942.197928,237.901222 942.197928,237.901222 C942.197928,237.901222 939.603366,228.687656 933.577787,220.23049 C926.224132,209.931932 915.156211,200.006152 915.156211,200.006152 C915.156211,200.006152 914.153739,193.712617 908.453657,186.819309 C900.73384,177.484837 887.663143,166.80054 887.663143,166.80054 C887.663143,166.80054 883.823475,158.432267 876.388861,151.204281 C868.462417,143.497164 856.902931,136.896468 856.902931,136.896468 C852.224583,127.716767 845.402972,121.575624 839.583808,117.509221 C833.741099,113.451283 821.692163,107.789008 821.692163,107.789008 C821.692163,107.789008 818.014144,100.539857 810.190088,95.0789178 C800.612212,88.4208103 786.581401,83.2948137 786.581401,83.2948137 C781.700922,76.5030996 776.837376,73.178279 768.687637,68.450721 C760.580493,63.7231631 751.062146,62.0362804 749.569985,61.2629494 C748.039619,60.5107044 742.073727,54.5519284 733.783238,49.9259644 C725.450418,45.3000005 708.497457,42.0259768 708.497457,42.0259768 C708.497457,42.0259768 701.450171,35.1728832 691.667785,31.716837 C680.514675,27.781659 666.422218,27.1715661 666.422218,27.1715661 C666.422218,27.1715661 660.375262,21.1513311 650.999517,18.6593691 C639.461196,15.6099633 624.103577,15.9872367 624.103577,15.9872367 C624.103577,15.9872367 616.688013,10.3358089 606.311937,8.15947604 C594.465131,5.67804391 579.495369,6.6443505 579.495369,6.6443505 C579.495369,6.6443505 569.506621,2.04801812 559.170759,1.1834113 C547.794354,0.217131173 535.949399,3.01429826 535.949399,3.01429826 C535.949399,3.01429826 527.267614,0.15564567 516.850795,0.00510672295 C505.310358,-0.1284999 491.952341,2.40388796 491.952341,2.40388796 C491.952341,2.40388796 481.027023,0.299649797 470.629517,1.22357266 C459.272162,2.25131185 448.406372,6.33898661 448.406372,6.33898661 C448.406372,6.33898661 436.601895,4.79206003 426.572932,6.55090523 C414.502566,8.65511694 403.798692,14.1773299 403.798692,14.1773299 C403.798692,14.1773299 392.688177,13.5267848 383.048657,16.128992 C371.52965,19.2418941 361.193789,25.6563348 361.193789,25.6563348 C361.193789,25.6563348 349.551228,25.9105841 339.298441,29.7439037 C328.392437,33.8208899 318.871708,41.5068424 318.871708,41.5068424 C318.871708,41.5068424 309.395957,40.7757629 299.754056,45.1557583 C289.543864,49.8346357 279.12731,59.6056452 279.12731,59.6056452 C279.12731,59.6056452 269.751565,60.3769919 261.031418,65.2380242 C250.123297,71.349535 239.421274,81.8089492 239.421274,81.8089492 C239.421274,81.8089492 229.983619,84.9006859 221.814831,90.6158745 C212.01128,97.4880172 203.207265,107.167751 203.207265,107.167751 C203.207265,107.167751 194.730785,109.729691 187.173941,115.972559 C178.186316,123.353201 169.894503,134.630922 169.894503,134.630922 C169.894503,134.630922 160.172704,139.021687 152.247582,146.931992 C143.872696,155.300264 137.215382,167.257924 137.215382,167.257924 C137.215382,167.257924 128.840496,172.095807 122.222338,179.946849 C115.339084,188.090504 110.171815,199.253668 110.171815,199.253668 C110.171815,199.253668 100.797657,206.229522 94.5062397,215.104175 C87.6642578,224.773592 83.864803,236.385991 83.864803,236.385991 C83.864803,236.385991 75.8581947,243.533548 70.3842916,253.058774 C64.3598235,263.490938 60.8259945,276.383316 60.8259945,276.383316 C60.8259945,276.383316 53.472868,283.104919 49.0614684,292.244406 C44.1801968,302.494282 42.178214,315.325281 42.178214,315.325281 C42.178214,315.325281 35.498412,323.356494 31.884419,333.12962 C27.9426267,343.773702 27.0436261,356.227428 27.0436261,356.227428 C27.0436261,356.227428 20.7125243,365.135946 18.0567951,375.343492 C15.0735311,386.801384 15.7695818,399.72551 15.7695818,399.72551 C15.7695818,399.72551 10.1723904,408.203843 8.0481774,418.992114 C5.88398823,430.155278 7.19015831,443.636848 7.19015831,443.636848 C7.19015831,443.636848 2.86024549,453.816879 1.89986521,464.439795 C0.879719119,475.391042 3.20770207,486.80872 3.20770207,486.80872 C3.20770207,486.80872 0.0823653791,498.38937 0.0016722706,509.76657 C-0.0806082434,521.256211 2.90080369,532.542134 2.90080369,532.542134 C2.90080369,532.542134 0.286796739,543.461631 1.32858446,554.423459 C2.41108913,565.728696 7.19007894,577.074147 7.19007894,577.074147 C7.19007894,577.074147 5.08658157,586.999929 6.88413301,597.449024 C8.8246303,608.756378 14.6653297,620.692873 14.6653297,620.692873 C14.6653297,620.692873 14.053385,632.10182 16.6266485,641.739487 C19.6697048,652.883602 25.9809641,662.521006 25.9809641,662.521006 C25.9809641,662.521006 25.6951253,673.643955 29.0655574,683.264426 C33.2319675,695.139541 41.2584183,705.997659 41.2584183,705.997659 C41.2584183,705.997659 41.4221857,715.637179 45.4870019,724.338012 C50.6127339,735.29984 59.8863563,745.812432 59.8863563,745.812432 C59.8863563,745.812432 60.6819903,755.49243 65.4827541,764.053307 C71.5278584,774.849781 81.9041985,785.099922 81.9041985,785.099922 C81.9041985,785.099922 83.7225186,795.023587 89.4819429,803.075966 C96.2022236,812.490868 106.945254,820.259101 106.945254,820.259101 C106.945254,820.259101 109.518544,829.532459 115.442371,836.791928 C123.631795,846.755542 135.969375,855.5794 135.969375,855.5794 C135.969375,855.5794 138.889408,863.305831 145.344591,869.713393 C154.003887,878.293848 166.830124,886.204155 166.830124,886.204155 C166.830124,886.204155 170.855255,894.053874 178.330611,900.17491 C187.909545,908.003199 201.532923,914.593578 201.532923,914.593578 C201.532923,914.593578 207.007089,923.010265 214.563405,928.257434 C224.183875,934.925594 236.356365,938.748596 236.356365,938.748596 C236.356365,938.748596 242.381891,947.208144 251.429836,952.617757 C262.235835,959.103897 276.387819,962.745405 276.387819,962.745405 C276.387819,962.745405 283.74359,969.984237 292.483051,973.990319 C303.472129,979.051232 316.421653,981.167774 316.421653,981.167774 C316.421653,981.167774 323.958391,988.102089 333.845016,991.581152 C344.853408,995.482466 358.292117,995.971651 358.292117,995.971651 C358.292117,995.971651 365.482005,1002.29482 375.000353,1004.95848 C386.804564,1008.25367 401.348372,1008.05022 401.348372,1008.05022 C401.348372,1008.05022 408.108338,1013.4183 416.788007,1014.96522 C429.167123,1017.11989 444.728988,1015.71686 444.728988,1015.71686 C444.728988,1015.71686 452.817083,1020.45579 462.499462,1021.34738 C474.550779,1022.48968 488.745094,1019.80525 488.745094,1019.80525 C488.745094,1019.80525 497.301474,1023.70815 507.67755,1023.87112 C519.156078,1024.03409 532.595052,1020.41269 532.595052,1020.41269 C532.595052,1020.41269 543.91193,1022.85375 554.102808,1021.92004 C565.86654,1020.81997 576.755877,1016.34666 576.755877,1016.34666 C576.755877,1016.34666 586.885111,1018.74719 596.771737,1016.95673 C608.6995,1014.80209 620.748702,1008.33659 620.748702,1008.33659 C620.748702,1008.33659 630.062803,1009.87952 639.010743,1007.52288 C651.121587,1004.26817 663.847553,996.866366 663.847553,996.866366 C663.847553,996.866366 674.753556,996.906051 684.189094,993.367725 C695.178173,989.242058 704.941245,981.45213 704.941245,981.45213 C704.941245,981.45213 714.785275,981.331488 724.38458,976.898658 C735.005381,971.977702 745.424316,962.745615 745.424316,962.745615 C745.424316,962.745615 755.106696,961.626336 763.641645,956.684637 C774.222231,950.564925 784.066262,940.416907 784.066262,940.416907 C784.066262,940.416907 793.912408,937.897139 801.285377,932.649997 C811.58076,925.329147 820.422078,914.594053 820.422078,914.594053 C820.422078,914.594053 830.063979,911.582745 837.662361,905.40086 C846.810313,897.959367 854.204712,887.120035 854.204712,887.120035 C854.204712,887.120035 863.725176,882.829013 870.831989,875.793897 C879.511658,867.131426 886.107857,855.419284 886.107857,855.419284 C886.107857,855.419284 894.727998,850.41393 901.613632,842.240644 C909.065443,833.39615 914.867409,821.295888 914.867409,821.295888 C914.867409,821.295888 923.281187,815.620913 928.838429,807.712724 C935.619561,798.153633 939.74655,785.994372 939.74655,785.994372 C939.74655,785.994372 947.608969,779.770685 952.755602,770.906613 C959.106811,759.987116 962.946481,745.997047 962.946481,745.997047 C962.946481,745.997047 970.055411,739.447148 974.180284,730.521432 C979.326917,719.377317 981.778664,705.387249 981.778664,705.387249 C981.778664,705.387249 988.35555,698.798987 991.786727,689.322705 C995.38167,679.399041 995.830641,666.587357 995.830641,666.587357 C995.830641,666.587357 1002.3054,657.621691 1005.18522,647.168361 C1008.53544,634.96677 1008.35236,620.997867 1008.35236,620.997867 C1008.35236,620.997867 1013.72255,614.246631 1015.45917,604.708706 C1017.64509,592.771946 1016.29566,577.521742 1016.29566,577.521742 C1016.29566,577.521742 1020.58668,569.145004 1021.54653,558.36758 C1022.58734,546.899104 1020.27798,532.989729 1020.27798,532.989729 C1020.27798,532.989729 1023.89621,524.469066 1023.87504,515.176923 C1023.83403,503.105605 1020.11792,489.522442 1020.11792,489.522442 Z" id="path" fill="#6416A6" fill-rule="nonzero"></path>
            <circle id="path" stroke="#6416A6" stroke-width="10.08867" cx="512" cy="512" r="308.965517"></circle>
            <path d="M578.837438,459.034483 L517.044335,374.541872" id="path" stroke="#C09BC7" stroke-width="6.30541872" stroke-linecap="round"></path>
            <path d="M578.206897,293.20197 L516.413793,373.91133" id="path" stroke="#7C2E9A" stroke-width="6.30541872" stroke-linecap="round"></path>
            <path d="M526.566643,273.519442 C478.16631,265.260606 432.880605,283.554574 417.808346,320.859722 C399.607853,365.907524 432.356009,421.618266 490.9534,445.293148 C549.55079,468.968032 611.807776,451.641857 630.00827,406.594057 C638.324179,386.011458 636.003903,363.202831 625.441547,342.241003 C642.170661,369.208398 647.066854,399.690916 636.095834,426.845144 C614.809799,479.529926 541.853852,499.735037 473.144165,471.974522 C404.434477,444.214006 365.99001,379.000207 387.276045,326.315423 C406.127276,279.65699 465.503934,258.472815 526.566643,273.519442 Z" id="path" fill="#6416A6" fill-rule="nonzero"></path>
            <path d="M520.827586,581.35362 C520.827586,577.874539 523.654257,575.054187 527.134584,575.054187 L654.445436,575.054187 C657.928694,575.054187 662.45473,577.314639 664.550481,580.097551 L675.948279,595.232498 C678.045883,598.017871 676.920547,600.275862 673.443037,600.275862 L527.130875,600.275862 C523.649665,600.275862 520.827586,597.456031 520.827586,593.97643 L520.827586,581.35362 Z" id="path" fill="#6416A6" fill-rule="nonzero"></path>
            <path d="M687.921182,633.694581 L721.970443,679.093596" id="path" stroke="#7C2E9A" stroke-width="26.4827586" stroke-linecap="round" stroke-linejoin="round"></path>
            <rect id="path" fill="#6416A6" fill-rule="nonzero" x="520.827586" y="667.1133" width="204.295567" height="25.2216749" rx="3.78325123"></rect>
            <rect id="path" fill="#6416A6" fill-rule="nonzero" x="520.827586" y="620.453202" width="170.246305" height="25.2216749" rx="3.78325123"></rect>
            <path d="M556.137931,600.275862 C552.646158,600.276727 549.832512,603.097556 549.832512,606.577102 L549.832512,614.151962 C549.832512,617.62585 552.655395,620.452333 556.137931,620.453202 L556.137931,625.496808 C556.137931,627.586643 554.43484,629.280788 552.359106,629.280788 L524.606411,629.280788 C522.519423,629.280788 520.827586,627.575847 520.827586,625.496808 L520.827586,593.971172 C520.827586,591.881337 522.530677,590.187192 524.606411,590.187192 L552.359106,590.187192 C554.446094,590.187192 556.137931,591.892133 556.137931,593.971172 L556.137931,600.275862 Z" id="path" fill="#6416A6" fill-rule="nonzero"></path>
            <path d="M520.827586,581.35362 C520.827586,577.874539 523.654257,575.054187 527.134584,575.054187 L654.445436,575.054187 C657.928694,575.054187 662.45473,577.314639 664.550481,580.097551 L675.948279,595.232498 C678.045883,598.017871 676.920547,600.275862 673.443037,600.275862 L527.130875,600.275862 C523.649665,600.275862 520.827586,597.456031 520.827586,593.97643 L520.827586,581.35362 Z" id="path" fill="#6416A6" fill-rule="nonzero"></path>
            <path d="M665.852217,667.1133 L691.098209,667.1133 C694.575719,667.1133 695.530031,665.000973 693.221457,662.395284 L682.587648,650.392894 C680.280795,647.789147 675.583866,645.674877 672.100608,645.674877 L665.852217,645.674877 L665.852217,640.631271 C665.852217,638.541436 667.555308,636.847291 669.631042,636.847291 L697.383737,636.847291 C699.470724,636.847291 701.162562,638.552232 701.162562,640.631271 L701.162562,672.156907 C701.162562,674.246742 699.459471,675.940887 697.383737,675.940887 L669.631042,675.940887 C667.544054,675.940887 665.852217,674.235946 665.852217,672.156907 L665.852217,667.1133 Z" id="path" fill="#6416A6" fill-rule="nonzero"></path>
            <path d="M371.68954,588.295567 L302.660099,679.093596" id="path" stroke="#7C2E9A" stroke-width="26.4827586" stroke-linecap="round" stroke-linejoin="round"></path>
            <rect id="path" fill="#6416A6" fill-rule="nonzero" x="368.236453" y="575.054187" width="134.935961" height="25.2216749" rx="3.78325123"></rect>
            <rect id="path" fill="#6416A6" fill-rule="nonzero" x="298.876847" y="667.1133" width="204.295567" height="25.2216749" rx="3.78325123"></rect>
            <polygon id="path" fill="#6416A6" fill-rule="nonzero" points="576.315271 498.128079 583.881773 505.694581 599.014778 505.694581 606.581281 498.128079"></polygon>
            <polygon id="path" fill="#6416A6" fill-rule="nonzero" transform="translate(578.837438, 512.629556) rotate(-90.000000) translate(-578.837438, -512.629556) " points="569.378324 508.846304 565.597045 512.631528 569.378324 516.412807 584.511329 516.412807 592.077832 508.846304"></polygon>
            <polygon id="path" fill="#6416A6" fill-rule="nonzero" transform="translate(604.059113, 512.629556) scale(-1, 1) rotate(-90.000000) translate(-604.059113, -512.629556) " points="594.599999 508.846304 590.81872 512.631528 594.599999 516.412807 609.733004 516.412807 617.299506 508.846304"></polygon>
            <polygon id="path" fill="#6416A6" fill-rule="nonzero" transform="translate(591.448276, 552.354680) scale(-1, 1) rotate(-180.000000) translate(-591.448276, -552.354680) " points="576.315271 548.571429 583.881773 556.137931 599.014778 556.137931 606.581281 548.571429"></polygon>
            <polygon id="path" fill="#6416A6" fill-rule="nonzero" transform="translate(578.837438, 541.636454) scale(-1, 1) rotate(90.000000) translate(-578.837438, -541.636454) " points="569.378324 537.853203 565.597045 541.638426 569.378324 545.419705 584.511329 545.419705 592.077832 537.853203"></polygon>
            <polygon id="path" fill="#6416A6" fill-rule="nonzero" transform="translate(604.059113, 541.636454) rotate(90.000000) translate(-604.059113, -541.636454) " points="594.599999 537.853203 590.81872 541.638426 594.599999 545.419705 609.733004 545.419705 617.299506 537.853203"></polygon>
            <polygon id="path" fill="#6416A6" fill-rule="nonzero" points="602.79803 527.133005 599.014778 530.916256 583.881773 530.916256 580.098522 527.133005 583.881773 523.349754 599.014778 523.349754"></polygon>
            <polygon id="path" fill="#6416A6" fill-rule="nonzero" points="523.349754 498.128079 530.916256 505.694581 546.049261 505.694581 553.615764 498.128079"></polygon>
            <polygon id="path" fill="#6416A6" fill-rule="nonzero" transform="translate(525.871921, 512.629556) rotate(-90.000000) translate(-525.871921, -512.629556) " points="516.412807 508.846304 512.631528 512.631528 516.412807 516.412807 531.545812 516.412807 539.112314 508.846304"></polygon>
            <polygon id="path" fill="#6416A6" fill-rule="nonzero" transform="translate(538.482759, 552.354680) scale(-1, 1) rotate(-180.000000) translate(-538.482759, -552.354680) " points="523.349754 548.571429 530.916256 556.137931 546.049261 556.137931 553.615764 548.571429"></polygon>
            <polygon id="path" fill="#6416A6" fill-rule="nonzero" transform="translate(551.093596, 541.636454) rotate(90.000000) translate(-551.093596, -541.636454) " points="541.634482 537.853203 537.853203 541.638426 541.634482 545.419705 556.767487 545.419705 564.333989 537.853203"></polygon>
            <polygon id="path" fill="#6416A6" fill-rule="nonzero" points="549.832512 527.133005 546.049261 530.916256 530.916256 530.916256 527.133005 527.133005 530.916256 523.349754 546.049261 523.349754"></polygon>
            <polygon id="path" fill="#6416A6" fill-rule="nonzero" points="470.384236 498.128079 477.950739 505.694581 493.083744 505.694581 500.650246 498.128079"></polygon>
            <polygon id="path" fill="#6416A6" fill-rule="nonzero" transform="translate(472.906404, 512.629556) rotate(-90.000000) translate(-472.906404, -512.629556) " points="463.44729 508.846304 459.666011 512.631528 463.44729 516.412807 478.580295 516.412807 486.146797 508.846304"></polygon>
            <polygon id="path" fill="#6416A6" fill-rule="nonzero" transform="translate(498.128079, 512.629556) scale(-1, 1) rotate(-90.000000) translate(-498.128079, -512.629556) " points="488.668965 508.846304 484.887686 512.631528 488.668965 516.412807 503.801969 516.412807 511.368472 508.846304"></polygon>
            <polygon id="path" fill="#6416A6" fill-rule="nonzero" transform="translate(485.517241, 552.354680) scale(-1, 1) rotate(-180.000000) translate(-485.517241, -552.354680) " points="470.384236 548.571429 477.950739 556.137931 493.083744 556.137931 500.650246 548.571429"></polygon>
            <polygon id="path" fill="#6416A6" fill-rule="nonzero" transform="translate(498.128079, 541.636454) rotate(90.000000) translate(-498.128079, -541.636454) " points="488.668965 537.853203 484.887686 541.638426 488.668965 545.419705 503.801969 545.419705 511.368472 537.853203"></polygon>
            <polygon id="path" fill="#6416A6" fill-rule="nonzero" points="496.866995 527.133005 493.083744 530.916256 477.950739 530.916256 474.167488 527.133005 477.950739 523.349754 493.083744 523.349754"></polygon>
            <polygon id="path" fill="#6416A6" fill-rule="nonzero" transform="translate(445.162562, 512.629556) scale(-1, 1) rotate(-90.000000) translate(-445.162562, -512.629556) " points="435.703447 508.846304 431.922168 512.631528 435.703447 516.412807 450.836452 516.412807 458.402955 508.846304"></polygon>
            <polygon id="path" fill="#6416A6" fill-rule="nonzero" transform="translate(445.162562, 541.636454) rotate(90.000000) translate(-445.162562, -541.636454) " points="435.703447 537.853203 431.922168 541.638426 435.703447 545.419705 450.836452 545.419705 458.402955 537.853203"></polygon>
        </g>
    </g>
</svg>
